<svg width="399" height="235" viewBox="0 0 399 235" fill="none" xmlns="http://www.w3.org/2000/svg">
<rect width="399" height="235" rx="24" fill="#009967"/>
<circle cx="40" cy="40" r="16" fill="#00FFAB"/>
<g clip-path="url(#clip0_113_113)">
<path d="M43.7499 33.5048C40.4414 31.5946 36.3455 31.0484 32.6886 31.8979C32.4843 31.9423 32.3608 32.147 32.4093 32.3536L32.8392 34.112C32.8877 34.3186 33.0965 34.4446 33.3031 34.3961C34.7552 34.0653 36.2382 33.9905 37.7176 34.1843C39.3807 34.3976 40.9673 34.9401 42.4368 35.7885C43.9063 36.637 45.1672 37.7438 46.1857 39.0734C47.0909 40.2618 47.77 41.5794 48.2096 43.0023C48.2709 43.2055 48.4843 43.3233 48.6875 43.262L50.4253 42.7552C50.6261 42.698 50.7416 42.4886 50.6803 42.2854C49.5794 38.6891 47.0584 35.4149 43.7499 33.5048Z" fill="#100E6C"/>
<path d="M33.6991 37.5259L34.1968 39.345C34.2524 39.5395 34.4466 39.6624 34.6445 39.6197C36.3816 39.2641 38.1786 39.5546 39.7334 40.4523C41.2882 41.3499 42.4407 42.7569 42.9989 44.4431C43.0608 44.6359 43.2644 44.7426 43.4606 44.6935L45.2849 44.2149C45.4962 44.1583 45.6164 43.9408 45.5469 43.733C44.8192 41.4779 43.2705 39.4633 41.0418 38.1766C38.8132 36.8899 36.2942 36.556 33.9774 37.0533C33.7708 37.1018 33.6425 37.3146 33.6991 37.5259ZM38.4015 42.7685C37.4516 42.2201 36.3613 42.1211 35.3925 42.4115C35.1957 42.4711 35.085 42.6724 35.1382 42.8709L36.0708 46.2618C36.1257 46.4667 36.3368 46.5886 36.5417 46.5337L39.9446 45.6459C40.1431 45.5927 40.262 45.3961 40.2152 45.1959C39.98 44.2157 39.3514 43.317 38.4015 42.7685Z" fill="#100E6C"/>
</g>
<path d="M32.112 86.4L29.856 88.752V93H25.992V76.2H29.856V84.048L37.296 76.2H41.616L34.656 83.688L42.024 93H37.488L32.112 86.4ZM49.3386 93.192C47.9786 93.192 46.7546 92.912 45.6666 92.352C44.5946 91.776 43.7546 90.984 43.1466 89.976C42.5386 88.968 42.2346 87.824 42.2346 86.544C42.2346 85.264 42.5386 84.12 43.1466 83.112C43.7546 82.104 44.5946 81.32 45.6666 80.76C46.7546 80.184 47.9786 79.896 49.3386 79.896C50.6986 79.896 51.9146 80.184 52.9866 80.76C54.0586 81.32 54.8986 82.104 55.5066 83.112C56.1146 84.12 56.4186 85.264 56.4186 86.544C56.4186 87.824 56.1146 88.968 55.5066 89.976C54.8986 90.984 54.0586 91.776 52.9866 92.352C51.9146 92.912 50.6986 93.192 49.3386 93.192ZM49.3386 90.12C50.2986 90.12 51.0826 89.8 51.6906 89.16C52.3146 88.504 52.6266 87.632 52.6266 86.544C52.6266 85.456 52.3146 84.592 51.6906 83.952C51.0826 83.296 50.2986 82.968 49.3386 82.968C48.3786 82.968 47.5866 83.296 46.9626 83.952C46.3386 84.592 46.0266 85.456 46.0266 86.544C46.0266 87.632 46.3386 88.504 46.9626 89.16C47.5866 89.8 48.3786 90.12 49.3386 90.12ZM67.0091 79.896C68.6091 79.896 69.8971 80.376 70.8731 81.336C71.8651 82.296 72.3611 83.72 72.3611 85.608V93H68.6171V86.184C68.6171 85.16 68.3931 84.4 67.9451 83.904C67.4971 83.392 66.8491 83.136 66.0011 83.136C65.0571 83.136 64.3051 83.432 63.7451 84.024C63.1851 84.6 62.9051 85.464 62.9051 86.616V93H59.1611V80.088H62.7371V81.6C63.2331 81.056 63.8491 80.64 64.5851 80.352C65.3211 80.048 66.1291 79.896 67.0091 79.896ZM88.7835 86.592C88.7835 86.64 88.7595 86.976 88.7115 87.6H78.9435C79.1195 88.4 79.5355 89.032 80.1915 89.496C80.8475 89.96 81.6635 90.192 82.6395 90.192C83.3115 90.192 83.9035 90.096 84.4155 89.904C84.9435 89.696 85.4315 89.376 85.8795 88.944L87.8715 91.104C86.6555 92.496 84.8795 93.192 82.5435 93.192C81.0875 93.192 79.7995 92.912 78.6795 92.352C77.5595 91.776 76.6955 90.984 76.0875 89.976C75.4795 88.968 75.1755 87.824 75.1755 86.544C75.1755 85.28 75.4715 84.144 76.0635 83.136C76.6715 82.112 77.4955 81.32 78.5355 80.76C79.5915 80.184 80.7675 79.896 82.0635 79.896C83.3275 79.896 84.4715 80.168 85.4955 80.712C86.5195 81.256 87.3195 82.04 87.8955 83.064C88.4875 84.072 88.7835 85.248 88.7835 86.592ZM82.0875 82.728C81.2395 82.728 80.5275 82.968 79.9515 83.448C79.3755 83.928 79.0235 84.584 78.8955 85.416H85.2555C85.1275 84.6 84.7755 83.952 84.1995 83.472C83.6235 82.976 82.9195 82.728 82.0875 82.728ZM97.0601 87.936L95.2601 89.712V93H91.5161V75.192H95.2601V85.272L100.732 80.088H105.196L99.8201 85.56L105.676 93H101.14L97.0601 87.936ZM111.522 93.192C110.45 93.192 109.402 93.064 108.378 92.808C107.354 92.536 106.538 92.2 105.93 91.8L107.178 89.112C107.754 89.48 108.45 89.784 109.266 90.024C110.082 90.248 110.882 90.36 111.666 90.36C113.25 90.36 114.042 89.968 114.042 89.184C114.042 88.816 113.826 88.552 113.394 88.392C112.962 88.232 112.298 88.096 111.402 87.984C110.346 87.824 109.474 87.64 108.786 87.432C108.098 87.224 107.498 86.856 106.986 86.328C106.49 85.8 106.242 85.048 106.242 84.072C106.242 83.256 106.474 82.536 106.938 81.912C107.418 81.272 108.106 80.776 109.002 80.424C109.914 80.072 110.986 79.896 112.218 79.896C113.13 79.896 114.034 80 114.93 80.208C115.842 80.4 116.594 80.672 117.186 81.024L115.938 83.688C114.802 83.048 113.562 82.728 112.218 82.728C111.418 82.728 110.818 82.84 110.418 83.064C110.018 83.288 109.818 83.576 109.818 83.928C109.818 84.328 110.034 84.608 110.466 84.768C110.898 84.928 111.586 85.08 112.53 85.224C113.586 85.4 114.45 85.592 115.122 85.8C115.794 85.992 116.378 86.352 116.874 86.88C117.37 87.408 117.618 88.144 117.618 89.088C117.618 89.888 117.378 90.6 116.898 91.224C116.418 91.848 115.714 92.336 114.786 92.688C113.874 93.024 112.786 93.192 111.522 93.192ZM120.168 80.088H123.912V93H120.168V80.088ZM122.04 78.288C121.352 78.288 120.792 78.088 120.36 77.688C119.928 77.288 119.712 76.792 119.712 76.2C119.712 75.608 119.928 75.112 120.36 74.712C120.792 74.312 121.352 74.112 122.04 74.112C122.728 74.112 123.288 74.304 123.72 74.688C124.152 75.072 124.368 75.552 124.368 76.128C124.368 76.752 124.152 77.272 123.72 77.688C123.288 78.088 122.728 78.288 122.04 78.288ZM140.448 93.288C139.12 93.288 137.832 93.112 136.584 92.76C135.352 92.392 134.36 91.92 133.608 91.344L134.928 88.416C135.648 88.944 136.504 89.368 137.496 89.688C138.488 90.008 139.48 90.168 140.472 90.168C141.576 90.168 142.392 90.008 142.92 89.688C143.448 89.352 143.712 88.912 143.712 88.368C143.712 87.968 143.552 87.64 143.232 87.384C142.928 87.112 142.528 86.896 142.032 86.736C141.552 86.576 140.896 86.4 140.064 86.208C138.784 85.904 137.736 85.6 136.92 85.296C136.104 84.992 135.4 84.504 134.808 83.832C134.232 83.16 133.944 82.264 133.944 81.144C133.944 80.168 134.208 79.288 134.736 78.504C135.264 77.704 136.056 77.072 137.112 76.608C138.184 76.144 139.488 75.912 141.024 75.912C142.096 75.912 143.144 76.04 144.168 76.296C145.192 76.552 146.088 76.92 146.856 77.4L145.656 80.352C144.104 79.472 142.552 79.032 141 79.032C139.912 79.032 139.104 79.208 138.576 79.56C138.064 79.912 137.808 80.376 137.808 80.952C137.808 81.528 138.104 81.96 138.696 82.248C139.304 82.52 140.224 82.792 141.456 83.064C142.736 83.368 143.784 83.672 144.6 83.976C145.416 84.28 146.112 84.76 146.688 85.416C147.28 86.072 147.576 86.96 147.576 88.08C147.576 89.04 147.304 89.92 146.76 90.72C146.232 91.504 145.432 92.128 144.36 92.592C143.288 93.056 141.984 93.288 140.448 93.288ZM158.536 92.376C158.168 92.648 157.712 92.856 157.168 93C156.64 93.128 156.08 93.192 155.488 93.192C153.952 93.192 152.76 92.8 151.912 92.016C151.08 91.232 150.664 90.08 150.664 88.56V83.256H148.672V80.376H150.664V77.232H154.408V80.376H157.624V83.256H154.408V88.512C154.408 89.056 154.544 89.48 154.816 89.784C155.104 90.072 155.504 90.216 156.016 90.216C156.608 90.216 157.112 90.056 157.528 89.736L158.536 92.376ZM166.086 79.896C168.086 79.896 169.622 80.376 170.694 81.336C171.766 82.28 172.302 83.712 172.302 85.632V93H168.798V91.392C168.094 92.592 166.782 93.192 164.862 93.192C163.87 93.192 163.006 93.024 162.27 92.688C161.55 92.352 160.998 91.888 160.614 91.296C160.23 90.704 160.038 90.032 160.038 89.28C160.038 88.08 160.486 87.136 161.382 86.448C162.294 85.76 163.694 85.416 165.582 85.416H168.558C168.558 84.6 168.31 83.976 167.814 83.544C167.318 83.096 166.574 82.872 165.582 82.872C164.894 82.872 164.214 82.984 163.542 83.208C162.886 83.416 162.326 83.704 161.862 84.072L160.518 81.456C161.222 80.96 162.062 80.576 163.038 80.304C164.03 80.032 165.046 79.896 166.086 79.896ZM165.798 90.672C166.438 90.672 167.006 90.528 167.502 90.24C167.998 89.936 168.35 89.496 168.558 88.92V87.6H165.99C164.454 87.6 163.686 88.104 163.686 89.112C163.686 89.592 163.87 89.976 164.238 90.264C164.622 90.536 165.142 90.672 165.798 90.672ZM183.562 79.896C184.763 79.896 185.851 80.176 186.826 80.736C187.818 81.28 188.594 82.056 189.155 83.064C189.715 84.056 189.995 85.216 189.995 86.544C189.995 87.872 189.715 89.04 189.155 90.048C188.594 91.04 187.818 91.816 186.826 92.376C185.851 92.92 184.763 93.192 183.562 93.192C181.786 93.192 180.434 92.632 179.506 91.512V93H175.93V75.192H179.674V81.456C180.618 80.416 181.914 79.896 183.562 79.896ZM182.914 90.12C183.874 90.12 184.658 89.8 185.266 89.16C185.89 88.504 186.202 87.632 186.202 86.544C186.202 85.456 185.89 84.592 185.266 83.952C184.658 83.296 183.874 82.968 182.914 82.968C181.954 82.968 181.162 83.296 180.538 83.952C179.93 84.592 179.626 85.456 179.626 86.544C179.626 87.632 179.93 88.504 180.538 89.16C181.162 89.8 181.954 90.12 182.914 90.12ZM192.741 80.088H196.485V93H192.741V80.088ZM194.613 78.288C193.925 78.288 193.365 78.088 192.933 77.688C192.501 77.288 192.285 76.792 192.285 76.2C192.285 75.608 192.501 75.112 192.933 74.712C193.365 74.312 193.925 74.112 194.613 74.112C195.301 74.112 195.861 74.304 196.293 74.688C196.725 75.072 196.941 75.552 196.941 76.128C196.941 76.752 196.725 77.272 196.293 77.688C195.861 78.088 195.301 78.288 194.613 78.288ZM200.2 75.192H203.944V93H200.2V75.192Z" fill="white"/>
<path d="M28 122.824H24.064V121.8H33.12V122.824H29.184V133H28V122.824ZM41.3845 129.144H34.3445C34.4085 130.019 34.7445 130.728 35.3525 131.272C35.9605 131.805 36.7285 132.072 37.6565 132.072C38.1792 132.072 38.6592 131.981 39.0965 131.8C39.5338 131.608 39.9125 131.331 40.2325 130.968L40.8725 131.704C40.4992 132.152 40.0298 132.493 39.4645 132.728C38.9098 132.963 38.2965 133.08 37.6245 133.08C36.7605 133.08 35.9925 132.899 35.3205 132.536C34.6592 132.163 34.1418 131.651 33.7685 131C33.3952 130.349 33.2085 129.613 33.2085 128.792C33.2085 127.971 33.3845 127.235 33.7365 126.584C34.0992 125.933 34.5898 125.427 35.2085 125.064C35.8378 124.701 36.5418 124.52 37.3205 124.52C38.0992 124.52 38.7978 124.701 39.4165 125.064C40.0352 125.427 40.5205 125.933 40.8725 126.584C41.2245 127.224 41.4005 127.96 41.4005 128.792L41.3845 129.144ZM37.3205 125.496C36.5098 125.496 35.8272 125.757 35.2725 126.28C34.7285 126.792 34.4192 127.464 34.3445 128.296H40.3125C40.2378 127.464 39.9232 126.792 39.3685 126.28C38.8245 125.757 38.1418 125.496 37.3205 125.496ZM46.9927 128.776L45.0087 130.6V133H43.8727V121.128H45.0087V129.176L50.0328 124.584H51.4408L47.8407 128.024L51.7768 133H50.3848L46.9927 128.776ZM57.8051 124.52C58.8611 124.52 59.6985 124.829 60.3171 125.448C60.9465 126.056 61.2611 126.947 61.2611 128.12V133H60.1251V128.232C60.1251 127.357 59.9065 126.691 59.4691 126.232C59.0318 125.773 58.4078 125.544 57.5971 125.544C56.6905 125.544 55.9705 125.816 55.4371 126.36C54.9145 126.893 54.6531 127.635 54.6531 128.584V133H53.5171V124.584H54.6051V126.136C54.9145 125.624 55.3411 125.229 55.8851 124.952C56.4398 124.664 57.0798 124.52 57.8051 124.52ZM67.9765 133.08C67.1658 133.08 66.4352 132.899 65.7845 132.536C65.1338 132.163 64.6218 131.651 64.2485 131C63.8752 130.349 63.6885 129.613 63.6885 128.792C63.6885 127.971 63.8752 127.235 64.2485 126.584C64.6218 125.933 65.1338 125.427 65.7845 125.064C66.4352 124.701 67.1658 124.52 67.9765 124.52C68.7872 124.52 69.5178 124.701 70.1685 125.064C70.8192 125.427 71.3258 125.933 71.6885 126.584C72.0618 127.235 72.2485 127.971 72.2485 128.792C72.2485 129.613 72.0618 130.349 71.6885 131C71.3258 131.651 70.8192 132.163 70.1685 132.536C69.5178 132.899 68.7872 133.08 67.9765 133.08ZM67.9765 132.072C68.5738 132.072 69.1072 131.939 69.5765 131.672C70.0565 131.395 70.4298 131.005 70.6965 130.504C70.9632 130.003 71.0965 129.432 71.0965 128.792C71.0965 128.152 70.9632 127.581 70.6965 127.08C70.4298 126.579 70.0565 126.195 69.5765 125.928C69.1072 125.651 68.5738 125.512 67.9765 125.512C67.3792 125.512 66.8405 125.651 66.3605 125.928C65.8912 126.195 65.5178 126.579 65.2405 127.08C64.9738 127.581 64.8405 128.152 64.8405 128.792C64.8405 129.432 64.9738 130.003 65.2405 130.504C65.5178 131.005 65.8912 131.395 66.3605 131.672C66.8405 131.939 67.3792 132.072 67.9765 132.072ZM74.7277 121.128H75.8637V133H74.7277V121.128ZM82.6246 133.08C81.814 133.08 81.0833 132.899 80.4326 132.536C79.782 132.163 79.27 131.651 78.8966 131C78.5233 130.349 78.3366 129.613 78.3366 128.792C78.3366 127.971 78.5233 127.235 78.8966 126.584C79.27 125.933 79.782 125.427 80.4326 125.064C81.0833 124.701 81.814 124.52 82.6246 124.52C83.4353 124.52 84.166 124.701 84.8166 125.064C85.4673 125.427 85.974 125.933 86.3366 126.584C86.71 127.235 86.8966 127.971 86.8966 128.792C86.8966 129.613 86.71 130.349 86.3366 131C85.974 131.651 85.4673 132.163 84.8166 132.536C84.166 132.899 83.4353 133.08 82.6246 133.08ZM82.6246 132.072C83.222 132.072 83.7553 131.939 84.2246 131.672C84.7046 131.395 85.078 131.005 85.3446 130.504C85.6113 130.003 85.7446 129.432 85.7446 128.792C85.7446 128.152 85.6113 127.581 85.3446 127.08C85.078 126.579 84.7046 126.195 84.2246 125.928C83.7553 125.651 83.222 125.512 82.6246 125.512C82.0273 125.512 81.4886 125.651 81.0086 125.928C80.5393 126.195 80.166 126.579 79.8886 127.08C79.622 127.581 79.4886 128.152 79.4886 128.792C79.4886 129.432 79.622 130.003 79.8886 130.504C80.166 131.005 80.5393 131.395 81.0086 131.672C81.4886 131.939 82.0273 132.072 82.6246 132.072ZM97.1679 124.584V131.976C97.1679 133.405 96.8159 134.461 96.1119 135.144C95.4185 135.837 94.3679 136.184 92.9599 136.184C92.1812 136.184 91.4399 136.067 90.7359 135.832C90.0425 135.608 89.4772 135.293 89.0399 134.888L89.6159 134.024C90.0212 134.387 90.5119 134.669 91.0879 134.872C91.6745 135.075 92.2879 135.176 92.9279 135.176C93.9945 135.176 94.7785 134.925 95.2799 134.424C95.7812 133.933 96.0319 133.165 96.0319 132.12V131.048C95.6799 131.581 95.2159 131.987 94.6399 132.264C94.0745 132.541 93.4452 132.68 92.7519 132.68C91.9625 132.68 91.2425 132.509 90.5919 132.168C89.9519 131.816 89.4452 131.331 89.0719 130.712C88.7092 130.083 88.5279 129.373 88.5279 128.584C88.5279 127.795 88.7092 127.091 89.0719 126.472C89.4452 125.853 89.9519 125.373 90.5919 125.032C91.2319 124.691 91.9519 124.52 92.7519 124.52C93.4665 124.52 94.1119 124.664 94.6879 124.952C95.2639 125.24 95.7279 125.656 96.0799 126.2V124.584H97.1679ZM92.8639 131.672C93.4719 131.672 94.0212 131.544 94.5119 131.288C95.0025 131.021 95.3812 130.653 95.6479 130.184C95.9252 129.715 96.0639 129.181 96.0639 128.584C96.0639 127.987 95.9252 127.459 95.6479 127C95.3812 126.531 95.0025 126.168 94.5119 125.912C94.0319 125.645 93.4825 125.512 92.8639 125.512C92.2559 125.512 91.7065 125.64 91.2159 125.896C90.7359 126.152 90.3572 126.515 90.0799 126.984C89.8132 127.453 89.6799 127.987 89.6799 128.584C89.6799 129.181 89.8132 129.715 90.0799 130.184C90.3572 130.653 90.7359 131.021 91.2159 131.288C91.7065 131.544 92.2559 131.672 92.8639 131.672ZM100.505 124.584H101.641V133H100.505V124.584ZM101.081 122.744C100.846 122.744 100.649 122.664 100.489 122.504C100.329 122.344 100.249 122.152 100.249 121.928C100.249 121.715 100.329 121.528 100.489 121.368C100.649 121.208 100.846 121.128 101.081 121.128C101.315 121.128 101.513 121.208 101.673 121.368C101.833 121.517 101.913 121.699 101.913 121.912C101.913 122.147 101.833 122.344 101.673 122.504C101.513 122.664 101.315 122.744 101.081 122.744ZM113.741 132.488C113.528 132.68 113.261 132.829 112.941 132.936C112.632 133.032 112.306 133.08 111.965 133.08C111.176 133.08 110.568 132.867 110.141 132.44C109.714 132.013 109.501 131.411 109.501 130.632V125.544H107.997V124.584H109.501V122.744H110.637V124.584H113.197V125.544H110.637V130.568C110.637 131.069 110.76 131.453 111.005 131.72C111.261 131.976 111.624 132.104 112.093 132.104C112.328 132.104 112.552 132.067 112.765 131.992C112.989 131.917 113.181 131.811 113.341 131.672L113.741 132.488ZM123 129.144H115.96C116.024 130.019 116.36 130.728 116.968 131.272C117.576 131.805 118.344 132.072 119.272 132.072C119.795 132.072 120.275 131.981 120.712 131.8C121.149 131.608 121.528 131.331 121.848 130.968L122.488 131.704C122.115 132.152 121.645 132.493 121.08 132.728C120.525 132.963 119.912 133.08 119.24 133.08C118.376 133.08 117.608 132.899 116.936 132.536C116.275 132.163 115.757 131.651 115.384 131C115.011 130.349 114.824 129.613 114.824 128.792C114.824 127.971 115 127.235 115.352 126.584C115.715 125.933 116.205 125.427 116.824 125.064C117.453 124.701 118.157 124.52 118.936 124.52C119.715 124.52 120.413 124.701 121.032 125.064C121.651 125.427 122.136 125.933 122.488 126.584C122.84 127.224 123.016 127.96 123.016 128.792L123 129.144ZM118.936 125.496C118.125 125.496 117.443 125.757 116.888 126.28C116.344 126.792 116.035 127.464 115.96 128.296H121.928C121.853 127.464 121.539 126.792 120.984 126.28C120.44 125.757 119.757 125.496 118.936 125.496ZM126.576 126.232C126.843 125.667 127.238 125.24 127.76 124.952C128.294 124.664 128.95 124.52 129.728 124.52V125.624L129.456 125.608C128.571 125.608 127.878 125.88 127.376 126.424C126.875 126.968 126.624 127.731 126.624 128.712V133H125.488V124.584H126.576V126.232ZM135.065 128.776L133.081 130.6V133H131.945V121.128H133.081V129.176L138.105 124.584H139.513L135.913 128.024L139.849 133H138.457L135.065 128.776ZM141.59 124.584H142.726V133H141.59V124.584ZM142.166 122.744C141.931 122.744 141.734 122.664 141.574 122.504C141.414 122.344 141.334 122.152 141.334 121.928C141.334 121.715 141.414 121.528 141.574 121.368C141.734 121.208 141.931 121.128 142.166 121.128C142.4 121.128 142.598 121.208 142.758 121.368C142.918 121.517 142.998 121.699 142.998 121.912C142.998 122.147 142.918 122.344 142.758 122.504C142.598 122.664 142.4 122.744 142.166 122.744ZM150.335 124.52C151.391 124.52 152.228 124.829 152.847 125.448C153.476 126.056 153.791 126.947 153.791 128.12V133H152.655V128.232C152.655 127.357 152.436 126.691 151.999 126.232C151.561 125.773 150.937 125.544 150.127 125.544C149.22 125.544 148.5 125.816 147.967 126.36C147.444 126.893 147.183 127.635 147.183 128.584V133H146.047V124.584H147.135V126.136C147.444 125.624 147.871 125.229 148.415 124.952C148.969 124.664 149.609 124.52 150.335 124.52ZM157.035 124.584H158.171V133H157.035V124.584ZM157.611 122.744C157.376 122.744 157.179 122.664 157.019 122.504C156.859 122.344 156.779 122.152 156.779 121.928C156.779 121.715 156.859 121.528 157.019 121.368C157.179 121.208 157.376 121.128 157.611 121.128C157.845 121.128 158.043 121.208 158.203 121.368C158.363 121.517 158.443 121.699 158.443 121.912C158.443 122.147 158.363 122.344 158.203 122.504C158.043 122.664 157.845 122.744 157.611 122.744ZM173.519 121.128V133H172.431V131.336C172.09 131.901 171.636 132.333 171.071 132.632C170.516 132.931 169.887 133.08 169.183 133.08C168.394 133.08 167.679 132.899 167.039 132.536C166.399 132.173 165.898 131.667 165.535 131.016C165.172 130.365 164.991 129.624 164.991 128.792C164.991 127.96 165.172 127.219 165.535 126.568C165.898 125.917 166.399 125.416 167.039 125.064C167.679 124.701 168.394 124.52 169.183 124.52C169.866 124.52 170.479 124.664 171.023 124.952C171.578 125.229 172.031 125.64 172.383 126.184V121.128H173.519ZM169.279 132.072C169.866 132.072 170.394 131.939 170.863 131.672C171.343 131.395 171.716 131.005 171.983 130.504C172.26 130.003 172.399 129.432 172.399 128.792C172.399 128.152 172.26 127.581 171.983 127.08C171.716 126.579 171.343 126.195 170.863 125.928C170.394 125.651 169.866 125.512 169.279 125.512C168.682 125.512 168.143 125.651 167.663 125.928C167.194 126.195 166.82 126.579 166.543 127.08C166.276 127.581 166.143 128.152 166.143 128.792C166.143 129.432 166.276 130.003 166.543 130.504C166.82 131.005 167.194 131.395 167.663 131.672C168.143 131.939 168.682 132.072 169.279 132.072ZM176.843 124.584H177.979V133H176.843V124.584ZM177.419 122.744C177.184 122.744 176.987 122.664 176.827 122.504C176.667 122.344 176.587 122.152 176.587 121.928C176.587 121.715 176.667 121.528 176.827 121.368C176.987 121.208 177.184 121.128 177.419 121.128C177.653 121.128 177.851 121.208 178.011 121.368C178.171 121.517 178.251 121.699 178.251 121.912C178.251 122.147 178.171 122.344 178.011 122.504C177.851 122.664 177.653 122.744 177.419 122.744ZM188.98 121.128V133H187.892V131.336C187.55 131.901 187.097 132.333 186.532 132.632C185.977 132.931 185.348 133.08 184.644 133.08C183.854 133.08 183.14 132.899 182.5 132.536C181.86 132.173 181.358 131.667 180.996 131.016C180.633 130.365 180.452 129.624 180.452 128.792C180.452 127.96 180.633 127.219 180.996 126.568C181.358 125.917 181.86 125.416 182.5 125.064C183.14 124.701 183.854 124.52 184.644 124.52C185.326 124.52 185.94 124.664 186.484 124.952C187.038 125.229 187.492 125.64 187.844 126.184V121.128H188.98ZM184.74 132.072C185.326 132.072 185.854 131.939 186.324 131.672C186.804 131.395 187.177 131.005 187.444 130.504C187.721 130.003 187.86 129.432 187.86 128.792C187.86 128.152 187.721 127.581 187.444 127.08C187.177 126.579 186.804 126.195 186.324 125.928C185.854 125.651 185.326 125.512 184.74 125.512C184.142 125.512 183.604 125.651 183.124 125.928C182.654 126.195 182.281 126.579 182.004 127.08C181.737 127.581 181.604 128.152 181.604 128.792C181.604 129.432 181.737 130.003 182.004 130.504C182.281 131.005 182.654 131.395 183.124 131.672C183.604 131.939 184.142 132.072 184.74 132.072ZM199.887 124.584V133H198.799V131.464C198.501 131.976 198.09 132.376 197.567 132.664C197.045 132.941 196.447 133.08 195.775 133.08C194.677 133.08 193.807 132.776 193.167 132.168C192.538 131.549 192.223 130.648 192.223 129.464V124.584H193.359V129.352C193.359 130.237 193.578 130.909 194.015 131.368C194.453 131.827 195.077 132.056 195.887 132.056C196.773 132.056 197.471 131.789 197.983 131.256C198.495 130.712 198.751 129.96 198.751 129V124.584H199.887ZM206.349 128.776L204.365 130.6V133H203.229V121.128H204.365V129.176L209.389 124.584H210.797L207.197 128.024L211.133 133H209.741L206.349 128.776ZM220.426 124.584V133H219.338V131.464C219.039 131.976 218.629 132.376 218.106 132.664C217.583 132.941 216.986 133.08 216.314 133.08C215.215 133.08 214.346 132.776 213.706 132.168C213.077 131.549 212.762 130.648 212.762 129.464V124.584H213.898V129.352C213.898 130.237 214.117 130.909 214.554 131.368C214.991 131.827 215.615 132.056 216.426 132.056C217.311 132.056 218.01 131.789 218.522 131.256C219.034 130.712 219.29 129.96 219.29 129V124.584H220.426ZM228.056 124.52C229.112 124.52 229.949 124.829 230.568 125.448C231.197 126.056 231.512 126.947 231.512 128.12V133H230.376V128.232C230.376 127.357 230.157 126.691 229.72 126.232C229.282 125.773 228.658 125.544 227.848 125.544C226.941 125.544 226.221 125.816 225.688 126.36C225.165 126.893 224.904 127.635 224.904 128.584V133H223.768V124.584H224.856V126.136C225.165 125.624 225.592 125.229 226.136 124.952C226.69 124.664 227.33 124.52 228.056 124.52ZM242.579 124.584V131.976C242.579 133.405 242.227 134.461 241.523 135.144C240.83 135.837 239.779 136.184 238.371 136.184C237.592 136.184 236.851 136.067 236.147 135.832C235.454 135.608 234.888 135.293 234.451 134.888L235.027 134.024C235.432 134.387 235.923 134.669 236.499 134.872C237.086 135.075 237.699 135.176 238.339 135.176C239.406 135.176 240.19 134.925 240.691 134.424C241.192 133.933 241.443 133.165 241.443 132.12V131.048C241.091 131.581 240.627 131.987 240.051 132.264C239.486 132.541 238.856 132.68 238.163 132.68C237.374 132.68 236.654 132.509 236.003 132.168C235.363 131.816 234.856 131.331 234.483 130.712C234.12 130.083 233.939 129.373 233.939 128.584C233.939 127.795 234.12 127.091 234.483 126.472C234.856 125.853 235.363 125.373 236.003 125.032C236.643 124.691 237.363 124.52 238.163 124.52C238.878 124.52 239.523 124.664 240.099 124.952C240.675 125.24 241.139 125.656 241.491 126.2V124.584H242.579ZM238.275 131.672C238.883 131.672 239.432 131.544 239.923 131.288C240.414 131.021 240.792 130.653 241.059 130.184C241.336 129.715 241.475 129.181 241.475 128.584C241.475 127.987 241.336 127.459 241.059 127C240.792 126.531 240.414 126.168 239.923 125.912C239.443 125.645 238.894 125.512 238.275 125.512C237.667 125.512 237.118 125.64 236.627 125.896C236.147 126.152 235.768 126.515 235.491 126.984C235.224 127.453 235.091 127.987 235.091 128.584C235.091 129.181 235.224 129.715 235.491 130.184C235.768 130.653 236.147 131.021 236.627 131.288C237.118 131.544 237.667 131.672 238.275 131.672ZM251.351 126.232C251.618 125.667 252.013 125.24 252.535 124.952C253.069 124.664 253.725 124.52 254.503 124.52V125.624L254.231 125.608C253.346 125.608 252.653 125.88 252.151 126.424C251.65 126.968 251.399 127.731 251.399 128.712V133H250.263V124.584H251.351V126.232ZM260.082 133.08C259.271 133.08 258.541 132.899 257.89 132.536C257.239 132.163 256.727 131.651 256.354 131C255.981 130.349 255.794 129.613 255.794 128.792C255.794 127.971 255.981 127.235 256.354 126.584C256.727 125.933 257.239 125.427 257.89 125.064C258.541 124.701 259.271 124.52 260.082 124.52C260.893 124.52 261.623 124.701 262.274 125.064C262.925 125.427 263.431 125.933 263.794 126.584C264.167 127.235 264.354 127.971 264.354 128.792C264.354 129.613 264.167 130.349 263.794 131C263.431 131.651 262.925 132.163 262.274 132.536C261.623 132.899 260.893 133.08 260.082 133.08ZM260.082 132.072C260.679 132.072 261.213 131.939 261.682 131.672C262.162 131.395 262.535 131.005 262.802 130.504C263.069 130.003 263.202 129.432 263.202 128.792C263.202 128.152 263.069 127.581 262.802 127.08C262.535 126.579 262.162 126.195 261.682 125.928C261.213 125.651 260.679 125.512 260.082 125.512C259.485 125.512 258.946 125.651 258.466 125.928C257.997 126.195 257.623 126.579 257.346 127.08C257.079 127.581 256.946 128.152 256.946 128.792C256.946 129.432 257.079 130.003 257.346 130.504C257.623 131.005 257.997 131.395 258.466 131.672C258.946 131.939 259.485 132.072 260.082 132.072ZM274.417 124.584V133H273.329V131.464C273.031 131.976 272.62 132.376 272.097 132.664C271.575 132.941 270.977 133.08 270.305 133.08C269.207 133.08 268.337 132.776 267.697 132.168C267.068 131.549 266.753 130.648 266.753 129.464V124.584H267.889V129.352C267.889 130.237 268.108 130.909 268.545 131.368C268.983 131.827 269.607 132.056 270.417 132.056C271.303 132.056 272.001 131.789 272.513 131.256C273.025 130.712 273.281 129.96 273.281 129V124.584H274.417ZM282.191 132.488C281.978 132.68 281.711 132.829 281.391 132.936C281.082 133.032 280.756 133.08 280.415 133.08C279.626 133.08 279.018 132.867 278.591 132.44C278.164 132.013 277.951 131.411 277.951 130.632V125.544H276.447V124.584H277.951V122.744H279.087V124.584H281.647V125.544H279.087V130.568C279.087 131.069 279.21 131.453 279.455 131.72C279.711 131.976 280.074 132.104 280.543 132.104C280.778 132.104 281.002 132.067 281.215 131.992C281.439 131.917 281.631 131.811 281.791 131.672L282.191 132.488ZM291.45 129.144H284.41C284.474 130.019 284.81 130.728 285.418 131.272C286.026 131.805 286.794 132.072 287.722 132.072C288.245 132.072 288.725 131.981 289.162 131.8C289.599 131.608 289.978 131.331 290.298 130.968L290.938 131.704C290.565 132.152 290.095 132.493 289.53 132.728C288.975 132.963 288.362 133.08 287.69 133.08C286.826 133.08 286.058 132.899 285.386 132.536C284.725 132.163 284.207 131.651 283.834 131C283.461 130.349 283.274 129.613 283.274 128.792C283.274 127.971 283.45 127.235 283.802 126.584C284.165 125.933 284.655 125.427 285.274 125.064C285.903 124.701 286.607 124.52 287.386 124.52C288.165 124.52 288.863 124.701 289.482 125.064C290.101 125.427 290.586 125.933 290.938 126.584C291.29 127.224 291.466 127.96 291.466 128.792L291.45 129.144ZM287.386 125.496C286.575 125.496 285.893 125.757 285.338 126.28C284.794 126.792 284.485 127.464 284.41 128.296H290.378C290.303 127.464 289.989 126.792 289.434 126.28C288.89 125.757 288.207 125.496 287.386 125.496ZM295.026 126.232C295.293 125.667 295.688 125.24 296.21 124.952C296.744 124.664 297.4 124.52 298.178 124.52V125.624L297.906 125.608C297.021 125.608 296.328 125.88 295.826 126.424C295.325 126.968 295.074 127.731 295.074 128.712V133H293.938V124.584H295.026V126.232ZM312.548 121.128V133H311.46V131.336C311.118 131.901 310.665 132.333 310.1 132.632C309.545 132.931 308.916 133.08 308.212 133.08C307.422 133.08 306.708 132.899 306.068 132.536C305.428 132.173 304.926 131.667 304.564 131.016C304.201 130.365 304.02 129.624 304.02 128.792C304.02 127.96 304.201 127.219 304.564 126.568C304.926 125.917 305.428 125.416 306.068 125.064C306.708 124.701 307.422 124.52 308.212 124.52C308.894 124.52 309.508 124.664 310.052 124.952C310.606 125.229 311.06 125.64 311.412 126.184V121.128H312.548ZM308.308 132.072C308.894 132.072 309.422 131.939 309.892 131.672C310.372 131.395 310.745 131.005 311.012 130.504C311.289 130.003 311.428 129.432 311.428 128.792C311.428 128.152 311.289 127.581 311.012 127.08C310.745 126.579 310.372 126.195 309.892 125.928C309.422 125.651 308.894 125.512 308.308 125.512C307.71 125.512 307.172 125.651 306.692 125.928C306.222 126.195 305.849 126.579 305.572 127.08C305.305 127.581 305.172 128.152 305.172 128.792C305.172 129.432 305.305 130.003 305.572 130.504C305.849 131.005 306.222 131.395 306.692 131.672C307.172 131.939 307.71 132.072 308.308 132.072ZM318.816 124.52C319.914 124.52 320.757 124.797 321.344 125.352C321.93 125.896 322.224 126.707 322.224 127.784V133H321.136V131.688C320.88 132.125 320.501 132.467 320 132.712C319.509 132.957 318.922 133.08 318.24 133.08C317.301 133.08 316.554 132.856 316 132.408C315.445 131.96 315.168 131.368 315.168 130.632C315.168 129.917 315.424 129.341 315.936 128.904C316.458 128.467 317.285 128.248 318.416 128.248H321.088V127.736C321.088 127.011 320.885 126.461 320.48 126.088C320.074 125.704 319.482 125.512 318.704 125.512C318.17 125.512 317.658 125.603 317.168 125.784C316.677 125.955 316.256 126.195 315.904 126.504L315.392 125.656C315.818 125.293 316.33 125.016 316.928 124.824C317.525 124.621 318.154 124.52 318.816 124.52ZM318.416 132.184C319.056 132.184 319.605 132.04 320.064 131.752C320.522 131.453 320.864 131.027 321.088 130.472V129.096H318.448C317.008 129.096 316.288 129.597 316.288 130.6C316.288 131.091 316.474 131.48 316.848 131.768C317.221 132.045 317.744 132.184 318.416 132.184ZM329.757 124.52C330.813 124.52 331.65 124.829 332.269 125.448C332.898 126.056 333.213 126.947 333.213 128.12V133H332.077V128.232C332.077 127.357 331.858 126.691 331.421 126.232C330.984 125.773 330.36 125.544 329.549 125.544C328.642 125.544 327.922 125.816 327.389 126.36C326.866 126.893 326.605 127.635 326.605 128.584V133H325.469V124.584H326.557V126.136C326.866 125.624 327.293 125.229 327.837 124.952C328.392 124.664 329.032 124.52 329.757 124.52ZM28.528 157.52C29.6267 157.52 30.4693 157.797 31.056 158.352C31.6427 158.896 31.936 159.707 31.936 160.784V166H30.848V164.688C30.592 165.125 30.2133 165.467 29.712 165.712C29.2213 165.957 28.6347 166.08 27.952 166.08C27.0133 166.08 26.2667 165.856 25.712 165.408C25.1573 164.96 24.88 164.368 24.88 163.632C24.88 162.917 25.136 162.341 25.648 161.904C26.1707 161.467 26.9973 161.248 28.128 161.248H30.8V160.736C30.8 160.011 30.5973 159.461 30.192 159.088C29.7867 158.704 29.1947 158.512 28.416 158.512C27.8827 158.512 27.3707 158.603 26.88 158.784C26.3893 158.955 25.968 159.195 25.616 159.504L25.104 158.656C25.5307 158.293 26.0427 158.016 26.64 157.824C27.2373 157.621 27.8667 157.52 28.528 157.52ZM28.128 165.184C28.768 165.184 29.3173 165.04 29.776 164.752C30.2347 164.453 30.576 164.027 30.8 163.472V162.096H28.16C26.72 162.096 26 162.597 26 163.6C26 164.091 26.1867 164.48 26.56 164.768C26.9333 165.045 27.456 165.184 28.128 165.184ZM38.7007 166.08C37.8687 166.08 37.1221 165.899 36.4607 165.536C35.8101 165.173 35.2981 164.667 34.9247 164.016C34.5514 163.355 34.3647 162.613 34.3647 161.792C34.3647 160.971 34.5514 160.235 34.9247 159.584C35.2981 158.933 35.8101 158.427 36.4607 158.064C37.1221 157.701 37.8687 157.52 38.7007 157.52C39.4261 157.52 40.0714 157.664 40.6368 157.952C41.2128 158.229 41.6661 158.64 41.9967 159.184L41.1488 159.76C40.8714 159.344 40.5194 159.035 40.0928 158.832C39.6661 158.619 39.2021 158.512 38.7007 158.512C38.0928 158.512 37.5434 158.651 37.0528 158.928C36.5728 159.195 36.1941 159.579 35.9167 160.08C35.6501 160.581 35.5167 161.152 35.5167 161.792C35.5167 162.443 35.6501 163.019 35.9167 163.52C36.1941 164.011 36.5728 164.395 37.0528 164.672C37.5434 164.939 38.0928 165.072 38.7007 165.072C39.2021 165.072 39.6661 164.971 40.0928 164.768C40.5194 164.565 40.8714 164.256 41.1488 163.84L41.9967 164.416C41.6661 164.96 41.2128 165.376 40.6368 165.664C40.0608 165.941 39.4154 166.08 38.7007 166.08ZM47.7357 166.08C46.9037 166.08 46.1571 165.899 45.4957 165.536C44.8451 165.173 44.3331 164.667 43.9597 164.016C43.5864 163.355 43.3997 162.613 43.3997 161.792C43.3997 160.971 43.5864 160.235 43.9597 159.584C44.3331 158.933 44.8451 158.427 45.4957 158.064C46.1571 157.701 46.9037 157.52 47.7357 157.52C48.4611 157.52 49.1064 157.664 49.6718 157.952C50.2477 158.229 50.7011 158.64 51.0317 159.184L50.1838 159.76C49.9064 159.344 49.5544 159.035 49.1277 158.832C48.7011 158.619 48.2371 158.512 47.7357 158.512C47.1277 158.512 46.5784 158.651 46.0877 158.928C45.6077 159.195 45.2291 159.579 44.9517 160.08C44.6851 160.581 44.5517 161.152 44.5517 161.792C44.5517 162.443 44.6851 163.019 44.9517 163.52C45.2291 164.011 45.6077 164.395 46.0877 164.672C46.5784 164.939 47.1277 165.072 47.7357 165.072C48.2371 165.072 48.7011 164.971 49.1277 164.768C49.5544 164.565 49.9064 164.256 50.1838 163.84L51.0317 164.416C50.7011 164.96 50.2477 165.376 49.6718 165.664C49.0957 165.941 48.4504 166.08 47.7357 166.08ZM60.6108 162.144H53.5707C53.6347 163.019 53.9707 163.728 54.5787 164.272C55.1867 164.805 55.9547 165.072 56.8827 165.072C57.4054 165.072 57.8854 164.981 58.3228 164.8C58.7601 164.608 59.1387 164.331 59.4587 163.968L60.0988 164.704C59.7254 165.152 59.2561 165.493 58.6907 165.728C58.1361 165.963 57.5227 166.08 56.8507 166.08C55.9867 166.08 55.2187 165.899 54.5467 165.536C53.8854 165.163 53.3681 164.651 52.9947 164C52.6214 163.349 52.4347 162.613 52.4347 161.792C52.4347 160.971 52.6107 160.235 52.9627 159.584C53.3254 158.933 53.8161 158.427 54.4347 158.064C55.0641 157.701 55.7681 157.52 56.5467 157.52C57.3254 157.52 58.0241 157.701 58.6427 158.064C59.2614 158.427 59.7467 158.933 60.0988 159.584C60.4508 160.224 60.6267 160.96 60.6267 161.792L60.6108 162.144ZM56.5467 158.496C55.7361 158.496 55.0534 158.757 54.4987 159.28C53.9547 159.792 53.6454 160.464 53.5707 161.296H59.5387C59.4641 160.464 59.1494 159.792 58.5947 159.28C58.0507 158.757 57.3681 158.496 56.5467 158.496ZM65.355 166.08C64.6723 166.08 64.0163 165.984 63.387 165.792C62.7683 165.589 62.283 165.339 61.931 165.04L62.443 164.144C62.795 164.421 63.2377 164.651 63.771 164.832C64.3043 165.003 64.859 165.088 65.435 165.088C66.203 165.088 66.7683 164.971 67.131 164.736C67.5043 164.491 67.691 164.149 67.691 163.712C67.691 163.403 67.5897 163.163 67.387 162.992C67.1843 162.811 66.9283 162.677 66.619 162.592C66.3097 162.496 65.899 162.405 65.387 162.32C64.7043 162.192 64.155 162.064 63.739 161.936C63.323 161.797 62.9657 161.568 62.667 161.248C62.379 160.928 62.235 160.485 62.235 159.92C62.235 159.216 62.5283 158.64 63.115 158.192C63.7017 157.744 64.5177 157.52 65.563 157.52C66.107 157.52 66.651 157.595 67.195 157.744C67.739 157.883 68.187 158.069 68.539 158.304L68.043 159.216C67.3497 158.736 66.523 158.496 65.563 158.496C64.8377 158.496 64.2883 158.624 63.915 158.88C63.5523 159.136 63.371 159.472 63.371 159.888C63.371 160.208 63.4723 160.464 63.675 160.656C63.8883 160.848 64.1497 160.992 64.459 161.088C64.7683 161.173 65.195 161.264 65.739 161.36C66.411 161.488 66.9497 161.616 67.355 161.744C67.7603 161.872 68.107 162.091 68.395 162.4C68.683 162.709 68.827 163.136 68.827 163.68C68.827 164.416 68.5177 165.003 67.899 165.44C67.291 165.867 66.443 166.08 65.355 166.08ZM73.3431 166.08C72.6605 166.08 72.0045 165.984 71.3751 165.792C70.7565 165.589 70.2711 165.339 69.9191 165.04L70.4311 164.144C70.7831 164.421 71.2258 164.651 71.7591 164.832C72.2925 165.003 72.8471 165.088 73.4231 165.088C74.1911 165.088 74.7565 164.971 75.1191 164.736C75.4925 164.491 75.6791 164.149 75.6791 163.712C75.6791 163.403 75.5778 163.163 75.3751 162.992C75.1725 162.811 74.9165 162.677 74.6071 162.592C74.2978 162.496 73.8871 162.405 73.3751 162.32C72.6925 162.192 72.1431 162.064 71.7271 161.936C71.3111 161.797 70.9538 161.568 70.6551 161.248C70.3671 160.928 70.2231 160.485 70.2231 159.92C70.2231 159.216 70.5165 158.64 71.1031 158.192C71.6898 157.744 72.5058 157.52 73.5511 157.52C74.0951 157.52 74.6391 157.595 75.1831 157.744C75.7271 157.883 76.1751 158.069 76.5271 158.304L76.0311 159.216C75.3378 158.736 74.5111 158.496 73.5511 158.496C72.8258 158.496 72.2765 158.624 71.9031 158.88C71.5405 159.136 71.3591 159.472 71.3591 159.888C71.3591 160.208 71.4605 160.464 71.6631 160.656C71.8765 160.848 72.1378 160.992 72.4471 161.088C72.7565 161.173 73.1831 161.264 73.7271 161.36C74.3991 161.488 74.9378 161.616 75.3431 161.744C75.7485 161.872 76.0951 162.091 76.3831 162.4C76.6711 162.709 76.8151 163.136 76.8151 163.68C76.8151 164.416 76.5058 165.003 75.8871 165.44C75.2791 165.867 74.4311 166.08 73.3431 166.08ZM87.7587 157.52C88.5481 157.52 89.2627 157.701 89.9027 158.064C90.5427 158.416 91.0441 158.917 91.4067 159.568C91.7694 160.219 91.9507 160.96 91.9507 161.792C91.9507 162.635 91.7694 163.381 91.4067 164.032C91.0441 164.683 90.5427 165.189 89.9027 165.552C89.2734 165.904 88.5587 166.08 87.7587 166.08C87.0761 166.08 86.4574 165.941 85.9027 165.664C85.3587 165.376 84.9107 164.96 84.5587 164.416V169.104H83.4227V157.584H84.5107V159.248C84.8521 158.693 85.3001 158.267 85.8547 157.968C86.4201 157.669 87.0547 157.52 87.7587 157.52ZM87.6787 165.072C88.2654 165.072 88.7987 164.939 89.2787 164.672C89.7587 164.395 90.1321 164.005 90.3987 163.504C90.6761 163.003 90.8147 162.432 90.8147 161.792C90.8147 161.152 90.6761 160.587 90.3987 160.096C90.1321 159.595 89.7587 159.205 89.2787 158.928C88.7987 158.651 88.2654 158.512 87.6787 158.512C87.0814 158.512 86.5427 158.651 86.0627 158.928C85.5934 159.205 85.2201 159.595 84.9427 160.096C84.6761 160.587 84.5427 161.152 84.5427 161.792C84.5427 162.432 84.6761 163.003 84.9427 163.504C85.2201 164.005 85.5934 164.395 86.0627 164.672C86.5427 164.939 87.0814 165.072 87.6787 165.072ZM97.8665 166.08C97.0558 166.08 96.3252 165.899 95.6745 165.536C95.0238 165.163 94.5118 164.651 94.1385 164C93.7652 163.349 93.5785 162.613 93.5785 161.792C93.5785 160.971 93.7652 160.235 94.1385 159.584C94.5118 158.933 95.0238 158.427 95.6745 158.064C96.3252 157.701 97.0558 157.52 97.8665 157.52C98.6772 157.52 99.4078 157.701 100.058 158.064C100.709 158.427 101.216 158.933 101.578 159.584C101.952 160.235 102.138 160.971 102.138 161.792C102.138 162.613 101.952 163.349 101.578 164C101.216 164.651 100.709 165.163 100.058 165.536C99.4078 165.899 98.6772 166.08 97.8665 166.08ZM97.8665 165.072C98.4638 165.072 98.9972 164.939 99.4665 164.672C99.9465 164.395 100.32 164.005 100.586 163.504C100.853 163.003 100.986 162.432 100.986 161.792C100.986 161.152 100.853 160.581 100.586 160.08C100.32 159.579 99.9465 159.195 99.4665 158.928C98.9972 158.651 98.4638 158.512 97.8665 158.512C97.2692 158.512 96.7305 158.651 96.2505 158.928C95.7812 159.195 95.4078 159.579 95.1305 160.08C94.8638 160.581 94.7305 161.152 94.7305 161.792C94.7305 162.432 94.8638 163.003 95.1305 163.504C95.4078 164.005 95.7812 164.395 96.2505 164.672C96.7305 164.939 97.2692 165.072 97.8665 165.072ZM104.618 157.584H105.754V166H104.618V157.584ZM105.194 155.744C104.959 155.744 104.762 155.664 104.602 155.504C104.442 155.344 104.362 155.152 104.362 154.928C104.362 154.715 104.442 154.528 104.602 154.368C104.762 154.208 104.959 154.128 105.194 154.128C105.428 154.128 105.626 154.208 105.786 154.368C105.946 154.517 106.026 154.699 106.026 154.912C106.026 155.147 105.946 155.344 105.786 155.504C105.626 155.664 105.428 155.744 105.194 155.744ZM113.363 157.52C114.419 157.52 115.256 157.829 115.875 158.448C116.504 159.056 116.819 159.947 116.819 161.12V166H115.683V161.232C115.683 160.357 115.464 159.691 115.027 159.232C114.589 158.773 113.965 158.544 113.155 158.544C112.248 158.544 111.528 158.816 110.995 159.36C110.472 159.893 110.211 160.635 110.211 161.584V166H109.075V157.584H110.163V159.136C110.472 158.624 110.899 158.229 111.443 157.952C111.997 157.664 112.637 157.52 113.363 157.52ZM124.495 165.488C124.281 165.68 124.015 165.829 123.695 165.936C123.385 166.032 123.06 166.08 122.719 166.08C121.929 166.08 121.321 165.867 120.895 165.44C120.468 165.013 120.255 164.411 120.255 163.632V158.544H118.751V157.584H120.255V155.744H121.391V157.584H123.951V158.544H121.391V163.568C121.391 164.069 121.513 164.453 121.759 164.72C122.015 164.976 122.377 165.104 122.847 165.104C123.081 165.104 123.305 165.067 123.519 164.992C123.743 164.917 123.935 164.811 124.095 164.672L124.495 165.488ZM138.654 157.584V166H137.566V164.464C137.268 164.976 136.857 165.376 136.334 165.664C135.812 165.941 135.214 166.08 134.542 166.08C133.444 166.08 132.574 165.776 131.934 165.168C131.305 164.549 130.99 163.648 130.99 162.464V157.584H132.126V162.352C132.126 163.237 132.345 163.909 132.782 164.368C133.22 164.827 133.844 165.056 134.654 165.056C135.54 165.056 136.238 164.789 136.75 164.256C137.262 163.712 137.518 162.96 137.518 162V157.584H138.654ZM146.284 157.52C147.34 157.52 148.177 157.829 148.796 158.448C149.425 159.056 149.74 159.947 149.74 161.12V166H148.604V161.232C148.604 160.357 148.385 159.691 147.948 159.232C147.511 158.773 146.887 158.544 146.076 158.544C145.169 158.544 144.449 158.816 143.916 159.36C143.393 159.893 143.132 160.635 143.132 161.584V166H141.996V157.584H143.084V159.136C143.393 158.624 143.82 158.229 144.364 157.952C144.919 157.664 145.559 157.52 146.284 157.52ZM157.416 165.488C157.203 165.68 156.936 165.829 156.616 165.936C156.307 166.032 155.981 166.08 155.64 166.08C154.851 166.08 154.243 165.867 153.816 165.44C153.389 165.013 153.176 164.411 153.176 163.632V158.544H151.672V157.584H153.176V155.744H154.312V157.584H156.872V158.544H154.312V163.568C154.312 164.069 154.435 164.453 154.68 164.72C154.936 164.976 155.299 165.104 155.768 165.104C156.003 165.104 156.227 165.067 156.44 164.992C156.664 164.917 156.856 164.811 157.016 164.672L157.416 165.488ZM167.228 157.584V166H166.14V164.464C165.841 164.976 165.431 165.376 164.908 165.664C164.385 165.941 163.788 166.08 163.116 166.08C162.017 166.08 161.148 165.776 160.508 165.168C159.879 164.549 159.564 163.648 159.564 162.464V157.584H160.7V162.352C160.7 163.237 160.919 163.909 161.356 164.368C161.793 164.827 162.417 165.056 163.228 165.056C164.113 165.056 164.812 164.789 165.324 164.256C165.836 163.712 166.092 162.96 166.092 162V157.584H167.228ZM173.69 161.776L171.706 163.6V166H170.57V154.128H171.706V162.176L176.73 157.584H178.138L174.538 161.024L178.474 166H177.082L173.69 161.776ZM195.182 157.52C196.238 157.52 197.065 157.824 197.662 158.432C198.27 159.04 198.574 159.936 198.574 161.12V166H197.438V161.232C197.438 160.357 197.225 159.691 196.798 159.232C196.382 158.773 195.79 158.544 195.022 158.544C194.148 158.544 193.46 158.816 192.958 159.36C192.457 159.893 192.206 160.635 192.206 161.584V166H191.07V161.232C191.07 160.357 190.857 159.691 190.43 159.232C190.014 158.773 189.417 158.544 188.638 158.544C187.774 158.544 187.086 158.816 186.574 159.36C186.073 159.893 185.822 160.635 185.822 161.584V166H184.686V157.584H185.774V159.12C186.073 158.608 186.489 158.213 187.022 157.936C187.556 157.659 188.169 157.52 188.862 157.52C189.566 157.52 190.174 157.669 190.686 157.968C191.209 158.267 191.598 158.709 191.854 159.296C192.164 158.741 192.606 158.309 193.182 158C193.769 157.68 194.436 157.52 195.182 157.52ZM209.174 162.144H202.134C202.198 163.019 202.534 163.728 203.142 164.272C203.75 164.805 204.518 165.072 205.446 165.072C205.969 165.072 206.449 164.981 206.886 164.8C207.324 164.608 207.702 164.331 208.022 163.968L208.662 164.704C208.289 165.152 207.82 165.493 207.254 165.728C206.7 165.963 206.086 166.08 205.414 166.08C204.55 166.08 203.782 165.899 203.11 165.536C202.449 165.163 201.932 164.651 201.558 164C201.185 163.349 200.998 162.613 200.998 161.792C200.998 160.971 201.174 160.235 201.526 159.584C201.889 158.933 202.38 158.427 202.998 158.064C203.628 157.701 204.332 157.52 205.11 157.52C205.889 157.52 206.588 157.701 207.206 158.064C207.825 158.427 208.31 158.933 208.662 159.584C209.014 160.224 209.19 160.96 209.19 161.792L209.174 162.144ZM205.11 158.496C204.3 158.496 203.617 158.757 203.062 159.28C202.518 159.792 202.209 160.464 202.134 161.296H208.102C208.028 160.464 207.713 159.792 207.158 159.28C206.614 158.757 205.932 158.496 205.11 158.496ZM222.159 157.52C223.215 157.52 224.041 157.824 224.639 158.432C225.247 159.04 225.551 159.936 225.551 161.12V166H224.415V161.232C224.415 160.357 224.201 159.691 223.775 159.232C223.359 158.773 222.767 158.544 221.999 158.544C221.124 158.544 220.436 158.816 219.935 159.36C219.433 159.893 219.183 160.635 219.183 161.584V166H218.047V161.232C218.047 160.357 217.833 159.691 217.407 159.232C216.991 158.773 216.393 158.544 215.615 158.544C214.751 158.544 214.063 158.816 213.551 159.36C213.049 159.893 212.799 160.635 212.799 161.584V166H211.663V157.584H212.751V159.12C213.049 158.608 213.465 158.213 213.999 157.936C214.532 157.659 215.145 157.52 215.839 157.52C216.543 157.52 217.151 157.669 217.663 157.968C218.185 158.267 218.575 158.709 218.831 159.296C219.14 158.741 219.583 158.309 220.159 158C220.745 157.68 221.412 157.52 222.159 157.52ZM231.736 157.52C232.834 157.52 233.677 157.797 234.264 158.352C234.85 158.896 235.144 159.707 235.144 160.784V166H234.056V164.688C233.8 165.125 233.421 165.467 232.92 165.712C232.429 165.957 231.842 166.08 231.16 166.08C230.221 166.08 229.474 165.856 228.92 165.408C228.365 164.96 228.088 164.368 228.088 163.632C228.088 162.917 228.344 162.341 228.856 161.904C229.378 161.467 230.205 161.248 231.336 161.248H234.008V160.736C234.008 160.011 233.805 159.461 233.4 159.088C232.994 158.704 232.402 158.512 231.624 158.512C231.09 158.512 230.578 158.603 230.088 158.784C229.597 158.955 229.176 159.195 228.824 159.504L228.312 158.656C228.738 158.293 229.25 158.016 229.848 157.824C230.445 157.621 231.074 157.52 231.736 157.52ZM231.336 165.184C231.976 165.184 232.525 165.04 232.984 164.752C233.442 164.453 233.784 164.027 234.008 163.472V162.096H231.368C229.928 162.096 229.208 162.597 229.208 163.6C229.208 164.091 229.394 164.48 229.768 164.768C230.141 165.045 230.664 165.184 231.336 165.184ZM241.509 161.776L239.525 163.6V166H238.389V154.128H239.525V162.176L244.549 157.584H245.957L242.357 161.024L246.293 166H244.901L241.509 161.776ZM250.164 166.08C249.482 166.08 248.826 165.984 248.196 165.792C247.578 165.589 247.092 165.339 246.74 165.04L247.252 164.144C247.604 164.421 248.047 164.651 248.58 164.832C249.114 165.003 249.668 165.088 250.244 165.088C251.012 165.088 251.578 164.971 251.94 164.736C252.314 164.491 252.5 164.149 252.5 163.712C252.5 163.403 252.399 163.163 252.196 162.992C251.994 162.811 251.738 162.677 251.428 162.592C251.119 162.496 250.708 162.405 250.196 162.32C249.514 162.192 248.964 162.064 248.548 161.936C248.132 161.797 247.775 161.568 247.476 161.248C247.188 160.928 247.044 160.485 247.044 159.92C247.044 159.216 247.338 158.64 247.924 158.192C248.511 157.744 249.327 157.52 250.372 157.52C250.916 157.52 251.46 157.595 252.004 157.744C252.548 157.883 252.996 158.069 253.348 158.304L252.852 159.216C252.159 158.736 251.332 158.496 250.372 158.496C249.647 158.496 249.098 158.624 248.724 158.88C248.362 159.136 248.18 159.472 248.18 159.888C248.18 160.208 248.282 160.464 248.484 160.656C248.698 160.848 248.959 160.992 249.268 161.088C249.578 161.173 250.004 161.264 250.548 161.36C251.22 161.488 251.759 161.616 252.164 161.744C252.57 161.872 252.916 162.091 253.204 162.4C253.492 162.709 253.636 163.136 253.636 163.68C253.636 164.416 253.327 165.003 252.708 165.44C252.1 165.867 251.252 166.08 250.164 166.08ZM255.897 157.584H257.033V166H255.897V157.584ZM256.473 155.744C256.238 155.744 256.041 155.664 255.881 155.504C255.721 155.344 255.641 155.152 255.641 154.928C255.641 154.715 255.721 154.528 255.881 154.368C256.041 154.208 256.238 154.128 256.473 154.128C256.707 154.128 256.905 154.208 257.065 154.368C257.225 154.517 257.305 154.699 257.305 154.912C257.305 155.147 257.225 155.344 257.065 155.504C256.905 155.664 256.707 155.744 256.473 155.744ZM270.849 157.52C271.905 157.52 272.732 157.824 273.329 158.432C273.937 159.04 274.241 159.936 274.241 161.12V166H273.105V161.232C273.105 160.357 272.892 159.691 272.465 159.232C272.049 158.773 271.457 158.544 270.689 158.544C269.815 158.544 269.127 158.816 268.625 159.36C268.124 159.893 267.873 160.635 267.873 161.584V166H266.737V161.232C266.737 160.357 266.524 159.691 266.097 159.232C265.681 158.773 265.084 158.544 264.305 158.544C263.441 158.544 262.753 158.816 262.241 159.36C261.74 159.893 261.489 160.635 261.489 161.584V166H260.353V157.584H261.441V159.12C261.74 158.608 262.156 158.213 262.689 157.936C263.223 157.659 263.836 157.52 264.529 157.52C265.233 157.52 265.841 157.669 266.353 157.968C266.876 158.267 267.265 158.709 267.521 159.296C267.831 158.741 268.273 158.309 268.849 158C269.436 157.68 270.103 157.52 270.849 157.52ZM280.426 157.52C281.525 157.52 282.367 157.797 282.954 158.352C283.541 158.896 283.834 159.707 283.834 160.784V166H282.746V164.688C282.49 165.125 282.111 165.467 281.61 165.712C281.119 165.957 280.533 166.08 279.85 166.08C278.911 166.08 278.165 165.856 277.61 165.408C277.055 164.96 276.778 164.368 276.778 163.632C276.778 162.917 277.034 162.341 277.546 161.904C278.069 161.467 278.895 161.248 280.026 161.248H282.698V160.736C282.698 160.011 282.495 159.461 282.09 159.088C281.685 158.704 281.093 158.512 280.314 158.512C279.781 158.512 279.269 158.603 278.778 158.784C278.287 158.955 277.866 159.195 277.514 159.504L277.002 158.656C277.429 158.293 277.941 158.016 278.538 157.824C279.135 157.621 279.765 157.52 280.426 157.52ZM280.026 165.184C280.666 165.184 281.215 165.04 281.674 164.752C282.133 164.453 282.474 164.027 282.698 163.472V162.096H280.058C278.618 162.096 277.898 162.597 277.898 163.6C277.898 164.091 278.085 164.48 278.458 164.768C278.831 165.045 279.354 165.184 280.026 165.184ZM287.08 154.128H288.216V166H287.08V154.128ZM294.657 161.776L292.673 163.6V166H291.537V154.128H292.673V162.176L297.697 157.584H299.105L295.505 161.024L299.441 166H298.049L294.657 161.776ZM304.094 157.52C305.192 157.52 306.035 157.797 306.622 158.352C307.208 158.896 307.502 159.707 307.502 160.784V166H306.414V164.688C306.158 165.125 305.779 165.467 305.278 165.712C304.787 165.957 304.2 166.08 303.518 166.08C302.579 166.08 301.832 165.856 301.278 165.408C300.723 164.96 300.446 164.368 300.446 163.632C300.446 162.917 300.702 162.341 301.214 161.904C301.736 161.467 302.563 161.248 303.694 161.248H306.366V160.736C306.366 160.011 306.163 159.461 305.758 159.088C305.352 158.704 304.76 158.512 303.982 158.512C303.448 158.512 302.936 158.603 302.446 158.784C301.955 158.955 301.534 159.195 301.182 159.504L300.67 158.656C301.096 158.293 301.608 158.016 302.206 157.824C302.803 157.621 303.432 157.52 304.094 157.52ZM303.694 165.184C304.334 165.184 304.883 165.04 305.342 164.752C305.8 164.453 306.142 164.027 306.366 163.472V162.096H303.726C302.286 162.096 301.566 162.597 301.566 163.6C301.566 164.091 301.752 164.48 302.126 164.768C302.499 165.045 303.022 165.184 303.694 165.184ZM315.035 157.52C316.091 157.52 316.928 157.829 317.547 158.448C318.176 159.056 318.491 159.947 318.491 161.12V166H317.355V161.232C317.355 160.357 317.136 159.691 316.699 159.232C316.262 158.773 315.638 158.544 314.827 158.544C313.92 158.544 313.2 158.816 312.667 159.36C312.144 159.893 311.883 160.635 311.883 161.584V166H310.747V157.584H311.835V159.136C312.144 158.624 312.571 158.229 313.115 157.952C313.67 157.664 314.31 157.52 315.035 157.52ZM28.528 191.52C29.6267 191.52 30.4693 191.797 31.056 192.352C31.6427 192.896 31.936 193.707 31.936 194.784V200H30.848V198.688C30.592 199.125 30.2133 199.467 29.712 199.712C29.2213 199.957 28.6347 200.08 27.952 200.08C27.0133 200.08 26.2667 199.856 25.712 199.408C25.1573 198.96 24.88 198.368 24.88 197.632C24.88 196.917 25.136 196.341 25.648 195.904C26.1707 195.467 26.9973 195.248 28.128 195.248H30.8V194.736C30.8 194.011 30.5973 193.461 30.192 193.088C29.7867 192.704 29.1947 192.512 28.416 192.512C27.8827 192.512 27.3707 192.603 26.88 192.784C26.3893 192.955 25.968 193.195 25.616 193.504L25.104 192.656C25.5307 192.293 26.0427 192.016 26.64 191.824C27.2373 191.621 27.8667 191.52 28.528 191.52ZM28.128 199.184C28.768 199.184 29.3173 199.04 29.776 198.752C30.2347 198.453 30.576 198.027 30.8 197.472V196.096H28.16C26.72 196.096 26 196.597 26 197.6C26 198.091 26.1867 198.48 26.56 198.768C26.9333 199.045 27.456 199.184 28.128 199.184ZM38.3015 195.776L36.3175 197.6V200H35.1815V188.128H36.3175V196.176L41.3415 191.584H42.7495L39.1495 195.024L43.0855 200H41.6935L38.3015 195.776ZM49.3829 199.488C49.1695 199.68 48.9029 199.829 48.5829 199.936C48.2735 200.032 47.9482 200.08 47.6069 200.08C46.8175 200.08 46.2095 199.867 45.7829 199.44C45.3562 199.013 45.1429 198.411 45.1429 197.632V192.544H43.6389V191.584H45.1429V189.744H46.2789V191.584H48.8389V192.544H46.2789V197.568C46.2789 198.069 46.4015 198.453 46.6469 198.72C46.9029 198.976 47.2655 199.104 47.7349 199.104C47.9695 199.104 48.1935 199.067 48.4069 198.992C48.6309 198.917 48.8229 198.811 48.9829 198.672L49.3829 199.488ZM51.6109 191.584H52.7469V200H51.6109V191.584ZM52.1869 189.744C51.9522 189.744 51.7549 189.664 51.5949 189.504C51.4349 189.344 51.3549 189.152 51.3549 188.928C51.3549 188.715 51.4349 188.528 51.5949 188.368C51.7549 188.208 51.9522 188.128 52.1869 188.128C52.4215 188.128 52.6189 188.208 52.7789 188.368C52.9389 188.517 53.0189 188.699 53.0189 188.912C53.0189 189.147 52.9389 189.344 52.7789 189.504C52.6189 189.664 52.4215 189.744 52.1869 189.744ZM63.1397 191.584L59.3957 200H58.2277L54.4997 191.584H55.6837L58.8357 198.752L62.0197 191.584H63.1397ZM64.8996 191.584H66.0356V200H64.8996V191.584ZM65.4756 189.744C65.241 189.744 65.0436 189.664 64.8836 189.504C64.7236 189.344 64.6436 189.152 64.6436 188.928C64.6436 188.715 64.7236 188.528 64.8836 188.368C65.0436 188.208 65.241 188.128 65.4756 188.128C65.7103 188.128 65.9076 188.208 66.0676 188.368C66.2276 188.517 66.3076 188.699 66.3076 188.912C66.3076 189.147 66.2276 189.344 66.0676 189.504C65.9076 189.664 65.7103 189.744 65.4756 189.744ZM73.7885 199.488C73.5752 199.68 73.3085 199.829 72.9885 199.936C72.6792 200.032 72.3538 200.08 72.0125 200.08C71.2232 200.08 70.6152 199.867 70.1885 199.44C69.7618 199.013 69.5485 198.411 69.5485 197.632V192.544H68.0445V191.584H69.5485V189.744H70.6845V191.584H73.2445V192.544H70.6845V197.568C70.6845 198.069 70.8072 198.453 71.0525 198.72C71.3085 198.976 71.6712 199.104 72.1405 199.104C72.3752 199.104 72.5992 199.067 72.8125 198.992C73.0365 198.917 73.2285 198.811 73.3885 198.672L73.7885 199.488ZM78.9605 191.52C80.0592 191.52 80.9018 191.797 81.4885 192.352C82.0752 192.896 82.3685 193.707 82.3685 194.784V200H81.2805V198.688C81.0245 199.125 80.6458 199.467 80.1445 199.712C79.6538 199.957 79.0672 200.08 78.3845 200.08C77.4458 200.08 76.6992 199.856 76.1445 199.408C75.5898 198.96 75.3125 198.368 75.3125 197.632C75.3125 196.917 75.5685 196.341 76.0805 195.904C76.6032 195.467 77.4298 195.248 78.5605 195.248H81.2325V194.736C81.2325 194.011 81.0298 193.461 80.6245 193.088C80.2192 192.704 79.6272 192.512 78.8485 192.512C78.3152 192.512 77.8032 192.603 77.3125 192.784C76.8218 192.955 76.4005 193.195 76.0485 193.504L75.5365 192.656C75.9632 192.293 76.4752 192.016 77.0725 191.824C77.6698 191.621 78.2992 191.52 78.9605 191.52ZM78.5605 199.184C79.2005 199.184 79.7498 199.04 80.2085 198.752C80.6672 198.453 81.0085 198.027 81.2325 197.472V196.096H78.5925C77.1525 196.096 76.4325 196.597 76.4325 197.6C76.4325 198.091 76.6192 198.48 76.9925 198.768C77.3658 199.045 77.8885 199.184 78.5605 199.184ZM87.87 200.08C87.1873 200.08 86.5313 199.984 85.902 199.792C85.2833 199.589 84.798 199.339 84.446 199.04L84.958 198.144C85.31 198.421 85.7527 198.651 86.286 198.832C86.8193 199.003 87.374 199.088 87.95 199.088C88.718 199.088 89.2833 198.971 89.646 198.736C90.0193 198.491 90.206 198.149 90.206 197.712C90.206 197.403 90.1047 197.163 89.902 196.992C89.6993 196.811 89.4433 196.677 89.134 196.592C88.8247 196.496 88.414 196.405 87.902 196.32C87.2193 196.192 86.67 196.064 86.254 195.936C85.838 195.797 85.4807 195.568 85.182 195.248C84.894 194.928 84.75 194.485 84.75 193.92C84.75 193.216 85.0433 192.64 85.63 192.192C86.2167 191.744 87.0327 191.52 88.078 191.52C88.622 191.52 89.166 191.595 89.71 191.744C90.254 191.883 90.702 192.069 91.054 192.304L90.558 193.216C89.8647 192.736 89.038 192.496 88.078 192.496C87.3527 192.496 86.8033 192.624 86.43 192.88C86.0673 193.136 85.886 193.472 85.886 193.888C85.886 194.208 85.9873 194.464 86.19 194.656C86.4033 194.848 86.6647 194.992 86.974 195.088C87.2833 195.173 87.71 195.264 88.254 195.36C88.926 195.488 89.4647 195.616 89.87 195.744C90.2753 195.872 90.622 196.091 90.91 196.4C91.198 196.709 91.342 197.136 91.342 197.68C91.342 198.416 91.0327 199.003 90.414 199.44C89.806 199.867 88.958 200.08 87.87 200.08ZM101.07 195.776L99.0856 197.6V200H97.9496V188.128H99.0856V196.176L104.11 191.584H105.518L101.918 195.024L105.854 200H104.462L101.07 195.776ZM110.507 191.52C111.605 191.52 112.448 191.797 113.035 192.352C113.621 192.896 113.915 193.707 113.915 194.784V200H112.827V198.688C112.571 199.125 112.192 199.467 111.691 199.712C111.2 199.957 110.613 200.08 109.931 200.08C108.992 200.08 108.245 199.856 107.691 199.408C107.136 198.96 106.859 198.368 106.859 197.632C106.859 196.917 107.115 196.341 107.627 195.904C108.149 195.467 108.976 195.248 110.107 195.248H112.779V194.736C112.779 194.011 112.576 193.461 112.171 193.088C111.765 192.704 111.173 192.512 110.395 192.512C109.861 192.512 109.349 192.603 108.859 192.784C108.368 192.955 107.947 193.195 107.595 193.504L107.083 192.656C107.509 192.293 108.021 192.016 108.619 191.824C109.216 191.621 109.845 191.52 110.507 191.52ZM110.107 199.184C110.747 199.184 111.296 199.04 111.755 198.752C112.213 198.453 112.555 198.027 112.779 197.472V196.096H110.139C108.699 196.096 107.979 196.597 107.979 197.6C107.979 198.091 108.165 198.48 108.539 198.768C108.912 199.045 109.435 199.184 110.107 199.184ZM127.656 191.52C128.712 191.52 129.539 191.824 130.136 192.432C130.744 193.04 131.048 193.936 131.048 195.12V200H129.912V195.232C129.912 194.357 129.699 193.691 129.272 193.232C128.856 192.773 128.264 192.544 127.496 192.544C126.622 192.544 125.934 192.816 125.432 193.36C124.931 193.893 124.68 194.635 124.68 195.584V200H123.544V195.232C123.544 194.357 123.331 193.691 122.904 193.232C122.488 192.773 121.891 192.544 121.112 192.544C120.248 192.544 119.56 192.816 119.048 193.36C118.547 193.893 118.296 194.635 118.296 195.584V200H117.16V191.584H118.248V193.12C118.547 192.608 118.963 192.213 119.496 191.936C120.03 191.659 120.643 191.52 121.336 191.52C122.04 191.52 122.648 191.669 123.16 191.968C123.683 192.267 124.072 192.709 124.328 193.296C124.638 192.741 125.08 192.309 125.656 192C126.243 191.68 126.91 191.52 127.656 191.52ZM141.873 191.584V200H140.785V198.464C140.486 198.976 140.076 199.376 139.553 199.664C139.03 199.941 138.433 200.08 137.761 200.08C136.662 200.08 135.793 199.776 135.153 199.168C134.524 198.549 134.209 197.648 134.209 196.464V191.584H135.345V196.352C135.345 197.237 135.564 197.909 136.001 198.368C136.438 198.827 137.062 199.056 137.873 199.056C138.758 199.056 139.457 198.789 139.969 198.256C140.481 197.712 140.737 196.96 140.737 196V191.584H141.873ZM151.818 200.08C151.135 200.08 150.479 199.984 149.85 199.792C149.231 199.589 148.746 199.339 148.394 199.04L148.906 198.144C149.258 198.421 149.701 198.651 150.234 198.832C150.767 199.003 151.322 199.088 151.898 199.088C152.666 199.088 153.231 198.971 153.594 198.736C153.967 198.491 154.154 198.149 154.154 197.712C154.154 197.403 154.053 197.163 153.85 196.992C153.647 196.811 153.391 196.677 153.082 196.592C152.773 196.496 152.362 196.405 151.85 196.32C151.167 196.192 150.618 196.064 150.202 195.936C149.786 195.797 149.429 195.568 149.13 195.248C148.842 194.928 148.698 194.485 148.698 193.92C148.698 193.216 148.991 192.64 149.578 192.192C150.165 191.744 150.981 191.52 152.026 191.52C152.57 191.52 153.114 191.595 153.658 191.744C154.202 191.883 154.65 192.069 155.002 192.304L154.506 193.216C153.813 192.736 152.986 192.496 152.026 192.496C151.301 192.496 150.751 192.624 150.378 192.88C150.015 193.136 149.834 193.472 149.834 193.888C149.834 194.208 149.935 194.464 150.138 194.656C150.351 194.848 150.613 194.992 150.922 195.088C151.231 195.173 151.658 195.264 152.202 195.36C152.874 195.488 153.413 195.616 153.818 195.744C154.223 195.872 154.57 196.091 154.858 196.4C155.146 196.709 155.29 197.136 155.29 197.68C155.29 198.416 154.981 199.003 154.362 199.44C153.754 199.867 152.906 200.08 151.818 200.08ZM164.878 196.144H157.838C157.902 197.019 158.238 197.728 158.846 198.272C159.454 198.805 160.222 199.072 161.15 199.072C161.673 199.072 162.153 198.981 162.59 198.8C163.028 198.608 163.406 198.331 163.726 197.968L164.366 198.704C163.993 199.152 163.524 199.493 162.958 199.728C162.404 199.963 161.79 200.08 161.118 200.08C160.254 200.08 159.486 199.899 158.814 199.536C158.153 199.163 157.636 198.651 157.262 198C156.889 197.349 156.702 196.613 156.702 195.792C156.702 194.971 156.878 194.235 157.23 193.584C157.593 192.933 158.084 192.427 158.702 192.064C159.332 191.701 160.036 191.52 160.814 191.52C161.593 191.52 162.292 191.701 162.91 192.064C163.529 192.427 164.014 192.933 164.366 193.584C164.718 194.224 164.894 194.96 164.894 195.792L164.878 196.144ZM160.814 192.496C160.004 192.496 159.321 192.757 158.766 193.28C158.222 193.792 157.913 194.464 157.838 195.296H163.806C163.732 194.464 163.417 193.792 162.862 193.28C162.318 192.757 161.636 192.496 160.814 192.496ZM171.655 191.52C172.711 191.52 173.548 191.829 174.167 192.448C174.796 193.056 175.111 193.947 175.111 195.12V200H173.975V195.232C173.975 194.357 173.756 193.691 173.319 193.232C172.881 192.773 172.257 192.544 171.447 192.544C170.54 192.544 169.82 192.816 169.287 193.36C168.764 193.893 168.503 194.635 168.503 195.584V200H167.367V188.128H168.503V193.056C168.812 192.565 169.239 192.187 169.783 191.92C170.327 191.653 170.951 191.52 171.655 191.52ZM181.299 191.52C182.397 191.52 183.24 191.797 183.827 192.352C184.413 192.896 184.707 193.707 184.707 194.784V200H183.619V198.688C183.363 199.125 182.984 199.467 182.483 199.712C181.992 199.957 181.405 200.08 180.723 200.08C179.784 200.08 179.037 199.856 178.483 199.408C177.928 198.96 177.651 198.368 177.651 197.632C177.651 196.917 177.907 196.341 178.419 195.904C178.941 195.467 179.768 195.248 180.899 195.248H183.571V194.736C183.571 194.011 183.368 193.461 182.963 193.088C182.557 192.704 181.965 192.512 181.187 192.512C180.653 192.512 180.141 192.603 179.651 192.784C179.16 192.955 178.739 193.195 178.387 193.504L177.875 192.656C178.301 192.293 178.813 192.016 179.411 191.824C180.008 191.621 180.637 191.52 181.299 191.52ZM180.899 199.184C181.539 199.184 182.088 199.04 182.547 198.752C183.005 198.453 183.347 198.027 183.571 197.472V196.096H180.931C179.491 196.096 178.771 196.597 178.771 197.6C178.771 198.091 178.957 198.48 179.331 198.768C179.704 199.045 180.227 199.184 180.899 199.184ZM189.04 193.232C189.307 192.667 189.701 192.24 190.224 191.952C190.757 191.664 191.413 191.52 192.192 191.52V192.624L191.92 192.608C191.035 192.608 190.341 192.88 189.84 193.424C189.339 193.968 189.088 194.731 189.088 195.712V200H187.952V191.584H189.04V193.232ZM194.409 191.584H195.545V200H194.409V191.584ZM194.985 189.744C194.75 189.744 194.553 189.664 194.393 189.504C194.233 189.344 194.153 189.152 194.153 188.928C194.153 188.715 194.233 188.528 194.393 188.368C194.553 188.208 194.75 188.128 194.985 188.128C195.22 188.128 195.417 188.208 195.577 188.368C195.737 188.517 195.817 188.699 195.817 188.912C195.817 189.147 195.737 189.344 195.577 189.504C195.417 189.664 195.22 189.744 194.985 189.744ZM202.589 195.168H206.781V196.16H202.589V195.168ZM218.118 191.52C219.174 191.52 220.012 191.829 220.63 192.448C221.26 193.056 221.574 193.947 221.574 195.12V200H220.438V195.232C220.438 194.357 220.22 193.691 219.782 193.232C219.345 192.773 218.721 192.544 217.91 192.544C217.004 192.544 216.284 192.816 215.75 193.36C215.228 193.893 214.966 194.635 214.966 195.584V200H213.83V188.128H214.966V193.056C215.276 192.565 215.702 192.187 216.246 191.92C216.79 191.653 217.414 191.52 218.118 191.52ZM227.762 191.52C228.861 191.52 229.704 191.797 230.29 192.352C230.877 192.896 231.17 193.707 231.17 194.784V200H230.082V198.688C229.826 199.125 229.448 199.467 228.946 199.712C228.456 199.957 227.869 200.08 227.186 200.08C226.248 200.08 225.501 199.856 224.946 199.408C224.392 198.96 224.114 198.368 224.114 197.632C224.114 196.917 224.37 196.341 224.882 195.904C225.405 195.467 226.232 195.248 227.362 195.248H230.034V194.736C230.034 194.011 229.832 193.461 229.426 193.088C229.021 192.704 228.429 192.512 227.65 192.512C227.117 192.512 226.605 192.603 226.114 192.784C225.624 192.955 225.202 193.195 224.85 193.504L224.338 192.656C224.765 192.293 225.277 192.016 225.874 191.824C226.472 191.621 227.101 191.52 227.762 191.52ZM227.362 199.184C228.002 199.184 228.552 199.04 229.01 198.752C229.469 198.453 229.81 198.027 230.034 197.472V196.096H227.394C225.954 196.096 225.234 196.597 225.234 197.6C225.234 198.091 225.421 198.48 225.794 198.768C226.168 199.045 226.69 199.184 227.362 199.184ZM235.504 193.232C235.771 192.667 236.165 192.24 236.688 191.952C237.221 191.664 237.877 191.52 238.656 191.52V192.624L238.384 192.608C237.499 192.608 236.805 192.88 236.304 193.424C235.803 193.968 235.552 194.731 235.552 195.712V200H234.416V191.584H235.504V193.232ZM240.873 191.584H242.009V200H240.873V191.584ZM241.449 189.744C241.214 189.744 241.017 189.664 240.857 189.504C240.697 189.344 240.617 189.152 240.617 188.928C240.617 188.715 240.697 188.528 240.857 188.368C241.017 188.208 241.214 188.128 241.449 188.128C241.683 188.128 241.881 188.208 242.041 188.368C242.201 188.517 242.281 188.699 242.281 188.912C242.281 189.147 242.201 189.344 242.041 189.504C241.881 189.664 241.683 189.744 241.449 189.744Z" fill="white"/>
<defs>
<clipPath id="clip0_113_113">
<rect width="24" height="24" fill="white" transform="translate(35.6077 23.6077) rotate(30)"/>
</clipPath>
</defs>
</svg>
