<svg width="399" height="235" viewBox="0 0 399 235" fill="none" xmlns="http://www.w3.org/2000/svg">
<rect width="399" height="235" rx="24" fill="#009967"/>
<path d="M37.6339 76.2H41.5219V93H37.6339V76.2ZM30.0019 93H26.1139V76.2H30.0019V93ZM37.9219 86.112H29.7139V82.824H37.9219V86.112ZM53.3927 93V90.48L53.1527 89.928V85.416C53.1527 84.616 52.9047 83.992 52.4087 83.544C51.9287 83.096 51.1847 82.872 50.1767 82.872C49.4887 82.872 48.8087 82.984 48.1367 83.208C47.4807 83.416 46.9207 83.704 46.4567 84.072L45.1127 81.456C45.8167 80.96 46.6647 80.576 47.6567 80.304C48.6487 80.032 49.6567 79.896 50.6807 79.896C52.6487 79.896 54.1767 80.36 55.2647 81.288C56.3527 82.216 56.8967 83.664 56.8967 85.632V93H53.3927ZM49.4567 93.192C48.4487 93.192 47.5847 93.024 46.8647 92.688C46.1447 92.336 45.5927 91.864 45.2087 91.272C44.8247 90.68 44.6327 90.016 44.6327 89.28C44.6327 88.512 44.8167 87.84 45.1847 87.264C45.5687 86.688 46.1687 86.24 46.9847 85.92C47.8007 85.584 48.8647 85.416 50.1767 85.416H53.6087V87.6H50.5847C49.7047 87.6 49.0967 87.744 48.7607 88.032C48.4407 88.32 48.2807 88.68 48.2807 89.112C48.2807 89.592 48.4647 89.976 48.8327 90.264C49.2167 90.536 49.7367 90.672 50.3927 90.672C51.0167 90.672 51.5767 90.528 52.0727 90.24C52.5687 89.936 52.9287 89.496 53.1527 88.92L53.7287 90.648C53.4567 91.48 52.9607 92.112 52.2407 92.544C51.5207 92.976 50.5927 93.192 49.4567 93.192ZM60.5252 93V80.088H64.1012V83.736L63.5972 82.68C63.9812 81.768 64.5972 81.08 65.4452 80.616C66.2932 80.136 67.3252 79.896 68.5412 79.896V83.352C68.3812 83.336 68.2372 83.328 68.1092 83.328C67.9812 83.312 67.8452 83.304 67.7012 83.304C66.6772 83.304 65.8452 83.6 65.2052 84.192C64.5812 84.768 64.2692 85.672 64.2692 86.904V93H60.5252ZM76.9856 97.848C75.7696 97.848 74.5936 97.696 73.4576 97.392C72.3376 97.104 71.4016 96.664 70.6496 96.072L72.1376 93.384C72.6816 93.832 73.3696 94.184 74.2016 94.44C75.0496 94.712 75.8816 94.848 76.6976 94.848C78.0256 94.848 78.9856 94.552 79.5776 93.96C80.1856 93.368 80.4896 92.488 80.4896 91.32V89.376L80.7296 86.136L80.6816 82.872V80.088H84.2336V90.84C84.2336 93.24 83.6096 95.008 82.3616 96.144C81.1136 97.28 79.3216 97.848 76.9856 97.848ZM76.4096 92.376C75.2096 92.376 74.1216 92.12 73.1456 91.608C72.1856 91.08 71.4096 90.352 70.8176 89.424C70.2416 88.48 69.9536 87.384 69.9536 86.136C69.9536 84.872 70.2416 83.776 70.8176 82.848C71.4096 81.904 72.1856 81.176 73.1456 80.664C74.1216 80.152 75.2096 79.896 76.4096 79.896C77.4976 79.896 78.4576 80.12 79.2896 80.568C80.1216 81 80.7696 81.68 81.2336 82.608C81.6976 83.52 81.9296 84.696 81.9296 86.136C81.9296 87.56 81.6976 88.736 81.2336 89.664C80.7696 90.576 80.1216 91.256 79.2896 91.704C78.4576 92.152 77.4976 92.376 76.4096 92.376ZM77.1536 89.304C77.8096 89.304 78.3936 89.176 78.9056 88.92C79.4176 88.648 79.8176 88.272 80.1056 87.792C80.3936 87.312 80.5376 86.76 80.5376 86.136C80.5376 85.496 80.3936 84.944 80.1056 84.48C79.8176 84 79.4176 83.632 78.9056 83.376C78.3936 83.104 77.8096 82.968 77.1536 82.968C76.4976 82.968 75.9136 83.104 75.4016 83.376C74.8896 83.632 74.4816 84 74.1776 84.48C73.8896 84.944 73.7456 85.496 73.7456 86.136C73.7456 86.76 73.8896 87.312 74.1776 87.792C74.4816 88.272 74.8896 88.648 75.4016 88.92C75.9136 89.176 76.4976 89.304 77.1536 89.304ZM95.8783 93V90.48L95.6383 89.928V85.416C95.6383 84.616 95.3903 83.992 94.8943 83.544C94.4143 83.096 93.6703 82.872 92.6623 82.872C91.9743 82.872 91.2943 82.984 90.6223 83.208C89.9663 83.416 89.4063 83.704 88.9423 84.072L87.5983 81.456C88.3023 80.96 89.1503 80.576 90.1423 80.304C91.1343 80.032 92.1423 79.896 93.1663 79.896C95.1343 79.896 96.6623 80.36 97.7503 81.288C98.8383 82.216 99.3823 83.664 99.3823 85.632V93H95.8783ZM91.9423 93.192C90.9343 93.192 90.0703 93.024 89.3503 92.688C88.6303 92.336 88.0783 91.864 87.6943 91.272C87.3103 90.68 87.1183 90.016 87.1183 89.28C87.1183 88.512 87.3023 87.84 87.6703 87.264C88.0543 86.688 88.6543 86.24 89.4703 85.92C90.2863 85.584 91.3503 85.416 92.6623 85.416H96.0943V87.6H93.0703C92.1903 87.6 91.5823 87.744 91.2463 88.032C90.9263 88.32 90.7663 88.68 90.7663 89.112C90.7663 89.592 90.9503 89.976 91.3183 90.264C91.7023 90.536 92.2223 90.672 92.8783 90.672C93.5023 90.672 94.0623 90.528 94.5583 90.24C95.0543 89.936 95.4143 89.496 95.6383 88.92L96.2143 90.648C95.9423 91.48 95.4463 92.112 94.7263 92.544C94.0063 92.976 93.0783 93.192 91.9423 93.192ZM110.312 93V76.2H118.52C120.632 76.2 122.216 76.6 123.272 77.4C124.344 78.2 124.88 79.256 124.88 80.568C124.88 81.448 124.664 82.216 124.232 82.872C123.8 83.512 123.208 84.008 122.456 84.36C121.704 84.712 120.84 84.888 119.864 84.888L120.32 83.904C121.376 83.904 122.312 84.08 123.128 84.432C123.944 84.768 124.576 85.272 125.024 85.944C125.488 86.616 125.72 87.44 125.72 88.416C125.72 89.856 125.152 90.984 124.016 91.8C122.88 92.6 121.208 93 119 93H110.312ZM114.176 90.072H118.712C119.72 90.072 120.48 89.912 120.992 89.592C121.52 89.256 121.784 88.728 121.784 88.008C121.784 87.304 121.52 86.784 120.992 86.448C120.48 86.096 119.72 85.92 118.712 85.92H113.888V83.088H118.04C118.984 83.088 119.704 82.928 120.2 82.608C120.712 82.272 120.968 81.768 120.968 81.096C120.968 80.44 120.712 79.952 120.2 79.632C119.704 79.296 118.984 79.128 118.04 79.128H114.176V90.072ZM135.047 93.192C133.575 93.192 132.279 92.904 131.159 92.328C130.055 91.752 129.199 90.968 128.591 89.976C127.983 88.968 127.679 87.824 127.679 86.544C127.679 85.248 127.975 84.104 128.567 83.112C129.175 82.104 129.999 81.32 131.039 80.76C132.079 80.184 133.255 79.896 134.567 79.896C135.831 79.896 136.967 80.168 137.975 80.712C138.999 81.24 139.807 82.008 140.399 83.016C140.991 84.008 141.287 85.2 141.287 86.592C141.287 86.736 141.279 86.904 141.263 87.096C141.247 87.272 141.231 87.44 141.215 87.6H130.727V85.416H139.247L137.807 86.064C137.807 85.392 137.671 84.808 137.399 84.312C137.127 83.816 136.751 83.432 136.271 83.16C135.791 82.872 135.231 82.728 134.591 82.728C133.951 82.728 133.383 82.872 132.887 83.16C132.407 83.432 132.031 83.824 131.759 84.336C131.487 84.832 131.351 85.424 131.351 86.112V86.688C131.351 87.392 131.503 88.016 131.807 88.56C132.127 89.088 132.567 89.496 133.127 89.784C133.703 90.056 134.375 90.192 135.143 90.192C135.831 90.192 136.431 90.088 136.943 89.88C137.471 89.672 137.951 89.36 138.383 88.944L140.375 91.104C139.783 91.776 139.039 92.296 138.143 92.664C137.247 93.016 136.215 93.192 135.047 93.192ZM144.02 93V80.088H147.596V83.736L147.092 82.68C147.476 81.768 148.092 81.08 148.94 80.616C149.788 80.136 150.82 79.896 152.036 79.896V83.352C151.876 83.336 151.732 83.328 151.604 83.328C151.476 83.312 151.34 83.304 151.196 83.304C150.172 83.304 149.34 83.6 148.7 84.192C148.076 84.768 147.764 85.672 147.764 86.904V93H144.02ZM158.94 93.192C157.836 93.192 156.772 93.064 155.748 92.808C154.74 92.536 153.94 92.2 153.348 91.8L154.596 89.112C155.188 89.48 155.884 89.784 156.684 90.024C157.5 90.248 158.3 90.36 159.084 90.36C159.948 90.36 160.556 90.256 160.908 90.048C161.276 89.84 161.46 89.552 161.46 89.184C161.46 88.88 161.316 88.656 161.028 88.512C160.756 88.352 160.388 88.232 159.924 88.152C159.46 88.072 158.948 87.992 158.388 87.912C157.844 87.832 157.292 87.728 156.732 87.6C156.172 87.456 155.66 87.248 155.196 86.976C154.732 86.704 154.356 86.336 154.068 85.872C153.796 85.408 153.66 84.808 153.66 84.072C153.66 83.256 153.892 82.536 154.356 81.912C154.836 81.288 155.524 80.8 156.42 80.448C157.316 80.08 158.388 79.896 159.636 79.896C160.516 79.896 161.412 79.992 162.324 80.184C163.236 80.376 163.996 80.656 164.604 81.024L163.356 83.688C162.732 83.32 162.1 83.072 161.46 82.944C160.836 82.8 160.228 82.728 159.636 82.728C158.804 82.728 158.196 82.84 157.812 83.064C157.428 83.288 157.236 83.576 157.236 83.928C157.236 84.248 157.372 84.488 157.644 84.648C157.932 84.808 158.308 84.936 158.772 85.032C159.236 85.128 159.74 85.216 160.284 85.296C160.844 85.36 161.404 85.464 161.964 85.608C162.524 85.752 163.028 85.96 163.476 86.232C163.94 86.488 164.316 86.848 164.604 87.312C164.892 87.76 165.036 88.352 165.036 89.088C165.036 89.888 164.796 90.6 164.316 91.224C163.836 91.832 163.14 92.312 162.228 92.664C161.332 93.016 160.236 93.192 158.94 93.192ZM175.506 93V90.48L175.266 89.928V85.416C175.266 84.616 175.018 83.992 174.522 83.544C174.042 83.096 173.298 82.872 172.29 82.872C171.602 82.872 170.922 82.984 170.25 83.208C169.594 83.416 169.034 83.704 168.57 84.072L167.226 81.456C167.93 80.96 168.778 80.576 169.77 80.304C170.762 80.032 171.77 79.896 172.794 79.896C174.762 79.896 176.29 80.36 177.378 81.288C178.466 82.216 179.01 83.664 179.01 85.632V93H175.506ZM171.57 93.192C170.562 93.192 169.698 93.024 168.978 92.688C168.258 92.336 167.706 91.864 167.322 91.272C166.938 90.68 166.746 90.016 166.746 89.28C166.746 88.512 166.93 87.84 167.298 87.264C167.682 86.688 168.282 86.24 169.098 85.92C169.914 85.584 170.978 85.416 172.29 85.416H175.722V87.6H172.698C171.818 87.6 171.21 87.744 170.874 88.032C170.554 88.32 170.394 88.68 170.394 89.112C170.394 89.592 170.578 89.976 170.946 90.264C171.33 90.536 171.85 90.672 172.506 90.672C173.13 90.672 173.69 90.528 174.186 90.24C174.682 89.936 175.042 89.496 175.266 88.92L175.842 90.648C175.57 91.48 175.074 92.112 174.354 92.544C173.634 92.976 172.706 93.192 171.57 93.192ZM190.486 79.896C191.51 79.896 192.422 80.104 193.222 80.52C194.038 80.92 194.678 81.544 195.142 82.392C195.606 83.224 195.838 84.296 195.838 85.608V93H192.094V86.184C192.094 85.144 191.862 84.376 191.398 83.88C190.95 83.384 190.31 83.136 189.478 83.136C188.886 83.136 188.35 83.264 187.87 83.52C187.406 83.76 187.038 84.136 186.766 84.648C186.51 85.16 186.382 85.816 186.382 86.616V93H182.638V75.192H186.382V83.664L185.542 82.584C186.006 81.72 186.67 81.056 187.534 80.592C188.398 80.128 189.382 79.896 190.486 79.896ZM207.392 93V90.48L207.152 89.928V85.416C207.152 84.616 206.904 83.992 206.408 83.544C205.928 83.096 205.184 82.872 204.176 82.872C203.488 82.872 202.808 82.984 202.136 83.208C201.48 83.416 200.92 83.704 200.456 84.072L199.112 81.456C199.816 80.96 200.664 80.576 201.656 80.304C202.648 80.032 203.656 79.896 204.68 79.896C206.648 79.896 208.176 80.36 209.264 81.288C210.352 82.216 210.896 83.664 210.896 85.632V93H207.392ZM203.456 93.192C202.448 93.192 201.584 93.024 200.864 92.688C200.144 92.336 199.592 91.864 199.208 91.272C198.824 90.68 198.632 90.016 198.632 89.28C198.632 88.512 198.816 87.84 199.184 87.264C199.568 86.688 200.168 86.24 200.984 85.92C201.8 85.584 202.864 85.416 204.176 85.416H207.608V87.6H204.584C203.704 87.6 203.096 87.744 202.76 88.032C202.44 88.32 202.28 88.68 202.28 89.112C202.28 89.592 202.464 89.976 202.832 90.264C203.216 90.536 203.736 90.672 204.392 90.672C205.016 90.672 205.576 90.528 206.072 90.24C206.568 89.936 206.928 89.496 207.152 88.92L207.728 90.648C207.456 91.48 206.96 92.112 206.24 92.544C205.52 92.976 204.592 93.192 203.456 93.192ZM222.157 93.192C221.021 93.192 220.045 92.952 219.229 92.472C218.413 91.992 217.789 91.264 217.357 90.288C216.925 89.296 216.709 88.048 216.709 86.544C216.709 85.024 216.933 83.776 217.381 82.8C217.845 81.824 218.485 81.096 219.301 80.616C220.117 80.136 221.069 79.896 222.157 79.896C223.373 79.896 224.461 80.168 225.421 80.712C226.397 81.256 227.165 82.024 227.725 83.016C228.301 84.008 228.589 85.184 228.589 86.544C228.589 87.888 228.301 89.056 227.725 90.048C227.165 91.04 226.397 91.816 225.421 92.376C224.461 92.92 223.373 93.192 222.157 93.192ZM214.525 93V75.192H218.269V82.704L218.029 86.52L218.101 90.36V93H214.525ZM221.509 90.12C222.133 90.12 222.685 89.976 223.165 89.688C223.661 89.4 224.053 88.992 224.341 88.464C224.645 87.92 224.797 87.28 224.797 86.544C224.797 85.792 224.645 85.152 224.341 84.624C224.053 84.096 223.661 83.688 223.165 83.4C222.685 83.112 222.133 82.968 221.509 82.968C220.885 82.968 220.325 83.112 219.829 83.4C219.333 83.688 218.941 84.096 218.653 84.624C218.365 85.152 218.221 85.792 218.221 86.544C218.221 87.28 218.365 87.92 218.653 88.464C218.941 88.992 219.333 89.4 219.829 89.688C220.325 89.976 220.885 90.12 221.509 90.12ZM239.044 93V90.48L238.804 89.928V85.416C238.804 84.616 238.556 83.992 238.06 83.544C237.58 83.096 236.836 82.872 235.828 82.872C235.14 82.872 234.46 82.984 233.788 83.208C233.132 83.416 232.572 83.704 232.108 84.072L230.764 81.456C231.468 80.96 232.316 80.576 233.308 80.304C234.3 80.032 235.308 79.896 236.332 79.896C238.3 79.896 239.828 80.36 240.916 81.288C242.004 82.216 242.548 83.664 242.548 85.632V93H239.044ZM235.108 93.192C234.1 93.192 233.236 93.024 232.516 92.688C231.796 92.336 231.244 91.864 230.86 91.272C230.476 90.68 230.284 90.016 230.284 89.28C230.284 88.512 230.468 87.84 230.836 87.264C231.22 86.688 231.82 86.24 232.636 85.92C233.452 85.584 234.516 85.416 235.828 85.416H239.26V87.6H236.236C235.356 87.6 234.748 87.744 234.412 88.032C234.092 88.32 233.932 88.68 233.932 89.112C233.932 89.592 234.116 89.976 234.484 90.264C234.868 90.536 235.388 90.672 236.044 90.672C236.668 90.672 237.228 90.528 237.724 90.24C238.22 89.936 238.58 89.496 238.804 88.92L239.38 90.648C239.108 91.48 238.612 92.112 237.892 92.544C237.172 92.976 236.244 93.192 235.108 93.192ZM251.456 93.192C249.936 93.192 248.752 92.808 247.904 92.04C247.056 91.256 246.632 90.096 246.632 88.56V77.232H250.376V88.512C250.376 89.056 250.52 89.48 250.808 89.784C251.096 90.072 251.488 90.216 251.984 90.216C252.576 90.216 253.08 90.056 253.496 89.736L254.504 92.376C254.12 92.648 253.656 92.856 253.112 93C252.584 93.128 252.032 93.192 251.456 93.192ZM244.64 83.256V80.376H253.592V83.256H244.64Z" fill="white"/>
<path d="M27.024 133.096C26.3947 133.096 25.8027 132.957 25.248 132.68C24.704 132.403 24.2667 132.008 23.936 131.496L24.624 130.696C24.9333 131.144 25.2907 131.485 25.696 131.72C26.1013 131.955 26.5493 132.072 27.04 132.072C28.4267 132.072 29.12 131.251 29.12 129.608V122.824H25.024V121.8H30.288V129.56C30.288 130.744 30.0107 131.629 29.456 132.216C28.912 132.803 28.1013 133.096 27.024 133.096ZM39.0236 133V131.144L38.9756 130.84V127.736C38.9756 127.021 38.773 126.472 38.3676 126.088C37.973 125.704 37.381 125.512 36.5916 125.512C36.0476 125.512 35.5303 125.603 35.0396 125.784C34.549 125.965 34.133 126.205 33.7916 126.504L33.2796 125.656C33.7063 125.293 34.2183 125.016 34.8156 124.824C35.413 124.621 36.0423 124.52 36.7036 124.52C37.7916 124.52 38.629 124.792 39.2156 125.336C39.813 125.869 40.1116 126.685 40.1116 127.784V133H39.0236ZM36.1276 133.08C35.4983 133.08 34.949 132.979 34.4796 132.776C34.021 132.563 33.669 132.275 33.4236 131.912C33.1783 131.539 33.0556 131.112 33.0556 130.632C33.0556 130.195 33.157 129.8 33.3596 129.448C33.573 129.085 33.9143 128.797 34.3836 128.584C34.8636 128.36 35.5036 128.248 36.3036 128.248H39.1996V129.096H36.3356C35.525 129.096 34.9596 129.24 34.6396 129.528C34.3303 129.816 34.1756 130.173 34.1756 130.6C34.1756 131.08 34.3623 131.464 34.7356 131.752C35.109 132.04 35.6316 132.184 36.3036 132.184C36.9436 132.184 37.493 132.04 37.9516 131.752C38.421 131.453 38.7623 131.027 38.9756 130.472L39.2316 131.256C39.0183 131.811 38.645 132.253 38.1116 132.584C37.589 132.915 36.9276 133.08 36.1276 133.08ZM53.8531 124.52C54.5358 124.52 55.1278 124.653 55.6291 124.92C56.1411 125.176 56.5358 125.571 56.8131 126.104C57.1011 126.637 57.2451 127.309 57.2451 128.12V133H56.1091V128.232C56.1091 127.347 55.8958 126.68 55.4691 126.232C55.0531 125.773 54.4611 125.544 53.6931 125.544C53.1171 125.544 52.6158 125.667 52.1891 125.912C51.7731 126.147 51.4478 126.493 51.2131 126.952C50.9891 127.4 50.8771 127.944 50.8771 128.584V133H49.7411V128.232C49.7411 127.347 49.5278 126.68 49.1011 126.232C48.6745 125.773 48.0771 125.544 47.3091 125.544C46.7438 125.544 46.2478 125.667 45.8211 125.912C45.3945 126.147 45.0638 126.493 44.8291 126.952C44.6051 127.4 44.4931 127.944 44.4931 128.584V133H43.3571V124.6H44.4451V126.872L44.2691 126.472C44.5251 125.864 44.9358 125.389 45.5011 125.048C46.0771 124.696 46.7545 124.52 47.5331 124.52C48.3545 124.52 49.0531 124.728 49.6291 125.144C50.2051 125.549 50.5785 126.163 50.7491 126.984L50.3011 126.808C50.5465 126.125 50.9785 125.576 51.5971 125.16C52.2265 124.733 52.9785 124.52 53.8531 124.52ZM60.4859 133V124.6H61.6219V133H60.4859ZM61.0619 122.744C60.8272 122.744 60.6299 122.664 60.4699 122.504C60.3099 122.344 60.2299 122.152 60.2299 121.928C60.2299 121.704 60.3099 121.517 60.4699 121.368C60.6299 121.208 60.8272 121.128 61.0619 121.128C61.2965 121.128 61.4939 121.203 61.6539 121.352C61.8139 121.501 61.8939 121.688 61.8939 121.912C61.8939 122.147 61.8139 122.344 61.6539 122.504C61.5045 122.664 61.3072 122.744 61.0619 122.744ZM69.2307 124.52C69.9134 124.52 70.5107 124.653 71.0227 124.92C71.5454 125.176 71.9507 125.571 72.2387 126.104C72.5374 126.637 72.6867 127.309 72.6867 128.12V133H71.5507V128.232C71.5507 127.347 71.3267 126.68 70.8787 126.232C70.4414 125.773 69.8227 125.544 69.0227 125.544C68.4254 125.544 67.9027 125.667 67.4547 125.912C67.0174 126.147 66.6761 126.493 66.4307 126.952C66.1961 127.4 66.0787 127.944 66.0787 128.584V133H64.9427V124.6H66.0307V126.904L65.8547 126.472C66.1214 125.864 66.5481 125.389 67.1347 125.048C67.7214 124.696 68.4201 124.52 69.2307 124.52ZM81.1792 133V131.144L81.1312 130.84V127.736C81.1312 127.021 80.9286 126.472 80.5232 126.088C80.1286 125.704 79.5366 125.512 78.7472 125.512C78.2032 125.512 77.6859 125.603 77.1952 125.784C76.7046 125.965 76.2886 126.205 75.9472 126.504L75.4352 125.656C75.8619 125.293 76.3739 125.016 76.9712 124.824C77.5686 124.621 78.1979 124.52 78.8592 124.52C79.9472 124.52 80.7846 124.792 81.3712 125.336C81.9686 125.869 82.2672 126.685 82.2672 127.784V133H81.1792ZM78.2832 133.08C77.6539 133.08 77.1046 132.979 76.6352 132.776C76.1766 132.563 75.8246 132.275 75.5792 131.912C75.3339 131.539 75.2112 131.112 75.2112 130.632C75.2112 130.195 75.3126 129.8 75.5152 129.448C75.7286 129.085 76.0699 128.797 76.5392 128.584C77.0192 128.36 77.6592 128.248 78.4592 128.248H81.3552V129.096H78.4912C77.6806 129.096 77.1152 129.24 76.7952 129.528C76.4859 129.816 76.3312 130.173 76.3312 130.6C76.3312 131.08 76.5179 131.464 76.8912 131.752C77.2646 132.04 77.7872 132.184 78.4592 132.184C79.0992 132.184 79.6486 132.04 80.1072 131.752C80.5766 131.453 80.9179 131.027 81.1312 130.472L81.3872 131.256C81.1739 131.811 80.8006 132.253 80.2672 132.584C79.7446 132.915 79.0832 133.08 78.2832 133.08ZM89.8007 124.52C90.4834 124.52 91.0807 124.653 91.5927 124.92C92.1154 125.176 92.5207 125.571 92.8087 126.104C93.1074 126.637 93.2567 127.309 93.2567 128.12V133H92.1207V128.232C92.1207 127.347 91.8967 126.68 91.4487 126.232C91.0114 125.773 90.3927 125.544 89.5927 125.544C88.9954 125.544 88.4727 125.667 88.0247 125.912C87.5874 126.147 87.2461 126.493 87.0007 126.952C86.7661 127.4 86.6487 127.944 86.6487 128.584V133H85.5127V124.6H86.6007V126.904L86.4247 126.472C86.6914 125.864 87.1181 125.389 87.7047 125.048C88.2914 124.696 88.9901 124.52 89.8007 124.52ZM105.121 124.52C105.803 124.52 106.401 124.653 106.913 124.92C107.435 125.176 107.841 125.571 108.129 126.104C108.427 126.637 108.577 127.309 108.577 128.12V133H107.441V128.232C107.441 127.347 107.217 126.68 106.769 126.232C106.331 125.773 105.713 125.544 104.913 125.544C104.315 125.544 103.793 125.667 103.345 125.912C102.907 126.147 102.566 126.493 102.321 126.952C102.086 127.4 101.969 127.944 101.969 128.584V133H100.833V121.128H101.969V126.904L101.745 126.472C102.011 125.864 102.438 125.389 103.025 125.048C103.611 124.696 104.31 124.52 105.121 124.52ZM117.069 133V131.144L117.021 130.84V127.736C117.021 127.021 116.819 126.472 116.413 126.088C116.019 125.704 115.427 125.512 114.637 125.512C114.093 125.512 113.576 125.603 113.085 125.784C112.595 125.965 112.179 126.205 111.837 126.504L111.325 125.656C111.752 125.293 112.264 125.016 112.861 124.824C113.459 124.621 114.088 124.52 114.749 124.52C115.837 124.52 116.675 124.792 117.261 125.336C117.859 125.869 118.157 126.685 118.157 127.784V133H117.069ZM114.173 133.08C113.544 133.08 112.995 132.979 112.525 132.776C112.067 132.563 111.715 132.275 111.469 131.912C111.224 131.539 111.101 131.112 111.101 130.632C111.101 130.195 111.203 129.8 111.405 129.448C111.619 129.085 111.96 128.797 112.429 128.584C112.909 128.36 113.549 128.248 114.349 128.248H117.245V129.096H114.381C113.571 129.096 113.005 129.24 112.685 129.528C112.376 129.816 112.221 130.173 112.221 130.6C112.221 131.08 112.408 131.464 112.781 131.752C113.155 132.04 113.677 132.184 114.349 132.184C114.989 132.184 115.539 132.04 115.997 131.752C116.467 131.453 116.808 131.027 117.021 130.472L117.277 131.256C117.064 131.811 116.691 132.253 116.157 132.584C115.635 132.915 114.973 133.08 114.173 133.08ZM121.403 133V124.6H122.491V126.888L122.379 126.488C122.613 125.848 123.008 125.363 123.563 125.032C124.117 124.691 124.805 124.52 125.627 124.52V125.624C125.584 125.624 125.541 125.624 125.499 125.624C125.456 125.613 125.413 125.608 125.371 125.608C124.485 125.608 123.792 125.88 123.291 126.424C122.789 126.957 122.539 127.72 122.539 128.712V133H121.403ZM131.366 136.184C130.598 136.184 129.862 136.072 129.158 135.848C128.454 135.624 127.883 135.304 127.446 134.888L128.022 134.024C128.416 134.376 128.902 134.653 129.478 134.856C130.064 135.069 130.683 135.176 131.334 135.176C132.4 135.176 133.184 134.925 133.686 134.424C134.187 133.933 134.438 133.165 134.438 132.12V130.024L134.598 128.584L134.486 127.144V124.6H135.574V131.976C135.574 133.427 135.216 134.488 134.502 135.16C133.798 135.843 132.752 136.184 131.366 136.184ZM131.158 132.68C130.358 132.68 129.638 132.509 128.998 132.168C128.358 131.816 127.851 131.331 127.478 130.712C127.115 130.093 126.934 129.384 126.934 128.584C126.934 127.784 127.115 127.08 127.478 126.472C127.851 125.853 128.358 125.373 128.998 125.032C129.638 124.691 130.358 124.52 131.158 124.52C131.904 124.52 132.576 124.675 133.174 124.984C133.771 125.293 134.246 125.752 134.598 126.36C134.95 126.968 135.126 127.709 135.126 128.584C135.126 129.459 134.95 130.2 134.598 130.808C134.246 131.416 133.771 131.88 133.174 132.2C132.576 132.52 131.904 132.68 131.158 132.68ZM131.27 131.672C131.888 131.672 132.438 131.544 132.918 131.288C133.398 131.021 133.776 130.659 134.054 130.2C134.331 129.731 134.47 129.192 134.47 128.584C134.47 127.976 134.331 127.443 134.054 126.984C133.776 126.525 133.398 126.168 132.918 125.912C132.438 125.645 131.888 125.512 131.27 125.512C130.662 125.512 130.112 125.645 129.622 125.912C129.142 126.168 128.763 126.525 128.486 126.984C128.219 127.443 128.086 127.976 128.086 128.584C128.086 129.192 128.219 129.731 128.486 130.2C128.763 130.659 129.142 131.021 129.622 131.288C130.112 131.544 130.662 131.672 131.27 131.672ZM144.159 133V131.144L144.111 130.84V127.736C144.111 127.021 143.908 126.472 143.503 126.088C143.108 125.704 142.516 125.512 141.727 125.512C141.183 125.512 140.665 125.603 140.175 125.784C139.684 125.965 139.268 126.205 138.927 126.504L138.415 125.656C138.841 125.293 139.353 125.016 139.951 124.824C140.548 124.621 141.177 124.52 141.839 124.52C142.927 124.52 143.764 124.792 144.351 125.336C144.948 125.869 145.247 126.685 145.247 127.784V133H144.159ZM141.263 133.08C140.633 133.08 140.084 132.979 139.615 132.776C139.156 132.563 138.804 132.275 138.559 131.912C138.313 131.539 138.191 131.112 138.191 130.632C138.191 130.195 138.292 129.8 138.495 129.448C138.708 129.085 139.049 128.797 139.519 128.584C139.999 128.36 140.639 128.248 141.439 128.248H144.335V129.096H141.471C140.66 129.096 140.095 129.24 139.775 129.528C139.465 129.816 139.311 130.173 139.311 130.6C139.311 131.08 139.497 131.464 139.871 131.752C140.244 132.04 140.767 132.184 141.439 132.184C142.079 132.184 142.628 132.04 143.087 131.752C143.556 131.453 143.897 131.027 144.111 130.472L144.367 131.256C144.153 131.811 143.78 132.253 143.247 132.584C142.724 132.915 142.063 133.08 141.263 133.08ZM152.84 133V121.128H153.976V133H152.84ZM160.864 133.08C159.99 133.08 159.222 132.899 158.56 132.536C157.899 132.163 157.382 131.656 157.008 131.016C156.635 130.365 156.448 129.624 156.448 128.792C156.448 127.96 156.624 127.224 156.976 126.584C157.339 125.944 157.83 125.443 158.448 125.08C159.078 124.707 159.782 124.52 160.56 124.52C161.35 124.52 162.048 124.701 162.656 125.064C163.275 125.416 163.76 125.917 164.112 126.568C164.464 127.208 164.64 127.949 164.64 128.792C164.64 128.845 164.635 128.904 164.624 128.968C164.624 129.021 164.624 129.08 164.624 129.144H157.312V128.296H164.016L163.568 128.632C163.568 128.024 163.435 127.485 163.168 127.016C162.912 126.536 162.56 126.163 162.112 125.896C161.664 125.629 161.147 125.496 160.56 125.496C159.984 125.496 159.467 125.629 159.008 125.896C158.55 126.163 158.192 126.536 157.936 127.016C157.68 127.496 157.552 128.045 157.552 128.664V128.84C157.552 129.48 157.691 130.045 157.968 130.536C158.256 131.016 158.651 131.395 159.152 131.672C159.664 131.939 160.246 132.072 160.896 132.072C161.408 132.072 161.883 131.981 162.32 131.8C162.768 131.619 163.152 131.341 163.472 130.968L164.112 131.704C163.739 132.152 163.27 132.493 162.704 132.728C162.15 132.963 161.536 133.08 160.864 133.08ZM171.449 133.08C170.713 133.08 170.051 132.915 169.465 132.584C168.878 132.243 168.414 131.752 168.073 131.112C167.731 130.472 167.561 129.699 167.561 128.792C167.561 127.875 167.731 127.101 168.073 126.472C168.425 125.832 168.894 125.347 169.481 125.016C170.067 124.685 170.723 124.52 171.449 124.52C172.249 124.52 172.963 124.701 173.593 125.064C174.233 125.416 174.734 125.912 175.097 126.552C175.459 127.192 175.641 127.939 175.641 128.792C175.641 129.635 175.459 130.381 175.097 131.032C174.734 131.672 174.233 132.173 173.593 132.536C172.963 132.899 172.249 133.08 171.449 133.08ZM167.113 133V121.128H168.249V127.08L168.089 128.776L168.201 130.472V133H167.113ZM171.369 132.072C171.966 132.072 172.499 131.939 172.969 131.672C173.438 131.395 173.811 131.011 174.089 130.52C174.366 130.019 174.505 129.443 174.505 128.792C174.505 128.131 174.366 127.555 174.089 127.064C173.811 126.573 173.438 126.195 172.969 125.928C172.499 125.651 171.966 125.512 171.369 125.512C170.771 125.512 170.233 125.651 169.753 125.928C169.283 126.195 168.91 126.573 168.633 127.064C168.366 127.555 168.233 128.131 168.233 128.792C168.233 129.443 168.366 130.019 168.633 130.52C168.91 131.011 169.283 131.395 169.753 131.672C170.233 131.939 170.771 132.072 171.369 132.072ZM178.117 133V124.6H179.253V133H178.117ZM178.693 122.744C178.458 122.744 178.261 122.664 178.101 122.504C177.941 122.344 177.861 122.152 177.861 121.928C177.861 121.704 177.941 121.517 178.101 121.368C178.261 121.208 178.458 121.128 178.693 121.128C178.927 121.128 179.125 121.203 179.285 121.352C179.445 121.501 179.525 121.688 179.525 121.912C179.525 122.147 179.445 122.344 179.285 122.504C179.135 122.664 178.938 122.744 178.693 122.744ZM186.861 124.52C187.544 124.52 188.141 124.653 188.653 124.92C189.176 125.176 189.581 125.571 189.869 126.104C190.168 126.637 190.317 127.309 190.317 128.12V133H189.181V128.232C189.181 127.347 188.957 126.68 188.509 126.232C188.072 125.773 187.453 125.544 186.653 125.544C186.056 125.544 185.533 125.667 185.085 125.912C184.648 126.147 184.307 126.493 184.061 126.952C183.827 127.4 183.709 127.944 183.709 128.584V133H182.573V121.128H183.709V126.904L183.485 126.472C183.752 125.864 184.179 125.389 184.765 125.048C185.352 124.696 186.051 124.52 186.861 124.52ZM208.389 124.52C209.072 124.52 209.664 124.653 210.165 124.92C210.677 125.176 211.072 125.571 211.349 126.104C211.637 126.637 211.781 127.309 211.781 128.12V133H210.645V128.232C210.645 127.347 210.432 126.68 210.005 126.232C209.589 125.773 208.997 125.544 208.229 125.544C207.653 125.544 207.152 125.667 206.725 125.912C206.309 126.147 205.984 126.493 205.749 126.952C205.525 127.4 205.413 127.944 205.413 128.584V133H204.277V128.232C204.277 127.347 204.064 126.68 203.637 126.232C203.211 125.773 202.613 125.544 201.845 125.544C201.28 125.544 200.784 125.667 200.357 125.912C199.931 126.147 199.6 126.493 199.365 126.952C199.141 127.4 199.029 127.944 199.029 128.584V133H197.893V124.6H198.981V126.872L198.805 126.472C199.061 125.864 199.472 125.389 200.037 125.048C200.613 124.696 201.291 124.52 202.069 124.52C202.891 124.52 203.589 124.728 204.165 125.144C204.741 125.549 205.115 126.163 205.285 126.984L204.837 126.808C205.083 126.125 205.515 125.576 206.133 125.16C206.763 124.733 207.515 124.52 208.389 124.52ZM218.494 133.08C217.779 133.08 217.155 132.947 216.622 132.68C216.089 132.413 215.673 132.013 215.374 131.48C215.086 130.947 214.942 130.28 214.942 129.48V124.6H216.078V129.352C216.078 130.248 216.297 130.925 216.734 131.384C217.182 131.832 217.806 132.056 218.606 132.056C219.193 132.056 219.699 131.939 220.126 131.704C220.563 131.459 220.894 131.107 221.118 130.648C221.353 130.189 221.47 129.64 221.47 129V124.6H222.606V133H221.518V130.696L221.694 131.112C221.427 131.731 221.011 132.216 220.446 132.568C219.891 132.909 219.241 133.08 218.494 133.08ZM225.932 133V124.6H227.02V126.888L226.908 126.488C227.143 125.848 227.537 125.363 228.092 125.032C228.647 124.691 229.335 124.52 230.156 124.52V125.624C230.113 125.624 230.071 125.624 230.028 125.624C229.985 125.613 229.943 125.608 229.9 125.608C229.015 125.608 228.321 125.88 227.82 126.424C227.319 126.957 227.068 127.72 227.068 128.712V133H225.932ZM237.028 133V131.144L236.98 130.84V127.736C236.98 127.021 236.777 126.472 236.372 126.088C235.977 125.704 235.385 125.512 234.596 125.512C234.052 125.512 233.535 125.603 233.044 125.784C232.553 125.965 232.137 126.205 231.796 126.504L231.284 125.656C231.711 125.293 232.223 125.016 232.82 124.824C233.417 124.621 234.047 124.52 234.708 124.52C235.796 124.52 236.633 124.792 237.22 125.336C237.817 125.869 238.116 126.685 238.116 127.784V133H237.028ZM234.132 133.08C233.503 133.08 232.953 132.979 232.484 132.776C232.025 132.563 231.673 132.275 231.428 131.912C231.183 131.539 231.06 131.112 231.06 130.632C231.06 130.195 231.161 129.8 231.364 129.448C231.577 129.085 231.919 128.797 232.388 128.584C232.868 128.36 233.508 128.248 234.308 128.248H237.204V129.096H234.34C233.529 129.096 232.964 129.24 232.644 129.528C232.335 129.816 232.18 130.173 232.18 130.6C232.18 131.08 232.367 131.464 232.74 131.752C233.113 132.04 233.636 132.184 234.308 132.184C234.948 132.184 235.497 132.04 235.956 131.752C236.425 131.453 236.767 131.027 236.98 130.472L237.236 131.256C237.023 131.811 236.649 132.253 236.116 132.584C235.593 132.915 234.932 133.08 234.132 133.08ZM245.649 124.52C246.332 124.52 246.929 124.653 247.441 124.92C247.964 125.176 248.369 125.571 248.657 126.104C248.956 126.637 249.105 127.309 249.105 128.12V133H247.969V128.232C247.969 127.347 247.745 126.68 247.297 126.232C246.86 125.773 246.241 125.544 245.441 125.544C244.844 125.544 244.321 125.667 243.873 125.912C243.436 126.147 243.095 126.493 242.849 126.952C242.615 127.4 242.497 127.944 242.497 128.584V133H241.361V121.128H242.497V126.904L242.273 126.472C242.54 125.864 242.967 125.389 243.553 125.048C244.14 124.696 244.839 124.52 245.649 124.52ZM260.17 133.08C259.338 133.08 258.591 132.899 257.93 132.536C257.279 132.163 256.767 131.656 256.394 131.016C256.02 130.365 255.834 129.624 255.834 128.792C255.834 127.949 256.02 127.208 256.394 126.568C256.767 125.928 257.279 125.427 257.93 125.064C258.591 124.701 259.338 124.52 260.17 124.52C260.884 124.52 261.53 124.659 262.106 124.936C262.682 125.213 263.135 125.629 263.466 126.184L262.618 126.76C262.33 126.333 261.972 126.019 261.546 125.816C261.119 125.613 260.655 125.512 260.154 125.512C259.556 125.512 259.018 125.651 258.538 125.928C258.058 126.195 257.679 126.573 257.402 127.064C257.124 127.555 256.986 128.131 256.986 128.792C256.986 129.453 257.124 130.029 257.402 130.52C257.679 131.011 258.058 131.395 258.538 131.672C259.018 131.939 259.556 132.072 260.154 132.072C260.655 132.072 261.119 131.971 261.546 131.768C261.972 131.565 262.33 131.256 262.618 130.84L263.466 131.416C263.135 131.96 262.682 132.376 262.106 132.664C261.53 132.941 260.884 133.08 260.17 133.08ZM269.141 133.08C268.33 133.08 267.599 132.899 266.949 132.536C266.309 132.163 265.802 131.656 265.429 131.016C265.055 130.365 264.869 129.624 264.869 128.792C264.869 127.949 265.055 127.208 265.429 126.568C265.802 125.928 266.309 125.427 266.949 125.064C267.589 124.701 268.319 124.52 269.141 124.52C269.973 124.52 270.709 124.701 271.349 125.064C271.999 125.427 272.506 125.928 272.869 126.568C273.242 127.208 273.429 127.949 273.429 128.792C273.429 129.624 273.242 130.365 272.869 131.016C272.506 131.656 271.999 132.163 271.349 132.536C270.698 132.899 269.962 133.08 269.141 133.08ZM269.141 132.072C269.749 132.072 270.287 131.939 270.757 131.672C271.226 131.395 271.594 131.011 271.861 130.52C272.138 130.019 272.277 129.443 272.277 128.792C272.277 128.131 272.138 127.555 271.861 127.064C271.594 126.573 271.226 126.195 270.757 125.928C270.287 125.651 269.754 125.512 269.157 125.512C268.559 125.512 268.026 125.651 267.557 125.928C267.087 126.195 266.714 126.573 266.437 127.064C266.159 127.555 266.021 128.131 266.021 128.792C266.021 129.443 266.159 130.019 266.437 130.52C266.714 131.011 267.087 131.395 267.557 131.672C268.026 131.939 268.554 132.072 269.141 132.072ZM279.396 133.08C278.564 133.08 277.817 132.899 277.156 132.536C276.505 132.163 275.993 131.656 275.62 131.016C275.246 130.365 275.06 129.624 275.06 128.792C275.06 127.949 275.246 127.208 275.62 126.568C275.993 125.928 276.505 125.427 277.156 125.064C277.817 124.701 278.564 124.52 279.396 124.52C280.11 124.52 280.756 124.659 281.332 124.936C281.908 125.213 282.361 125.629 282.692 126.184L281.844 126.76C281.556 126.333 281.198 126.019 280.772 125.816C280.345 125.613 279.881 125.512 279.38 125.512C278.782 125.512 278.244 125.651 277.764 125.928C277.284 126.195 276.905 126.573 276.628 127.064C276.35 127.555 276.212 128.131 276.212 128.792C276.212 129.453 276.35 130.029 276.628 130.52C276.905 131.011 277.284 131.395 277.764 131.672C278.244 131.939 278.782 132.072 279.38 132.072C279.881 132.072 280.345 131.971 280.772 131.768C281.198 131.565 281.556 131.256 281.844 130.84L282.692 131.416C282.361 131.96 281.908 132.376 281.332 132.664C280.756 132.941 280.11 133.08 279.396 133.08ZM288.367 133.08C287.556 133.08 286.825 132.899 286.175 132.536C285.535 132.163 285.028 131.656 284.655 131.016C284.281 130.365 284.095 129.624 284.095 128.792C284.095 127.949 284.281 127.208 284.655 126.568C285.028 125.928 285.535 125.427 286.175 125.064C286.815 124.701 287.545 124.52 288.367 124.52C289.199 124.52 289.935 124.701 290.575 125.064C291.225 125.427 291.732 125.928 292.095 126.568C292.468 127.208 292.655 127.949 292.655 128.792C292.655 129.624 292.468 130.365 292.095 131.016C291.732 131.656 291.225 132.163 290.575 132.536C289.924 132.899 289.188 133.08 288.367 133.08ZM288.367 132.072C288.975 132.072 289.513 131.939 289.983 131.672C290.452 131.395 290.82 131.011 291.087 130.52C291.364 130.019 291.503 129.443 291.503 128.792C291.503 128.131 291.364 127.555 291.087 127.064C290.82 126.573 290.452 126.195 289.983 125.928C289.513 125.651 288.98 125.512 288.383 125.512C287.785 125.512 287.252 125.651 286.783 125.928C286.313 126.195 285.94 126.573 285.663 127.064C285.385 127.555 285.247 128.131 285.247 128.792C285.247 129.443 285.385 130.019 285.663 130.52C285.94 131.011 286.313 131.395 286.783 131.672C287.252 131.939 287.78 132.072 288.367 132.072ZM296.03 130.824L296.062 129.368L301.294 124.6H302.686L298.99 128.136L298.35 128.68L296.03 130.824ZM295.134 133V121.128H296.27V133H295.134ZM301.646 133L298.142 128.632L298.878 127.752L303.038 133H301.646ZM312.723 133.08C312.008 133.08 311.384 132.947 310.851 132.68C310.318 132.413 309.902 132.013 309.603 131.48C309.315 130.947 309.171 130.28 309.171 129.48V124.6H310.307V129.352C310.307 130.248 310.526 130.925 310.963 131.384C311.411 131.832 312.035 132.056 312.835 132.056C313.422 132.056 313.928 131.939 314.355 131.704C314.792 131.459 315.123 131.107 315.347 130.648C315.582 130.189 315.699 129.64 315.699 129V124.6H316.835V133H315.747V130.696L315.923 131.112C315.656 131.731 315.24 132.216 314.675 132.568C314.12 132.909 313.47 133.08 312.723 133.08ZM324.449 124.52C325.132 124.52 325.729 124.653 326.241 124.92C326.764 125.176 327.169 125.571 327.457 126.104C327.756 126.637 327.905 127.309 327.905 128.12V133H326.769V128.232C326.769 127.347 326.545 126.68 326.097 126.232C325.66 125.773 325.041 125.544 324.241 125.544C323.644 125.544 323.121 125.667 322.673 125.912C322.236 126.147 321.894 126.493 321.649 126.952C321.414 127.4 321.297 127.944 321.297 128.584V133H320.161V124.6H321.249V126.904L321.073 126.472C321.34 125.864 321.766 125.389 322.353 125.048C322.94 124.696 323.638 124.52 324.449 124.52ZM333.789 133.08C333 133.08 332.392 132.867 331.965 132.44C331.539 132.013 331.325 131.411 331.325 130.632V122.744H332.461V130.568C332.461 131.059 332.584 131.437 332.829 131.704C333.085 131.971 333.448 132.104 333.917 132.104C334.419 132.104 334.835 131.96 335.165 131.672L335.565 132.488C335.341 132.691 335.069 132.84 334.749 132.936C334.44 133.032 334.12 133.08 333.789 133.08ZM329.821 125.544V124.6H335.021V125.544H329.821ZM341.265 133.08C340.551 133.08 339.927 132.947 339.393 132.68C338.86 132.413 338.444 132.013 338.145 131.48C337.857 130.947 337.713 130.28 337.713 129.48V124.6H338.849V129.352C338.849 130.248 339.068 130.925 339.505 131.384C339.953 131.832 340.577 132.056 341.377 132.056C341.964 132.056 342.471 131.939 342.897 131.704C343.335 131.459 343.665 131.107 343.889 130.648C344.124 130.189 344.241 129.64 344.241 129V124.6H345.377V133H344.289V130.696L344.465 131.112C344.199 131.731 343.783 132.216 343.217 132.568C342.663 132.909 342.012 133.08 341.265 133.08ZM349.599 130.824L349.631 129.368L354.863 124.6H356.255L352.559 128.136L351.919 128.68L349.599 130.824ZM348.703 133V121.128H349.839V133H348.703ZM355.215 133L351.711 128.632L352.447 127.752L356.607 133H355.215ZM26.48 163.824L26.512 162.368L31.744 157.6H33.136L29.44 161.136L28.8 161.68L26.48 163.824ZM25.584 166V154.128H26.72V166H25.584ZM32.096 166L28.592 161.632L29.328 160.752L33.488 166H32.096ZM40.4611 166V164.144L40.4131 163.84V160.736C40.4131 160.021 40.2105 159.472 39.8051 159.088C39.4105 158.704 38.8185 158.512 38.0291 158.512C37.4851 158.512 36.9678 158.603 36.4771 158.784C35.9865 158.965 35.5705 159.205 35.2291 159.504L34.7171 158.656C35.1438 158.293 35.6558 158.016 36.2531 157.824C36.8505 157.621 37.4798 157.52 38.1411 157.52C39.2291 157.52 40.0665 157.792 40.6531 158.336C41.2505 158.869 41.5491 159.685 41.5491 160.784V166H40.4611ZM37.5651 166.08C36.9358 166.08 36.3865 165.979 35.9171 165.776C35.4585 165.563 35.1065 165.275 34.8611 164.912C34.6158 164.539 34.4931 164.112 34.4931 163.632C34.4931 163.195 34.5945 162.8 34.7971 162.448C35.0105 162.085 35.3518 161.797 35.8211 161.584C36.3011 161.36 36.9411 161.248 37.7411 161.248H40.6371V162.096H37.7731C36.9625 162.096 36.3971 162.24 36.0771 162.528C35.7678 162.816 35.6131 163.173 35.6131 163.6C35.6131 164.08 35.7998 164.464 36.1731 164.752C36.5465 165.04 37.0691 165.184 37.7411 165.184C38.3811 165.184 38.9305 165.04 39.3891 164.752C39.8585 164.453 40.1998 164.027 40.4131 163.472L40.6691 164.256C40.4558 164.811 40.0825 165.253 39.5491 165.584C39.0265 165.915 38.3651 166.08 37.5651 166.08ZM55.2906 157.52C55.9733 157.52 56.5653 157.653 57.0666 157.92C57.5786 158.176 57.9733 158.571 58.2506 159.104C58.5386 159.637 58.6826 160.309 58.6826 161.12V166H57.5466V161.232C57.5466 160.347 57.3333 159.68 56.9066 159.232C56.4906 158.773 55.8986 158.544 55.1306 158.544C54.5546 158.544 54.0533 158.667 53.6266 158.912C53.2106 159.147 52.8853 159.493 52.6506 159.952C52.4266 160.4 52.3146 160.944 52.3146 161.584V166H51.1786V161.232C51.1786 160.347 50.9653 159.68 50.5386 159.232C50.112 158.773 49.5146 158.544 48.7466 158.544C48.1813 158.544 47.6853 158.667 47.2586 158.912C46.832 159.147 46.5013 159.493 46.2666 159.952C46.0426 160.4 45.9306 160.944 45.9306 161.584V166H44.7946V157.6H45.8826V159.872L45.7066 159.472C45.9626 158.864 46.3733 158.389 46.9386 158.048C47.5146 157.696 48.192 157.52 48.9706 157.52C49.792 157.52 50.4906 157.728 51.0666 158.144C51.6426 158.549 52.016 159.163 52.1866 159.984L51.7386 159.808C51.984 159.125 52.416 158.576 53.0346 158.16C53.664 157.733 54.416 157.52 55.2906 157.52ZM65.3954 166.08C64.6807 166.08 64.0567 165.947 63.5234 165.68C62.99 165.413 62.574 165.013 62.2754 164.48C61.9874 163.947 61.8434 163.28 61.8434 162.48V157.6H62.9794V162.352C62.9794 163.248 63.198 163.925 63.6354 164.384C64.0834 164.832 64.7074 165.056 65.5074 165.056C66.094 165.056 66.6007 164.939 67.0274 164.704C67.4647 164.459 67.7954 164.107 68.0194 163.648C68.254 163.189 68.3714 162.64 68.3714 162V157.6H69.5074V166H68.4194V163.696L68.5954 164.112C68.3287 164.731 67.9127 165.216 67.3474 165.568C66.7927 165.909 66.142 166.08 65.3954 166.08ZM77.2449 169.184C76.8502 169.184 76.4715 169.12 76.1089 168.992C75.7569 168.864 75.4529 168.672 75.1969 168.416L75.7249 167.568C75.9382 167.771 76.1675 167.925 76.4129 168.032C76.6689 168.149 76.9515 168.208 77.2609 168.208C77.6342 168.208 77.9542 168.101 78.2209 167.888C78.4982 167.685 78.7595 167.323 79.0049 166.8L79.5489 165.568L79.6769 165.392L83.1329 157.6H84.2529L80.0449 167.008C79.8102 167.552 79.5489 167.984 79.2609 168.304C78.9835 168.624 78.6795 168.848 78.3489 168.976C78.0182 169.115 77.6502 169.184 77.2449 169.184ZM79.4849 166.24L75.6129 157.6H76.7969L80.2209 165.312L79.4849 166.24ZM91.0267 166V164.144L90.9787 163.84V160.736C90.9787 160.021 90.7761 159.472 90.3707 159.088C89.9761 158.704 89.3841 158.512 88.5947 158.512C88.0507 158.512 87.5334 158.603 87.0427 158.784C86.5521 158.965 86.1361 159.205 85.7947 159.504L85.2827 158.656C85.7094 158.293 86.2214 158.016 86.8187 157.824C87.4161 157.621 88.0454 157.52 88.7067 157.52C89.7947 157.52 90.6321 157.792 91.2187 158.336C91.8161 158.869 92.1147 159.685 92.1147 160.784V166H91.0267ZM88.1307 166.08C87.5014 166.08 86.9521 165.979 86.4827 165.776C86.0241 165.563 85.6721 165.275 85.4267 164.912C85.1814 164.539 85.0587 164.112 85.0587 163.632C85.0587 163.195 85.1601 162.8 85.3627 162.448C85.5761 162.085 85.9174 161.797 86.3867 161.584C86.8667 161.36 87.5067 161.248 88.3067 161.248H91.2027V162.096H88.3387C87.5281 162.096 86.9627 162.24 86.6427 162.528C86.3334 162.816 86.1787 163.173 86.1787 163.6C86.1787 164.08 86.3654 164.464 86.7387 164.752C87.1121 165.04 87.6347 165.184 88.3067 165.184C88.9467 165.184 89.4961 165.04 89.9547 164.752C90.4241 164.453 90.7654 164.027 90.9787 163.472L91.2347 164.256C91.0214 164.811 90.6481 165.253 90.1147 165.584C89.5921 165.915 88.9307 166.08 88.1307 166.08ZM99.6483 157.52C100.331 157.52 100.928 157.653 101.44 157.92C101.963 158.176 102.368 158.571 102.656 159.104C102.955 159.637 103.104 160.309 103.104 161.12V166H101.968V161.232C101.968 160.347 101.744 159.68 101.296 159.232C100.859 158.773 100.24 158.544 99.4403 158.544C98.8429 158.544 98.3203 158.667 97.8723 158.912C97.4349 159.147 97.0936 159.493 96.8483 159.952C96.6136 160.4 96.4963 160.944 96.4963 161.584V166H95.3603V157.6H96.4483V159.904L96.2723 159.472C96.5389 158.864 96.9656 158.389 97.5523 158.048C98.1389 157.696 98.8376 157.52 99.6483 157.52ZM109.917 169.184C109.149 169.184 108.413 169.072 107.709 168.848C107.005 168.624 106.434 168.304 105.997 167.888L106.573 167.024C106.967 167.376 107.453 167.653 108.029 167.856C108.615 168.069 109.234 168.176 109.885 168.176C110.951 168.176 111.735 167.925 112.237 167.424C112.738 166.933 112.989 166.165 112.989 165.12V163.024L113.149 161.584L113.037 160.144V157.6H114.125V164.976C114.125 166.427 113.767 167.488 113.053 168.16C112.349 168.843 111.303 169.184 109.917 169.184ZM109.709 165.68C108.909 165.68 108.189 165.509 107.549 165.168C106.909 164.816 106.402 164.331 106.029 163.712C105.666 163.093 105.485 162.384 105.485 161.584C105.485 160.784 105.666 160.08 106.029 159.472C106.402 158.853 106.909 158.373 107.549 158.032C108.189 157.691 108.909 157.52 109.709 157.52C110.455 157.52 111.127 157.675 111.725 157.984C112.322 158.293 112.797 158.752 113.149 159.36C113.501 159.968 113.677 160.709 113.677 161.584C113.677 162.459 113.501 163.2 113.149 163.808C112.797 164.416 112.322 164.88 111.725 165.2C111.127 165.52 110.455 165.68 109.709 165.68ZM109.821 164.672C110.439 164.672 110.989 164.544 111.469 164.288C111.949 164.021 112.327 163.659 112.605 163.2C112.882 162.731 113.021 162.192 113.021 161.584C113.021 160.976 112.882 160.443 112.605 159.984C112.327 159.525 111.949 159.168 111.469 158.912C110.989 158.645 110.439 158.512 109.821 158.512C109.213 158.512 108.663 158.645 108.173 158.912C107.693 159.168 107.314 159.525 107.037 159.984C106.77 160.443 106.637 160.976 106.637 161.584C106.637 162.192 106.77 162.731 107.037 163.2C107.314 163.659 107.693 164.021 108.173 164.288C108.663 164.544 109.213 164.672 109.821 164.672ZM124.049 166.08C123.356 166.08 122.7 165.984 122.081 165.792C121.463 165.589 120.977 165.339 120.625 165.04L121.137 164.144C121.479 164.4 121.916 164.624 122.449 164.816C122.983 164.997 123.543 165.088 124.129 165.088C124.929 165.088 125.505 164.965 125.857 164.72C126.209 164.464 126.385 164.128 126.385 163.712C126.385 163.403 126.284 163.163 126.081 162.992C125.889 162.811 125.633 162.677 125.313 162.592C124.993 162.496 124.636 162.416 124.241 162.352C123.847 162.288 123.452 162.213 123.057 162.128C122.673 162.043 122.321 161.92 122.001 161.76C121.681 161.589 121.42 161.36 121.217 161.072C121.025 160.784 120.929 160.4 120.929 159.92C120.929 159.461 121.057 159.051 121.313 158.688C121.569 158.325 121.943 158.043 122.433 157.84C122.935 157.627 123.543 157.52 124.257 157.52C124.801 157.52 125.345 157.595 125.889 157.744C126.433 157.883 126.881 158.069 127.233 158.304L126.737 159.216C126.364 158.96 125.964 158.779 125.537 158.672C125.111 158.555 124.684 158.496 124.257 158.496C123.5 158.496 122.94 158.629 122.577 158.896C122.225 159.152 122.049 159.483 122.049 159.888C122.049 160.208 122.145 160.459 122.337 160.64C122.54 160.821 122.801 160.965 123.121 161.072C123.452 161.168 123.809 161.248 124.193 161.312C124.588 161.376 124.977 161.456 125.361 161.552C125.756 161.637 126.113 161.76 126.433 161.92C126.764 162.069 127.025 162.288 127.217 162.576C127.42 162.853 127.521 163.221 127.521 163.68C127.521 164.171 127.383 164.597 127.105 164.96C126.839 165.312 126.444 165.589 125.921 165.792C125.409 165.984 124.785 166.08 124.049 166.08ZM133.238 166.08C132.523 166.08 131.899 165.947 131.366 165.68C130.833 165.413 130.417 165.013 130.118 164.48C129.83 163.947 129.686 163.28 129.686 162.48V157.6H130.822V162.352C130.822 163.248 131.041 163.925 131.478 164.384C131.926 164.832 132.55 165.056 133.35 165.056C133.937 165.056 134.443 164.939 134.87 164.704C135.307 164.459 135.638 164.107 135.862 163.648C136.097 163.189 136.214 162.64 136.214 162V157.6H137.35V166H136.262V163.696L136.438 164.112C136.171 164.731 135.755 165.216 135.19 165.568C134.635 165.909 133.985 166.08 133.238 166.08ZM141.572 163.824L141.604 162.368L146.836 157.6H148.228L144.532 161.136L143.892 161.68L141.572 163.824ZM140.676 166V154.128H141.812V166H140.676ZM147.188 166L143.684 161.632L144.42 160.752L148.58 166H147.188ZM155.553 166V164.144L155.505 163.84V160.736C155.505 160.021 155.302 159.472 154.897 159.088C154.502 158.704 153.91 158.512 153.121 158.512C152.577 158.512 152.06 158.603 151.569 158.784C151.078 158.965 150.662 159.205 150.321 159.504L149.809 158.656C150.236 158.293 150.748 158.016 151.345 157.824C151.942 157.621 152.572 157.52 153.233 157.52C154.321 157.52 155.158 157.792 155.745 158.336C156.342 158.869 156.641 159.685 156.641 160.784V166H155.553ZM152.657 166.08C152.028 166.08 151.478 165.979 151.009 165.776C150.55 165.563 150.198 165.275 149.953 164.912C149.708 164.539 149.585 164.112 149.585 163.632C149.585 163.195 149.686 162.8 149.889 162.448C150.102 162.085 150.444 161.797 150.913 161.584C151.393 161.36 152.033 161.248 152.833 161.248H155.729V162.096H152.865C152.054 162.096 151.489 162.24 151.169 162.528C150.86 162.816 150.705 163.173 150.705 163.6C150.705 164.08 150.892 164.464 151.265 164.752C151.638 165.04 152.161 165.184 152.833 165.184C153.473 165.184 154.022 165.04 154.481 164.752C154.95 164.453 155.292 164.027 155.505 163.472L155.761 164.256C155.548 164.811 155.174 165.253 154.641 165.584C154.118 165.915 153.457 166.08 152.657 166.08ZM174.73 157.52C175.413 157.52 176.005 157.653 176.506 157.92C177.018 158.176 177.413 158.571 177.69 159.104C177.978 159.637 178.122 160.309 178.122 161.12V166H176.986V161.232C176.986 160.347 176.773 159.68 176.346 159.232C175.93 158.773 175.338 158.544 174.57 158.544C173.994 158.544 173.493 158.667 173.066 158.912C172.65 159.147 172.325 159.493 172.09 159.952C171.866 160.4 171.754 160.944 171.754 161.584V166H170.618V161.232C170.618 160.347 170.405 159.68 169.978 159.232C169.551 158.773 168.954 158.544 168.186 158.544C167.621 158.544 167.125 158.667 166.698 158.912C166.271 159.147 165.941 159.493 165.706 159.952C165.482 160.4 165.37 160.944 165.37 161.584V166H164.234V157.6H165.322V159.872L165.146 159.472C165.402 158.864 165.813 158.389 166.378 158.048C166.954 157.696 167.631 157.52 168.41 157.52C169.231 157.52 169.93 157.728 170.506 158.144C171.082 158.549 171.455 159.163 171.626 159.984L171.178 159.808C171.423 159.125 171.855 158.576 172.474 158.16C173.103 157.733 173.855 157.52 174.73 157.52ZM184.931 166.08C184.056 166.08 183.288 165.899 182.627 165.536C181.965 165.163 181.448 164.656 181.075 164.016C180.701 163.365 180.515 162.624 180.515 161.792C180.515 160.96 180.691 160.224 181.043 159.584C181.405 158.944 181.896 158.443 182.515 158.08C183.144 157.707 183.848 157.52 184.627 157.52C185.416 157.52 186.115 157.701 186.723 158.064C187.341 158.416 187.827 158.917 188.179 159.568C188.531 160.208 188.707 160.949 188.707 161.792C188.707 161.845 188.701 161.904 188.691 161.968C188.691 162.021 188.691 162.08 188.691 162.144H181.379V161.296H188.083L187.635 161.632C187.635 161.024 187.501 160.485 187.235 160.016C186.979 159.536 186.627 159.163 186.179 158.896C185.731 158.629 185.213 158.496 184.627 158.496C184.051 158.496 183.533 158.629 183.075 158.896C182.616 159.163 182.259 159.536 182.003 160.016C181.747 160.496 181.619 161.045 181.619 161.664V161.84C181.619 162.48 181.757 163.045 182.035 163.536C182.323 164.016 182.717 164.395 183.219 164.672C183.731 164.939 184.312 165.072 184.963 165.072C185.475 165.072 185.949 164.981 186.387 164.8C186.835 164.619 187.219 164.341 187.539 163.968L188.179 164.704C187.805 165.152 187.336 165.493 186.771 165.728C186.216 165.963 185.603 166.08 184.931 166.08ZM201.675 157.52C202.358 157.52 202.95 157.653 203.451 157.92C203.963 158.176 204.358 158.571 204.635 159.104C204.923 159.637 205.067 160.309 205.067 161.12V166H203.931V161.232C203.931 160.347 203.718 159.68 203.291 159.232C202.875 158.773 202.283 158.544 201.515 158.544C200.939 158.544 200.438 158.667 200.011 158.912C199.595 159.147 199.27 159.493 199.035 159.952C198.811 160.4 198.699 160.944 198.699 161.584V166H197.563V161.232C197.563 160.347 197.35 159.68 196.923 159.232C196.496 158.773 195.899 158.544 195.131 158.544C194.566 158.544 194.07 158.667 193.643 158.912C193.216 159.147 192.886 159.493 192.651 159.952C192.427 160.4 192.315 160.944 192.315 161.584V166H191.179V157.6H192.267V159.872L192.091 159.472C192.347 158.864 192.758 158.389 193.323 158.048C193.899 157.696 194.576 157.52 195.355 157.52C196.176 157.52 196.875 157.728 197.451 158.144C198.027 158.549 198.4 159.163 198.571 159.984L198.123 159.808C198.368 159.125 198.8 158.576 199.419 158.16C200.048 157.733 200.8 157.52 201.675 157.52ZM212.644 166.08C211.908 166.08 211.246 165.915 210.66 165.584C210.073 165.243 209.609 164.752 209.268 164.112C208.926 163.472 208.756 162.699 208.756 161.792C208.756 160.875 208.926 160.101 209.268 159.472C209.62 158.832 210.089 158.347 210.676 158.016C211.262 157.685 211.918 157.52 212.644 157.52C213.444 157.52 214.158 157.701 214.788 158.064C215.428 158.416 215.929 158.912 216.292 159.552C216.654 160.192 216.836 160.939 216.836 161.792C216.836 162.635 216.654 163.381 216.292 164.032C215.929 164.672 215.428 165.173 214.788 165.536C214.158 165.899 213.444 166.08 212.644 166.08ZM208.308 166V154.128H209.444V160.08L209.284 161.776L209.396 163.472V166H208.308ZM212.564 165.072C213.161 165.072 213.694 164.939 214.164 164.672C214.633 164.395 215.006 164.011 215.284 163.52C215.561 163.019 215.7 162.443 215.7 161.792C215.7 161.131 215.561 160.555 215.284 160.064C215.006 159.573 214.633 159.195 214.164 158.928C213.694 158.651 213.161 158.512 212.564 158.512C211.966 158.512 211.428 158.651 210.948 158.928C210.478 159.195 210.105 159.573 209.828 160.064C209.561 160.555 209.428 161.131 209.428 161.792C209.428 162.443 209.561 163.019 209.828 163.52C210.105 164.011 210.478 164.395 210.948 164.672C211.428 164.939 211.966 165.072 212.564 165.072ZM224.529 166V164.144L224.481 163.84V160.736C224.481 160.021 224.278 159.472 223.873 159.088C223.478 158.704 222.886 158.512 222.097 158.512C221.553 158.512 221.035 158.603 220.545 158.784C220.054 158.965 219.638 159.205 219.297 159.504L218.785 158.656C219.211 158.293 219.723 158.016 220.321 157.824C220.918 157.621 221.547 157.52 222.209 157.52C223.297 157.52 224.134 157.792 224.721 158.336C225.318 158.869 225.617 159.685 225.617 160.784V166H224.529ZM221.633 166.08C221.003 166.08 220.454 165.979 219.985 165.776C219.526 165.563 219.174 165.275 218.929 164.912C218.683 164.539 218.561 164.112 218.561 163.632C218.561 163.195 218.662 162.8 218.865 162.448C219.078 162.085 219.419 161.797 219.889 161.584C220.369 161.36 221.009 161.248 221.809 161.248H224.705V162.096H221.841C221.03 162.096 220.465 162.24 220.145 162.528C219.835 162.816 219.681 163.173 219.681 163.6C219.681 164.08 219.867 164.464 220.241 164.752C220.614 165.04 221.137 165.184 221.809 165.184C222.449 165.184 222.998 165.04 223.457 164.752C223.926 164.453 224.267 164.027 224.481 163.472L224.737 164.256C224.523 164.811 224.15 165.253 223.617 165.584C223.094 165.915 222.433 166.08 221.633 166.08ZM233.15 157.52C233.833 157.52 234.43 157.653 234.942 157.92C235.465 158.176 235.87 158.571 236.158 159.104C236.457 159.637 236.606 160.309 236.606 161.12V166H235.47V161.232C235.47 160.347 235.246 159.68 234.798 159.232C234.361 158.773 233.742 158.544 232.942 158.544C232.345 158.544 231.822 158.667 231.374 158.912C230.937 159.147 230.595 159.493 230.35 159.952C230.115 160.4 229.998 160.944 229.998 161.584V166H228.862V157.6H229.95V159.904L229.774 159.472C230.041 158.864 230.467 158.389 231.054 158.048C231.641 157.696 232.339 157.52 233.15 157.52ZM243.179 166.08C242.379 166.08 241.659 165.899 241.019 165.536C240.389 165.173 239.893 164.672 239.531 164.032C239.168 163.381 238.987 162.635 238.987 161.792C238.987 160.939 239.168 160.192 239.531 159.552C239.893 158.912 240.389 158.416 241.019 158.064C241.659 157.701 242.379 157.52 243.179 157.52C243.915 157.52 244.571 157.685 245.147 158.016C245.733 158.347 246.197 158.832 246.539 159.472C246.891 160.101 247.067 160.875 247.067 161.792C247.067 162.699 246.896 163.472 246.555 164.112C246.213 164.752 245.749 165.243 245.163 165.584C244.587 165.915 243.925 166.08 243.179 166.08ZM243.259 165.072C243.856 165.072 244.389 164.939 244.859 164.672C245.339 164.395 245.712 164.011 245.979 163.52C246.256 163.019 246.395 162.443 246.395 161.792C246.395 161.131 246.256 160.555 245.979 160.064C245.712 159.573 245.339 159.195 244.859 158.928C244.389 158.651 243.856 158.512 243.259 158.512C242.672 158.512 242.144 158.651 241.675 158.928C241.205 159.195 240.832 159.573 240.555 160.064C240.277 160.555 240.139 161.131 240.139 161.792C240.139 162.443 240.277 163.019 240.555 163.52C240.832 164.011 241.205 164.395 241.675 164.672C242.144 164.939 242.672 165.072 243.259 165.072ZM246.427 166V163.472L246.539 161.776L246.379 160.08V154.128H247.515V166H246.427ZM250.838 166V157.6H251.974V166H250.838ZM251.414 155.744C251.18 155.744 250.982 155.664 250.822 155.504C250.662 155.344 250.582 155.152 250.582 154.928C250.582 154.704 250.662 154.517 250.822 154.368C250.982 154.208 251.18 154.128 251.414 154.128C251.649 154.128 251.846 154.203 252.006 154.352C252.166 154.501 252.246 154.688 252.246 154.912C252.246 155.147 252.166 155.344 252.006 155.504C251.857 155.664 251.66 155.744 251.414 155.744ZM259.583 157.52C260.266 157.52 260.863 157.653 261.375 157.92C261.898 158.176 262.303 158.571 262.591 159.104C262.89 159.637 263.039 160.309 263.039 161.12V166H261.903V161.232C261.903 160.347 261.679 159.68 261.231 159.232C260.794 158.773 260.175 158.544 259.375 158.544C258.778 158.544 258.255 158.667 257.807 158.912C257.37 159.147 257.029 159.493 256.783 159.952C256.549 160.4 256.431 160.944 256.431 161.584V166H255.295V157.6H256.383V159.904L256.207 159.472C256.474 158.864 256.901 158.389 257.487 158.048C258.074 157.696 258.773 157.52 259.583 157.52ZM269.852 169.184C269.084 169.184 268.348 169.072 267.644 168.848C266.94 168.624 266.369 168.304 265.932 167.888L266.508 167.024C266.902 167.376 267.388 167.653 267.964 167.856C268.55 168.069 269.169 168.176 269.82 168.176C270.886 168.176 271.67 167.925 272.172 167.424C272.673 166.933 272.924 166.165 272.924 165.12V163.024L273.084 161.584L272.972 160.144V157.6H274.06V164.976C274.06 166.427 273.702 167.488 272.988 168.16C272.284 168.843 271.238 169.184 269.852 169.184ZM269.644 165.68C268.844 165.68 268.124 165.509 267.484 165.168C266.844 164.816 266.337 164.331 265.964 163.712C265.601 163.093 265.42 162.384 265.42 161.584C265.42 160.784 265.601 160.08 265.964 159.472C266.337 158.853 266.844 158.373 267.484 158.032C268.124 157.691 268.844 157.52 269.644 157.52C270.39 157.52 271.062 157.675 271.66 157.984C272.257 158.293 272.732 158.752 273.084 159.36C273.436 159.968 273.612 160.709 273.612 161.584C273.612 162.459 273.436 163.2 273.084 163.808C272.732 164.416 272.257 164.88 271.66 165.2C271.062 165.52 270.39 165.68 269.644 165.68ZM269.756 164.672C270.374 164.672 270.924 164.544 271.404 164.288C271.884 164.021 272.262 163.659 272.54 163.2C272.817 162.731 272.956 162.192 272.956 161.584C272.956 160.976 272.817 160.443 272.54 159.984C272.262 159.525 271.884 159.168 271.404 158.912C270.924 158.645 270.374 158.512 269.756 158.512C269.148 158.512 268.598 158.645 268.108 158.912C267.628 159.168 267.249 159.525 266.972 159.984C266.705 160.443 266.572 160.976 266.572 161.584C266.572 162.192 266.705 162.731 266.972 163.2C267.249 163.659 267.628 164.021 268.108 164.288C268.598 164.544 269.148 164.672 269.756 164.672ZM278.277 163.824L278.309 162.368L283.541 157.6H284.933L281.237 161.136L280.597 161.68L278.277 163.824ZM277.381 166V154.128H278.517V166H277.381ZM283.893 166L280.389 161.632L281.125 160.752L285.285 166H283.893ZM292.258 166V164.144L292.21 163.84V160.736C292.21 160.021 292.007 159.472 291.602 159.088C291.207 158.704 290.615 158.512 289.826 158.512C289.282 158.512 288.765 158.603 288.274 158.784C287.783 158.965 287.367 159.205 287.026 159.504L286.514 158.656C286.941 158.293 287.453 158.016 288.05 157.824C288.647 157.621 289.277 157.52 289.938 157.52C291.026 157.52 291.863 157.792 292.45 158.336C293.047 158.869 293.346 159.685 293.346 160.784V166H292.258ZM289.362 166.08C288.733 166.08 288.183 165.979 287.714 165.776C287.255 165.563 286.903 165.275 286.658 164.912C286.413 164.539 286.29 164.112 286.29 163.632C286.29 163.195 286.391 162.8 286.594 162.448C286.807 162.085 287.149 161.797 287.618 161.584C288.098 161.36 288.738 161.248 289.538 161.248H292.434V162.096H289.57C288.759 162.096 288.194 162.24 287.874 162.528C287.565 162.816 287.41 163.173 287.41 163.6C287.41 164.08 287.597 164.464 287.97 164.752C288.343 165.04 288.866 165.184 289.538 165.184C290.178 165.184 290.727 165.04 291.186 164.752C291.655 164.453 291.997 164.027 292.21 163.472L292.466 164.256C292.253 164.811 291.879 165.253 291.346 165.584C290.823 165.915 290.162 166.08 289.362 166.08ZM300.88 157.52C301.562 157.52 302.16 157.653 302.672 157.92C303.194 158.176 303.6 158.571 303.888 159.104C304.186 159.637 304.336 160.309 304.336 161.12V166H303.2V161.232C303.2 160.347 302.976 159.68 302.528 159.232C302.09 158.773 301.472 158.544 300.672 158.544C300.074 158.544 299.552 158.667 299.104 158.912C298.666 159.147 298.325 159.493 298.08 159.952C297.845 160.4 297.728 160.944 297.728 161.584V166H296.592V157.6H297.68V159.904L297.504 159.472C297.77 158.864 298.197 158.389 298.784 158.048C299.37 157.696 300.069 157.52 300.88 157.52ZM316.2 157.52C316.882 157.52 317.48 157.653 317.992 157.92C318.514 158.176 318.92 158.571 319.208 159.104C319.506 159.637 319.656 160.309 319.656 161.12V166H318.52V161.232C318.52 160.347 318.296 159.68 317.848 159.232C317.41 158.773 316.792 158.544 315.992 158.544C315.394 158.544 314.872 158.667 314.424 158.912C313.986 159.147 313.645 159.493 313.4 159.952C313.165 160.4 313.048 160.944 313.048 161.584V166H311.912V154.128H313.048V159.904L312.824 159.472C313.09 158.864 313.517 158.389 314.104 158.048C314.69 157.696 315.389 157.52 316.2 157.52ZM328.148 166V164.144L328.1 163.84V160.736C328.1 160.021 327.897 159.472 327.492 159.088C327.097 158.704 326.505 158.512 325.716 158.512C325.172 158.512 324.655 158.603 324.164 158.784C323.673 158.965 323.257 159.205 322.916 159.504L322.404 158.656C322.831 158.293 323.343 158.016 323.94 157.824C324.537 157.621 325.167 157.52 325.828 157.52C326.916 157.52 327.753 157.792 328.34 158.336C328.937 158.869 329.236 159.685 329.236 160.784V166H328.148ZM325.252 166.08C324.623 166.08 324.073 165.979 323.604 165.776C323.145 165.563 322.793 165.275 322.548 164.912C322.303 164.539 322.18 164.112 322.18 163.632C322.18 163.195 322.281 162.8 322.484 162.448C322.697 162.085 323.039 161.797 323.508 161.584C323.988 161.36 324.628 161.248 325.428 161.248H328.324V162.096H325.46C324.649 162.096 324.084 162.24 323.764 162.528C323.455 162.816 323.3 163.173 323.3 163.6C323.3 164.08 323.487 164.464 323.86 164.752C324.233 165.04 324.756 165.184 325.428 165.184C326.068 165.184 326.617 165.04 327.076 164.752C327.545 164.453 327.887 164.027 328.1 163.472L328.356 164.256C328.143 164.811 327.769 165.253 327.236 165.584C326.713 165.915 326.052 166.08 325.252 166.08ZM332.481 166V157.6H333.569V159.888L333.457 159.488C333.692 158.848 334.087 158.363 334.641 158.032C335.196 157.691 335.884 157.52 336.705 157.52V158.624C336.663 158.624 336.62 158.624 336.577 158.624C336.535 158.613 336.492 158.608 336.449 158.608C335.564 158.608 334.871 158.88 334.369 159.424C333.868 159.957 333.617 160.72 333.617 161.712V166H332.481ZM342.444 169.184C341.676 169.184 340.94 169.072 340.236 168.848C339.532 168.624 338.962 168.304 338.524 167.888L339.1 167.024C339.495 167.376 339.98 167.653 340.556 167.856C341.143 168.069 341.762 168.176 342.412 168.176C343.479 168.176 344.263 167.925 344.764 167.424C345.266 166.933 345.516 166.165 345.516 165.12V163.024L345.676 161.584L345.564 160.144V157.6H346.652V164.976C346.652 166.427 346.295 167.488 345.58 168.16C344.876 168.843 343.831 169.184 342.444 169.184ZM342.236 165.68C341.436 165.68 340.716 165.509 340.076 165.168C339.436 164.816 338.93 164.331 338.556 163.712C338.194 163.093 338.012 162.384 338.012 161.584C338.012 160.784 338.194 160.08 338.556 159.472C338.93 158.853 339.436 158.373 340.076 158.032C340.716 157.691 341.436 157.52 342.236 157.52C342.983 157.52 343.655 157.675 344.252 157.984C344.85 158.293 345.324 158.752 345.676 159.36C346.028 159.968 346.204 160.709 346.204 161.584C346.204 162.459 346.028 163.2 345.676 163.808C345.324 164.416 344.85 164.88 344.252 165.2C343.655 165.52 342.983 165.68 342.236 165.68ZM342.348 164.672C342.967 164.672 343.516 164.544 343.996 164.288C344.476 164.021 344.855 163.659 345.132 163.2C345.41 162.731 345.548 162.192 345.548 161.584C345.548 160.976 345.41 160.443 345.132 159.984C344.855 159.525 344.476 159.168 343.996 158.912C343.516 158.645 342.967 158.512 342.348 158.512C341.74 158.512 341.191 158.645 340.7 158.912C340.22 159.168 339.842 159.525 339.564 159.984C339.298 160.443 339.164 160.976 339.164 161.584C339.164 162.192 339.298 162.731 339.564 163.2C339.842 163.659 340.22 164.021 340.7 164.288C341.191 164.544 341.74 164.672 342.348 164.672ZM355.237 166V164.144L355.189 163.84V160.736C355.189 160.021 354.987 159.472 354.581 159.088C354.187 158.704 353.595 158.512 352.805 158.512C352.261 158.512 351.744 158.603 351.253 158.784C350.763 158.965 350.347 159.205 350.005 159.504L349.493 158.656C349.92 158.293 350.432 158.016 351.029 157.824C351.627 157.621 352.256 157.52 352.917 157.52C354.005 157.52 354.843 157.792 355.429 158.336C356.027 158.869 356.325 159.685 356.325 160.784V166H355.237ZM352.341 166.08C351.712 166.08 351.163 165.979 350.693 165.776C350.235 165.563 349.883 165.275 349.637 164.912C349.392 164.539 349.269 164.112 349.269 163.632C349.269 163.195 349.371 162.8 349.573 162.448C349.787 162.085 350.128 161.797 350.597 161.584C351.077 161.36 351.717 161.248 352.517 161.248H355.413V162.096H352.549C351.739 162.096 351.173 162.24 350.853 162.528C350.544 162.816 350.389 163.173 350.389 163.6C350.389 164.08 350.576 164.464 350.949 164.752C351.323 165.04 351.845 165.184 352.517 165.184C353.157 165.184 353.707 165.04 354.165 164.752C354.635 164.453 354.976 164.027 355.189 163.472L355.445 164.256C355.232 164.811 354.859 165.253 354.325 165.584C353.803 165.915 353.141 166.08 352.341 166.08ZM28.928 200.08C28.128 200.08 27.408 199.899 26.768 199.536C26.1387 199.173 25.6427 198.672 25.28 198.032C24.9173 197.381 24.736 196.635 24.736 195.792C24.736 194.939 24.9173 194.192 25.28 193.552C25.6427 192.912 26.1387 192.416 26.768 192.064C27.408 191.701 28.128 191.52 28.928 191.52C29.664 191.52 30.32 191.685 30.896 192.016C31.4827 192.347 31.9467 192.832 32.288 193.472C32.64 194.101 32.816 194.875 32.816 195.792C32.816 196.699 32.6453 197.472 32.304 198.112C31.9627 198.752 31.4987 199.243 30.912 199.584C30.336 199.915 29.6747 200.08 28.928 200.08ZM29.008 199.072C29.6053 199.072 30.1387 198.939 30.608 198.672C31.088 198.395 31.4613 198.011 31.728 197.52C32.0053 197.019 32.144 196.443 32.144 195.792C32.144 195.131 32.0053 194.555 31.728 194.064C31.4613 193.573 31.088 193.195 30.608 192.928C30.1387 192.651 29.6053 192.512 29.008 192.512C28.4213 192.512 27.8933 192.651 27.424 192.928C26.9547 193.195 26.5813 193.573 26.304 194.064C26.0267 194.555 25.888 195.131 25.888 195.792C25.888 196.443 26.0267 197.019 26.304 197.52C26.5813 198.011 26.9547 198.395 27.424 198.672C27.8933 198.939 28.4213 199.072 29.008 199.072ZM32.176 200V197.472L32.288 195.776L32.128 194.08V188.128H33.264V200H32.176ZM40.1558 200.08C39.2811 200.08 38.5131 199.899 37.8517 199.536C37.1904 199.163 36.6731 198.656 36.2997 198.016C35.9264 197.365 35.7397 196.624 35.7397 195.792C35.7397 194.96 35.9157 194.224 36.2677 193.584C36.6304 192.944 37.1211 192.443 37.7397 192.08C38.3691 191.707 39.0731 191.52 39.8517 191.52C40.6411 191.52 41.3397 191.701 41.9478 192.064C42.5664 192.416 43.0518 192.917 43.4038 193.568C43.7558 194.208 43.9318 194.949 43.9318 195.792C43.9318 195.845 43.9264 195.904 43.9158 195.968C43.9158 196.021 43.9158 196.08 43.9158 196.144H36.6037V195.296H43.3078L42.8598 195.632C42.8598 195.024 42.7264 194.485 42.4598 194.016C42.2038 193.536 41.8518 193.163 41.4037 192.896C40.9557 192.629 40.4384 192.496 39.8517 192.496C39.2758 192.496 38.7584 192.629 38.2998 192.896C37.8411 193.163 37.4837 193.536 37.2278 194.016C36.9717 194.496 36.8437 195.045 36.8437 195.664V195.84C36.8437 196.48 36.9824 197.045 37.2597 197.536C37.5477 198.016 37.9424 198.395 38.4437 198.672C38.9557 198.939 39.5371 199.072 40.1877 199.072C40.6997 199.072 41.1744 198.981 41.6118 198.8C42.0598 198.619 42.4438 198.341 42.7638 197.968L43.4038 198.704C43.0304 199.152 42.5611 199.493 41.9957 199.728C41.4411 199.963 40.8278 200.08 40.1558 200.08ZM50.692 191.52C51.3747 191.52 51.972 191.653 52.484 191.92C53.0067 192.176 53.412 192.571 53.7 193.104C53.9987 193.637 54.148 194.309 54.148 195.12V200H53.012V195.232C53.012 194.347 52.788 193.68 52.34 193.232C51.9027 192.773 51.284 192.544 50.484 192.544C49.8867 192.544 49.364 192.667 48.916 192.912C48.4787 193.147 48.1373 193.493 47.892 193.952C47.6573 194.4 47.54 194.944 47.54 195.584V200H46.404V191.6H47.492V193.904L47.316 193.472C47.5827 192.864 48.0093 192.389 48.596 192.048C49.1827 191.696 49.8813 191.52 50.692 191.52ZM60.9605 203.184C60.1925 203.184 59.4565 203.072 58.7525 202.848C58.0485 202.624 57.4778 202.304 57.0405 201.888L57.6165 201.024C58.0112 201.376 58.4965 201.653 59.0725 201.856C59.6592 202.069 60.2778 202.176 60.9285 202.176C61.9952 202.176 62.7792 201.925 63.2805 201.424C63.7818 200.933 64.0325 200.165 64.0325 199.12V197.024L64.1925 195.584L64.0805 194.144V191.6H65.1685V198.976C65.1685 200.427 64.8112 201.488 64.0965 202.16C63.3925 202.843 62.3472 203.184 60.9605 203.184ZM60.7525 199.68C59.9525 199.68 59.2325 199.509 58.5925 199.168C57.9525 198.816 57.4458 198.331 57.0725 197.712C56.7098 197.093 56.5285 196.384 56.5285 195.584C56.5285 194.784 56.7098 194.08 57.0725 193.472C57.4458 192.853 57.9525 192.373 58.5925 192.032C59.2325 191.691 59.9525 191.52 60.7525 191.52C61.4992 191.52 62.1712 191.675 62.7685 191.984C63.3658 192.293 63.8405 192.752 64.1925 193.36C64.5445 193.968 64.7205 194.709 64.7205 195.584C64.7205 196.459 64.5445 197.2 64.1925 197.808C63.8405 198.416 63.3658 198.88 62.7685 199.2C62.1712 199.52 61.4992 199.68 60.7525 199.68ZM60.8645 198.672C61.4832 198.672 62.0325 198.544 62.5125 198.288C62.9925 198.021 63.3712 197.659 63.6485 197.2C63.9258 196.731 64.0645 196.192 64.0645 195.584C64.0645 194.976 63.9258 194.443 63.6485 193.984C63.3712 193.525 62.9925 193.168 62.5125 192.912C62.0325 192.645 61.4832 192.512 60.8645 192.512C60.2565 192.512 59.7072 192.645 59.2165 192.912C58.7365 193.168 58.3578 193.525 58.0805 193.984C57.8138 194.443 57.6805 194.976 57.6805 195.584C57.6805 196.192 57.8138 196.731 58.0805 197.2C58.3578 197.659 58.7365 198.021 59.2165 198.288C59.7072 198.544 60.2565 198.672 60.8645 198.672ZM73.7536 200V198.144L73.7056 197.84V194.736C73.7056 194.021 73.503 193.472 73.0976 193.088C72.703 192.704 72.111 192.512 71.3216 192.512C70.7776 192.512 70.2603 192.603 69.7696 192.784C69.279 192.965 68.863 193.205 68.5216 193.504L68.0096 192.656C68.4363 192.293 68.9483 192.016 69.5456 191.824C70.143 191.621 70.7723 191.52 71.4336 191.52C72.5216 191.52 73.359 191.792 73.9456 192.336C74.543 192.869 74.8416 193.685 74.8416 194.784V200H73.7536ZM70.8576 200.08C70.2283 200.08 69.679 199.979 69.2096 199.776C68.751 199.563 68.399 199.275 68.1536 198.912C67.9083 198.539 67.7856 198.112 67.7856 197.632C67.7856 197.195 67.887 196.8 68.0896 196.448C68.303 196.085 68.6443 195.797 69.1136 195.584C69.5936 195.36 70.2336 195.248 71.0336 195.248H73.9296V196.096H71.0656C70.255 196.096 69.6896 196.24 69.3696 196.528C69.0603 196.816 68.9056 197.173 68.9056 197.6C68.9056 198.08 69.0923 198.464 69.4656 198.752C69.839 199.04 70.3616 199.184 71.0336 199.184C71.6736 199.184 72.223 199.04 72.6816 198.752C73.151 198.453 73.4923 198.027 73.7056 197.472L73.9616 198.256C73.7483 198.811 73.375 199.253 72.8416 199.584C72.319 199.915 71.6576 200.08 70.8576 200.08ZM82.3751 191.52C83.0578 191.52 83.6551 191.653 84.1671 191.92C84.6898 192.176 85.0951 192.571 85.3831 193.104C85.6818 193.637 85.8311 194.309 85.8311 195.12V200H84.6951V195.232C84.6951 194.347 84.4711 193.68 84.0231 193.232C83.5858 192.773 82.9671 192.544 82.1671 192.544C81.5698 192.544 81.0471 192.667 80.5991 192.912C80.1618 193.147 79.8205 193.493 79.5751 193.952C79.3405 194.4 79.2231 194.944 79.2231 195.584V200H78.0871V191.6H79.1751V193.904L78.9991 193.472C79.2658 192.864 79.6925 192.389 80.2791 192.048C80.8658 191.696 81.5645 191.52 82.3751 191.52ZM97.7431 200.08C97.0178 200.08 96.3618 199.915 95.7751 199.584C95.1885 199.243 94.7191 198.757 94.3671 198.128C94.0258 197.488 93.8551 196.709 93.8551 195.792C93.8551 194.875 94.0258 194.101 94.3671 193.472C94.7085 192.832 95.1725 192.347 95.7591 192.016C96.3458 191.685 97.0071 191.52 97.7431 191.52C98.5431 191.52 99.2578 191.701 99.8871 192.064C100.527 192.416 101.028 192.917 101.391 193.568C101.754 194.208 101.935 194.949 101.935 195.792C101.935 196.645 101.754 197.392 101.391 198.032C101.028 198.672 100.527 199.173 99.8871 199.536C99.2578 199.899 98.5431 200.08 97.7431 200.08ZM93.4071 203.104V191.6H94.4951V194.128L94.3831 195.808L94.5431 197.504V203.104H93.4071ZM97.6631 199.072C98.2605 199.072 98.7938 198.939 99.2631 198.672C99.7325 198.395 100.106 198.011 100.383 197.52C100.66 197.019 100.799 196.443 100.799 195.792C100.799 195.141 100.66 194.571 100.383 194.08C100.106 193.589 99.7325 193.205 99.2631 192.928C98.7938 192.651 98.2605 192.512 97.6631 192.512C97.0658 192.512 96.5271 192.651 96.0471 192.928C95.5778 193.205 95.2045 193.589 94.9271 194.08C94.6605 194.571 94.5271 195.141 94.5271 195.792C94.5271 196.443 94.6605 197.019 94.9271 197.52C95.2045 198.011 95.5778 198.395 96.0471 198.672C96.5271 198.939 97.0658 199.072 97.6631 199.072ZM104.411 200V191.6H105.499V193.888L105.387 193.488C105.622 192.848 106.016 192.363 106.571 192.032C107.126 191.691 107.814 191.52 108.635 191.52V192.624C108.592 192.624 108.55 192.624 108.507 192.624C108.464 192.613 108.422 192.608 108.379 192.608C107.494 192.608 106.8 192.88 106.299 193.424C105.798 193.957 105.547 194.72 105.547 195.712V200H104.411ZM114.214 200.08C113.403 200.08 112.672 199.899 112.022 199.536C111.382 199.163 110.875 198.656 110.502 198.016C110.128 197.365 109.942 196.624 109.942 195.792C109.942 194.949 110.128 194.208 110.502 193.568C110.875 192.928 111.382 192.427 112.022 192.064C112.662 191.701 113.392 191.52 114.214 191.52C115.046 191.52 115.782 191.701 116.422 192.064C117.072 192.427 117.579 192.928 117.942 193.568C118.315 194.208 118.502 194.949 118.502 195.792C118.502 196.624 118.315 197.365 117.942 198.016C117.579 198.656 117.072 199.163 116.422 199.536C115.771 199.899 115.035 200.08 114.214 200.08ZM114.214 199.072C114.822 199.072 115.36 198.939 115.83 198.672C116.299 198.395 116.667 198.011 116.934 197.52C117.211 197.019 117.35 196.443 117.35 195.792C117.35 195.131 117.211 194.555 116.934 194.064C116.667 193.573 116.299 193.195 115.83 192.928C115.36 192.651 114.827 192.512 114.23 192.512C113.632 192.512 113.099 192.651 112.63 192.928C112.16 193.195 111.787 193.573 111.51 194.064C111.232 194.555 111.094 195.131 111.094 195.792C111.094 196.443 111.232 197.019 111.51 197.52C111.787 198.011 112.16 198.395 112.63 198.672C113.099 198.939 113.627 199.072 114.214 199.072ZM122.906 200L119.178 191.6H120.362L123.786 199.392H123.226L126.698 191.6H127.818L124.074 200H122.906ZM129.578 200V191.6H130.714V200H129.578ZM130.154 189.744C129.92 189.744 129.722 189.664 129.562 189.504C129.402 189.344 129.322 189.152 129.322 188.928C129.322 188.704 129.402 188.517 129.562 188.368C129.722 188.208 129.92 188.128 130.154 188.128C130.389 188.128 130.586 188.203 130.746 188.352C130.906 188.501 130.986 188.688 130.986 188.912C130.986 189.147 130.906 189.344 130.746 189.504C130.597 189.664 130.4 189.744 130.154 189.744ZM137.379 200.08C136.579 200.08 135.859 199.899 135.219 199.536C134.59 199.173 134.094 198.672 133.731 198.032C133.369 197.381 133.187 196.635 133.187 195.792C133.187 194.939 133.369 194.192 133.731 193.552C134.094 192.912 134.59 192.416 135.219 192.064C135.859 191.701 136.579 191.52 137.379 191.52C138.115 191.52 138.771 191.685 139.347 192.016C139.934 192.347 140.398 192.832 140.739 193.472C141.091 194.101 141.267 194.875 141.267 195.792C141.267 196.699 141.097 197.472 140.755 198.112C140.414 198.752 139.95 199.243 139.363 199.584C138.787 199.915 138.126 200.08 137.379 200.08ZM137.459 199.072C138.057 199.072 138.59 198.939 139.059 198.672C139.539 198.395 139.913 198.011 140.179 197.52C140.457 197.019 140.595 196.443 140.595 195.792C140.595 195.131 140.457 194.555 140.179 194.064C139.913 193.573 139.539 193.195 139.059 192.928C138.59 192.651 138.057 192.512 137.459 192.512C136.873 192.512 136.345 192.651 135.875 192.928C135.406 193.195 135.033 193.573 134.755 194.064C134.478 194.555 134.339 195.131 134.339 195.792C134.339 196.443 134.478 197.019 134.755 197.52C135.033 198.011 135.406 198.395 135.875 198.672C136.345 198.939 136.873 199.072 137.459 199.072ZM140.627 200V197.472L140.739 195.776L140.579 194.08V188.128H141.715V200H140.627ZM148.607 200.08C147.732 200.08 146.964 199.899 146.303 199.536C145.642 199.163 145.124 198.656 144.751 198.016C144.378 197.365 144.191 196.624 144.191 195.792C144.191 194.96 144.367 194.224 144.719 193.584C145.082 192.944 145.572 192.443 146.191 192.08C146.82 191.707 147.524 191.52 148.303 191.52C149.092 191.52 149.791 191.701 150.399 192.064C151.018 192.416 151.503 192.917 151.855 193.568C152.207 194.208 152.383 194.949 152.383 195.792C152.383 195.845 152.378 195.904 152.367 195.968C152.367 196.021 152.367 196.08 152.367 196.144H145.055V195.296H151.759L151.311 195.632C151.311 195.024 151.178 194.485 150.911 194.016C150.655 193.536 150.303 193.163 149.855 192.896C149.407 192.629 148.89 192.496 148.303 192.496C147.727 192.496 147.21 192.629 146.751 192.896C146.292 193.163 145.935 193.536 145.679 194.016C145.423 194.496 145.295 195.045 145.295 195.664V195.84C145.295 196.48 145.434 197.045 145.711 197.536C145.999 198.016 146.394 198.395 146.895 198.672C147.407 198.939 147.988 199.072 148.639 199.072C149.151 199.072 149.626 198.981 150.063 198.8C150.511 198.619 150.895 198.341 151.215 197.968L151.855 198.704C151.482 199.152 151.012 199.493 150.447 199.728C149.892 199.963 149.279 200.08 148.607 200.08ZM154.855 200V191.6H155.943V193.888L155.831 193.488C156.066 192.848 156.461 192.363 157.015 192.032C157.57 191.691 158.258 191.52 159.079 191.52V192.624C159.037 192.624 158.994 192.624 158.951 192.624C158.909 192.613 158.866 192.608 158.823 192.608C157.938 192.608 157.245 192.88 156.743 193.424C156.242 193.957 155.991 194.72 155.991 195.712V200H154.855ZM165.785 200V188.128H166.921V200H165.785ZM175.506 200V198.144L175.458 197.84V194.736C175.458 194.021 175.255 193.472 174.85 193.088C174.455 192.704 173.863 192.512 173.074 192.512C172.53 192.512 172.012 192.603 171.522 192.784C171.031 192.965 170.615 193.205 170.274 193.504L169.762 192.656C170.188 192.293 170.7 192.016 171.298 191.824C171.895 191.621 172.524 191.52 173.186 191.52C174.274 191.52 175.111 191.792 175.698 192.336C176.295 192.869 176.594 193.685 176.594 194.784V200H175.506ZM172.61 200.08C171.98 200.08 171.431 199.979 170.962 199.776C170.503 199.563 170.151 199.275 169.906 198.912C169.66 198.539 169.538 198.112 169.538 197.632C169.538 197.195 169.639 196.8 169.842 196.448C170.055 196.085 170.396 195.797 170.866 195.584C171.346 195.36 171.986 195.248 172.786 195.248H175.682V196.096H172.818C172.007 196.096 171.442 196.24 171.122 196.528C170.812 196.816 170.658 197.173 170.658 197.6C170.658 198.08 170.844 198.464 171.218 198.752C171.591 199.04 172.114 199.184 172.786 199.184C173.426 199.184 173.975 199.04 174.434 198.752C174.903 198.453 175.244 198.027 175.458 197.472L175.714 198.256C175.5 198.811 175.127 199.253 174.594 199.584C174.071 199.915 173.41 200.08 172.61 200.08ZM179.839 200V191.6H180.975V200H179.839ZM180.415 189.744C180.18 189.744 179.983 189.664 179.823 189.504C179.663 189.344 179.583 189.152 179.583 188.928C179.583 188.704 179.663 188.517 179.823 188.368C179.983 188.208 180.18 188.128 180.415 188.128C180.65 188.128 180.847 188.203 181.007 188.352C181.167 188.501 181.247 188.688 181.247 188.912C181.247 189.147 181.167 189.344 181.007 189.504C180.858 189.664 180.66 189.744 180.415 189.744ZM188.584 191.52C189.267 191.52 189.864 191.653 190.376 191.92C190.899 192.176 191.304 192.571 191.592 193.104C191.891 193.637 192.04 194.309 192.04 195.12V200H190.904V195.232C190.904 194.347 190.68 193.68 190.232 193.232C189.795 192.773 189.176 192.544 188.376 192.544C187.779 192.544 187.256 192.667 186.808 192.912C186.371 193.147 186.029 193.493 185.784 193.952C185.549 194.4 185.432 194.944 185.432 195.584V200H184.296V191.6H185.384V193.904L185.208 193.472C185.475 192.864 185.901 192.389 186.488 192.048C187.075 191.696 187.773 191.52 188.584 191.52Z" fill="white"/>
<circle cx="40" cy="40" r="16" fill="#00FFAB"/>
<path fill-rule="evenodd" clip-rule="evenodd" d="M48.3991 37.146L49.1193 37.866C49.6895 38.426 49.9996 39.186 49.9996 39.986C50.0096 40.786 49.6995 41.547 49.1393 42.116C49.1327 42.1233 49.126 42.1298 49.1193 42.1362C49.116 42.1394 49.1127 42.1427 49.1093 42.146L48.3991 42.856C48.119 43.136 47.9589 43.516 47.9589 43.917V44.946C47.9589 46.606 46.6084 47.957 44.9478 47.957H43.9174C43.5173 47.957 43.1372 48.116 42.8571 48.396L42.1368 49.116C41.5466 49.707 40.7763 49.996 40.006 49.996C39.2357 49.996 38.4655 49.707 37.8752 49.127L37.145 48.396C36.8649 48.116 36.4847 47.957 36.0846 47.957H35.0542C33.3936 47.957 32.0431 46.606 32.0431 44.946V43.917C32.0431 43.516 31.8831 43.136 31.603 42.846L30.8827 42.136C29.7123 40.967 29.7023 39.056 30.8727 37.877L31.603 37.146C31.8831 36.866 32.0431 36.486 32.0431 36.076V35.056C32.0431 33.396 33.3936 32.047 35.0542 32.047H36.0846C36.4847 32.047 36.8649 31.886 37.145 31.606L37.8652 30.886C39.0357 29.707 40.9464 29.707 42.1268 30.877L42.8571 31.606C43.1372 31.886 43.5173 32.047 43.9174 32.047H44.9478C46.6084 32.047 47.9589 33.396 47.9589 35.056V36.087C47.9589 36.486 48.119 36.866 48.3991 37.146ZM37.4251 43.446C37.6652 43.446 37.8853 43.356 38.0453 43.186L43.1872 38.047C43.5273 37.707 43.5273 37.146 43.1872 36.806C42.8471 36.467 42.2969 36.467 41.9567 36.806L36.8149 41.946C36.4747 42.286 36.4747 42.846 36.8149 43.186C36.9749 43.356 37.195 43.446 37.4251 43.446ZM41.6966 42.566C41.6966 43.056 42.0868 43.446 42.577 43.446C43.0571 43.446 43.4473 43.056 43.4473 42.566C43.4473 42.087 43.0571 41.696 42.577 41.696C42.0868 41.696 41.6966 42.087 41.6966 42.566ZM37.4351 36.556C37.9153 36.556 38.3054 36.946 38.3054 37.426C38.3054 37.917 37.9153 38.306 37.4351 38.306C36.9549 38.306 36.5548 37.917 36.5548 37.426C36.5548 36.946 36.9549 36.556 37.4351 36.556Z" fill="#100E6C"/>
</svg>
