<svg width="399" height="235" viewBox="0 0 399 235" fill="none" xmlns="http://www.w3.org/2000/svg">
<rect width="399" height="235" rx="24" fill="#009967"/>
<circle cx="40" cy="40" r="16" fill="#00FFAB"/>
<path fill-rule="evenodd" clip-rule="evenodd" d="M40 50.0001C34.48 50.0001 30 45.5301 30 40.0001C30 34.4801 34.48 30.0001 40 30.0001C45.53 30.0001 50 34.4801 50 40.0001C50 45.5301 45.53 50.0001 40 50.0001ZM43.19 43.7101C43.31 43.7801 43.44 43.8201 43.58 43.8201C43.83 43.8201 44.08 43.6901 44.22 43.4501C44.43 43.1001 44.32 42.6401 43.96 42.4201L40.4 40.3001V35.6801C40.4 35.2601 40.06 34.9301 39.65 34.9301C39.24 34.9301 38.9 35.2601 38.9 35.6801V40.7301C38.9 40.9901 39.04 41.2301 39.27 41.3701L43.19 43.7101Z" fill="#100E6C"/>
<path d="M25.992 93V76.2H29.88V89.832H38.304V93H25.992ZM48.4661 93V90.48L48.2261 89.928V85.416C48.2261 84.616 47.9781 83.992 47.4821 83.544C47.0021 83.096 46.2581 82.872 45.2501 82.872C44.5621 82.872 43.8821 82.984 43.2101 83.208C42.5541 83.416 41.9941 83.704 41.5301 84.072L40.1861 81.456C40.8901 80.96 41.7381 80.576 42.7301 80.304C43.7221 80.032 44.7301 79.896 45.7541 79.896C47.7221 79.896 49.2501 80.36 50.3381 81.288C51.4261 82.216 51.9701 83.664 51.9701 85.632V93H48.4661ZM44.5301 93.192C43.5221 93.192 42.6581 93.024 41.9381 92.688C41.2181 92.336 40.6661 91.864 40.2821 91.272C39.8981 90.68 39.7061 90.016 39.7061 89.28C39.7061 88.512 39.8901 87.84 40.2581 87.264C40.6421 86.688 41.2421 86.24 42.0581 85.92C42.8741 85.584 43.9381 85.416 45.2501 85.416H48.6821V87.6H45.6581C44.7781 87.6 44.1701 87.744 43.8341 88.032C43.5141 88.32 43.3541 88.68 43.3541 89.112C43.3541 89.592 43.5381 89.976 43.9061 90.264C44.2901 90.536 44.8101 90.672 45.4661 90.672C46.0901 90.672 46.6501 90.528 47.1461 90.24C47.6421 89.936 48.0021 89.496 48.2261 88.92L48.8021 90.648C48.5301 91.48 48.0341 92.112 47.3141 92.544C46.5941 92.976 45.6661 93.192 44.5301 93.192ZM56.9962 97.848C56.3242 97.848 55.6602 97.744 55.0042 97.536C54.3482 97.328 53.8122 97.04 53.3962 96.672L54.7642 94.008C55.0522 94.264 55.3802 94.464 55.7482 94.608C56.1322 94.752 56.5082 94.824 56.8762 94.824C57.4042 94.824 57.8202 94.696 58.1242 94.44C58.4442 94.2 58.7322 93.792 58.9882 93.216L59.6602 91.632L59.9482 91.224L64.5803 80.088H68.1802L62.3482 93.792C61.9322 94.832 61.4522 95.648 60.9082 96.24C60.3802 96.832 59.7882 97.248 59.1322 97.488C58.4922 97.728 57.7802 97.848 56.9962 97.848ZM59.2042 93.504L53.4442 80.088H57.3082L61.7722 90.888L59.2042 93.504ZM77.4461 93V90.48L77.2061 89.928V85.416C77.2061 84.616 76.9581 83.992 76.4621 83.544C75.9821 83.096 75.2381 82.872 74.2301 82.872C73.5421 82.872 72.8621 82.984 72.1901 83.208C71.5341 83.416 70.9741 83.704 70.5101 84.072L69.1661 81.456C69.8701 80.96 70.7181 80.576 71.7101 80.304C72.7021 80.032 73.7101 79.896 74.7341 79.896C76.7021 79.896 78.2301 80.36 79.3181 81.288C80.4061 82.216 80.9501 83.664 80.9501 85.632V93H77.4461ZM73.5101 93.192C72.5021 93.192 71.6381 93.024 70.9181 92.688C70.1981 92.336 69.6461 91.864 69.2621 91.272C68.8781 90.68 68.6861 90.016 68.6861 89.28C68.6861 88.512 68.8701 87.84 69.2381 87.264C69.6221 86.688 70.2221 86.24 71.0381 85.92C71.8541 85.584 72.9181 85.416 74.2301 85.416H77.6621V87.6H74.6381C73.7581 87.6 73.1501 87.744 72.8141 88.032C72.4941 88.32 72.3341 88.68 72.3341 89.112C72.3341 89.592 72.5181 89.976 72.8861 90.264C73.2701 90.536 73.7901 90.672 74.4461 90.672C75.0701 90.672 75.6301 90.528 76.1261 90.24C76.6221 89.936 76.9821 89.496 77.2061 88.92L77.7821 90.648C77.5101 91.48 77.0141 92.112 76.2941 92.544C75.5741 92.976 74.6461 93.192 73.5101 93.192ZM92.4266 79.896C93.4506 79.896 94.3626 80.104 95.1626 80.52C95.9786 80.92 96.6186 81.544 97.0826 82.392C97.5466 83.224 97.7786 84.296 97.7786 85.608V93H94.0346V86.184C94.0346 85.144 93.8026 84.376 93.3386 83.88C92.8906 83.384 92.2506 83.136 91.4186 83.136C90.8266 83.136 90.2906 83.264 89.8106 83.52C89.3466 83.76 88.9786 84.136 88.7066 84.648C88.4506 85.16 88.3226 85.816 88.3226 86.616V93H84.5786V80.088H88.1546V83.664L87.4826 82.584C87.9466 81.72 88.6106 81.056 89.4746 80.592C90.3386 80.128 91.3226 79.896 92.4266 79.896ZM109.332 93V90.48L109.092 89.928V85.416C109.092 84.616 108.844 83.992 108.348 83.544C107.868 83.096 107.124 82.872 106.116 82.872C105.428 82.872 104.748 82.984 104.076 83.208C103.42 83.416 102.86 83.704 102.396 84.072L101.052 81.456C101.756 80.96 102.604 80.576 103.596 80.304C104.588 80.032 105.596 79.896 106.62 79.896C108.588 79.896 110.116 80.36 111.204 81.288C112.292 82.216 112.836 83.664 112.836 85.632V93H109.332ZM105.396 93.192C104.388 93.192 103.524 93.024 102.804 92.688C102.084 92.336 101.532 91.864 101.148 91.272C100.764 90.68 100.572 90.016 100.572 89.28C100.572 88.512 100.756 87.84 101.124 87.264C101.508 86.688 102.108 86.24 102.924 85.92C103.74 85.584 104.804 85.416 106.116 85.416H109.548V87.6H106.524C105.644 87.6 105.036 87.744 104.7 88.032C104.38 88.32 104.22 88.68 104.22 89.112C104.22 89.592 104.404 89.976 104.772 90.264C105.156 90.536 105.676 90.672 106.332 90.672C106.956 90.672 107.516 90.528 108.012 90.24C108.508 89.936 108.868 89.496 109.092 88.92L109.668 90.648C109.396 91.48 108.9 92.112 108.18 92.544C107.46 92.976 106.532 93.192 105.396 93.192ZM124.313 79.896C125.337 79.896 126.249 80.104 127.049 80.52C127.865 80.92 128.505 81.544 128.969 82.392C129.433 83.224 129.665 84.296 129.665 85.608V93H125.921V86.184C125.921 85.144 125.689 84.376 125.225 83.88C124.777 83.384 124.137 83.136 123.305 83.136C122.713 83.136 122.177 83.264 121.697 83.52C121.233 83.76 120.865 84.136 120.593 84.648C120.337 85.16 120.209 85.816 120.209 86.616V93H116.465V80.088H120.041V83.664L119.369 82.584C119.833 81.72 120.497 81.056 121.361 80.592C122.225 80.128 123.209 79.896 124.313 79.896ZM139.399 93V90.48L145.879 84.36C146.391 83.896 146.767 83.48 147.007 83.112C147.247 82.744 147.407 82.408 147.487 82.104C147.583 81.8 147.631 81.52 147.631 81.264C147.631 80.592 147.399 80.08 146.935 79.728C146.487 79.36 145.823 79.176 144.943 79.176C144.239 79.176 143.583 79.312 142.975 79.584C142.383 79.856 141.879 80.28 141.463 80.856L138.631 79.032C139.271 78.072 140.167 77.312 141.319 76.752C142.471 76.192 143.799 75.912 145.303 75.912C146.551 75.912 147.639 76.12 148.567 76.536C149.511 76.936 150.239 77.504 150.751 78.24C151.279 78.976 151.543 79.856 151.543 80.88C151.543 81.424 151.471 81.968 151.327 82.512C151.199 83.04 150.927 83.6 150.511 84.192C150.111 84.784 149.519 85.448 148.735 86.184L143.359 91.248L142.615 89.832H152.095V93H139.399ZM153.49 89.472V86.856L161.41 76.2H165.49L157.738 86.856L155.842 86.304H169.066V89.472H153.49ZM162.538 93V89.472L162.658 86.304V83.16H166.33V93H162.538ZM181.658 93.288C180.522 93.288 179.474 93.08 178.514 92.664C177.57 92.232 176.794 91.624 176.186 90.84L178.346 88.248C178.81 88.856 179.298 89.32 179.81 89.64C180.322 89.944 180.874 90.096 181.466 90.096C183.05 90.096 183.842 89.168 183.842 87.312V79.32H177.938V76.2H187.706V87.096C187.706 89.176 187.194 90.728 186.17 91.752C185.146 92.776 183.642 93.288 181.658 93.288ZM199.442 93V90.48L199.202 89.928V85.416C199.202 84.616 198.954 83.992 198.458 83.544C197.978 83.096 197.234 82.872 196.226 82.872C195.538 82.872 194.858 82.984 194.186 83.208C193.53 83.416 192.97 83.704 192.506 84.072L191.162 81.456C191.866 80.96 192.714 80.576 193.706 80.304C194.698 80.032 195.706 79.896 196.73 79.896C198.698 79.896 200.226 80.36 201.314 81.288C202.402 82.216 202.946 83.664 202.946 85.632V93H199.442ZM195.506 93.192C194.498 93.192 193.634 93.024 192.914 92.688C192.194 92.336 191.642 91.864 191.258 91.272C190.874 90.68 190.682 90.016 190.682 89.28C190.682 88.512 190.866 87.84 191.234 87.264C191.618 86.688 192.218 86.24 193.034 85.92C193.85 85.584 194.914 85.416 196.226 85.416H199.658V87.6H196.634C195.754 87.6 195.146 87.744 194.81 88.032C194.49 88.32 194.33 88.68 194.33 89.112C194.33 89.592 194.514 89.976 194.882 90.264C195.266 90.536 195.786 90.672 196.442 90.672C197.066 90.672 197.626 90.528 198.122 90.24C198.618 89.936 198.978 89.496 199.202 88.92L199.778 90.648C199.506 91.48 199.01 92.112 198.29 92.544C197.57 92.976 196.642 93.192 195.506 93.192ZM223.111 79.896C224.135 79.896 225.039 80.104 225.823 80.52C226.623 80.92 227.247 81.544 227.695 82.392C228.159 83.224 228.391 84.296 228.391 85.608V93H224.647V86.184C224.647 85.144 224.431 84.376 223.999 83.88C223.567 83.384 222.959 83.136 222.175 83.136C221.631 83.136 221.143 83.264 220.711 83.52C220.279 83.76 219.943 84.128 219.703 84.624C219.463 85.12 219.343 85.752 219.343 86.52V93H215.599V86.184C215.599 85.144 215.383 84.376 214.951 83.88C214.535 83.384 213.935 83.136 213.151 83.136C212.607 83.136 212.119 83.264 211.687 83.52C211.255 83.76 210.919 84.128 210.679 84.624C210.439 85.12 210.319 85.752 210.319 86.52V93H206.575V80.088H210.151V83.616L209.479 82.584C209.927 81.704 210.559 81.04 211.375 80.592C212.207 80.128 213.151 79.896 214.207 79.896C215.391 79.896 216.423 80.2 217.303 80.808C218.199 81.4 218.791 82.312 219.079 83.544L217.759 83.184C218.191 82.176 218.879 81.376 219.823 80.784C220.783 80.192 221.879 79.896 223.111 79.896ZM239.8 78.504L236.608 80.256V79.632L239.8 81.36L238.624 83.328L235.648 81.552L235.984 81.336L236.032 84.672H233.776L233.8 81.336L234.136 81.552L231.16 83.328L230.008 81.36L233.2 79.632V80.256L230.008 78.504L231.16 76.536L234.136 78.336L233.8 78.528L233.776 75.192H236.032L235.984 78.528L235.648 78.336L238.624 76.536L239.8 78.504Z" fill="white"/>
<path d="M26.848 130.216L26.8 128.776L33.584 121.8H34.944L30 126.984L29.328 127.704L26.848 130.216ZM25.824 133V121.8H27.008V133H25.824ZM33.872 133L29.04 127.432L29.84 126.568L35.28 133H33.872ZM42.1643 133V131.144L42.1163 130.84V127.736C42.1163 127.021 41.9136 126.472 41.5083 126.088C41.1136 125.704 40.5216 125.512 39.7323 125.512C39.1883 125.512 38.6709 125.603 38.1802 125.784C37.6896 125.965 37.2736 126.205 36.9322 126.504L36.4202 125.656C36.8469 125.293 37.3589 125.016 37.9562 124.824C38.5536 124.621 39.1829 124.52 39.8443 124.52C40.9323 124.52 41.7696 124.792 42.3563 125.336C42.9536 125.869 43.2523 126.685 43.2523 127.784V133H42.1643ZM39.2682 133.08C38.6389 133.08 38.0896 132.979 37.6202 132.776C37.1616 132.563 36.8096 132.275 36.5642 131.912C36.3189 131.539 36.1962 131.112 36.1962 130.632C36.1962 130.195 36.2976 129.8 36.5002 129.448C36.7136 129.085 37.0549 128.797 37.5243 128.584C38.0043 128.36 38.6443 128.248 39.4443 128.248H42.3403V129.096H39.4763C38.6656 129.096 38.1003 129.24 37.7803 129.528C37.4709 129.816 37.3162 130.173 37.3162 130.6C37.3162 131.08 37.5029 131.464 37.8763 131.752C38.2496 132.04 38.7723 132.184 39.4443 132.184C40.0843 132.184 40.6336 132.04 41.0923 131.752C41.5616 131.453 41.9029 131.027 42.1163 130.472L42.3723 131.256C42.1589 131.811 41.7856 132.253 41.2523 132.584C40.7296 132.915 40.0683 133.08 39.2682 133.08ZM56.9938 124.52C57.6764 124.52 58.2684 124.653 58.7698 124.92C59.2818 125.176 59.6764 125.571 59.9538 126.104C60.2418 126.637 60.3858 127.309 60.3858 128.12V133H59.2498V128.232C59.2498 127.347 59.0364 126.68 58.6098 126.232C58.1938 125.773 57.6018 125.544 56.8338 125.544C56.2578 125.544 55.7564 125.667 55.3298 125.912C54.9138 126.147 54.5884 126.493 54.3538 126.952C54.1297 127.4 54.0177 127.944 54.0177 128.584V133H52.8818V128.232C52.8818 127.347 52.6684 126.68 52.2418 126.232C51.8151 125.773 51.2177 125.544 50.4497 125.544C49.8844 125.544 49.3884 125.667 48.9618 125.912C48.5351 126.147 48.2044 126.493 47.9697 126.952C47.7457 127.4 47.6337 127.944 47.6337 128.584V133H46.4977V124.6H47.5857V126.872L47.4097 126.472C47.6657 125.864 48.0764 125.389 48.6417 125.048C49.2177 124.696 49.8951 124.52 50.6737 124.52C51.4951 124.52 52.1937 124.728 52.7698 125.144C53.3458 125.549 53.7191 126.163 53.8898 126.984L53.4418 126.808C53.6871 126.125 54.1191 125.576 54.7378 125.16C55.3671 124.733 56.1191 124.52 56.9938 124.52ZM63.6265 133V124.6H64.7625V133H63.6265ZM64.2025 122.744C63.9678 122.744 63.7705 122.664 63.6105 122.504C63.4505 122.344 63.3705 122.152 63.3705 121.928C63.3705 121.704 63.4505 121.517 63.6105 121.368C63.7705 121.208 63.9678 121.128 64.2025 121.128C64.4372 121.128 64.6345 121.203 64.7945 121.352C64.9545 121.501 65.0345 121.688 65.0345 121.912C65.0345 122.147 64.9545 122.344 64.7945 122.504C64.6452 122.664 64.4478 122.744 64.2025 122.744ZM74.6869 133.08C73.9935 133.08 73.3375 132.984 72.7189 132.792C72.1002 132.589 71.6149 132.339 71.2629 132.04L71.7749 131.144C72.1162 131.4 72.5535 131.624 73.0869 131.816C73.6202 131.997 74.1802 132.088 74.7669 132.088C75.5669 132.088 76.1429 131.965 76.4949 131.72C76.8469 131.464 77.0229 131.128 77.0229 130.712C77.0229 130.403 76.9215 130.163 76.7189 129.992C76.5269 129.811 76.2709 129.677 75.9509 129.592C75.6309 129.496 75.2735 129.416 74.8789 129.352C74.4842 129.288 74.0895 129.213 73.6949 129.128C73.3109 129.043 72.9589 128.92 72.6389 128.76C72.3189 128.589 72.0575 128.36 71.8549 128.072C71.6629 127.784 71.5669 127.4 71.5669 126.92C71.5669 126.461 71.6949 126.051 71.9509 125.688C72.2069 125.325 72.5802 125.043 73.0709 124.84C73.5722 124.627 74.1802 124.52 74.8949 124.52C75.4389 124.52 75.9829 124.595 76.5269 124.744C77.0709 124.883 77.5189 125.069 77.8709 125.304L77.3749 126.216C77.0015 125.96 76.6015 125.779 76.1749 125.672C75.7482 125.555 75.3215 125.496 74.8949 125.496C74.1375 125.496 73.5775 125.629 73.2149 125.896C72.8629 126.152 72.6869 126.483 72.6869 126.888C72.6869 127.208 72.7829 127.459 72.9749 127.64C73.1775 127.821 73.4389 127.965 73.7589 128.072C74.0895 128.168 74.4469 128.248 74.8309 128.312C75.2255 128.376 75.6149 128.456 75.9989 128.552C76.3935 128.637 76.7509 128.76 77.0709 128.92C77.4015 129.069 77.6629 129.288 77.8549 129.576C78.0575 129.853 78.1589 130.221 78.1589 130.68C78.1589 131.171 78.0202 131.597 77.7429 131.96C77.4762 132.312 77.0815 132.589 76.5589 132.792C76.0469 132.984 75.4229 133.08 74.6869 133.08ZM83.9714 133.08C83.0967 133.08 82.3287 132.899 81.6674 132.536C81.006 132.163 80.4887 131.656 80.1154 131.016C79.742 130.365 79.5554 129.624 79.5554 128.792C79.5554 127.96 79.7314 127.224 80.0834 126.584C80.446 125.944 80.9367 125.443 81.5554 125.08C82.1847 124.707 82.8887 124.52 83.6674 124.52C84.4567 124.52 85.1554 124.701 85.7634 125.064C86.382 125.416 86.8674 125.917 87.2194 126.568C87.5714 127.208 87.7474 127.949 87.7474 128.792C87.7474 128.845 87.742 128.904 87.7314 128.968C87.7314 129.021 87.7314 129.08 87.7314 129.144H80.4194V128.296H87.1234L86.6754 128.632C86.6754 128.024 86.542 127.485 86.2754 127.016C86.0194 126.536 85.6674 126.163 85.2194 125.896C84.7714 125.629 84.254 125.496 83.6674 125.496C83.0914 125.496 82.574 125.629 82.1154 125.896C81.6567 126.163 81.2994 126.536 81.0434 127.016C80.7874 127.496 80.6594 128.045 80.6594 128.664V128.84C80.6594 129.48 80.798 130.045 81.0754 130.536C81.3634 131.016 81.758 131.395 82.2594 131.672C82.7714 131.939 83.3527 132.072 84.0034 132.072C84.5154 132.072 84.99 131.981 85.4274 131.8C85.8754 131.619 86.2594 131.341 86.5794 130.968L87.2194 131.704C86.846 132.152 86.3767 132.493 85.8114 132.728C85.2567 132.963 84.6434 133.08 83.9714 133.08ZM90.2196 133V121.128H91.3556V133H90.2196ZM99.9405 133V131.144L99.8925 130.84V127.736C99.8925 127.021 99.6898 126.472 99.2845 126.088C98.8898 125.704 98.2978 125.512 97.5085 125.512C96.9645 125.512 96.4472 125.603 95.9565 125.784C95.4658 125.965 95.0498 126.205 94.7085 126.504L94.1965 125.656C94.6232 125.293 95.1352 125.016 95.7325 124.824C96.3298 124.621 96.9592 124.52 97.6205 124.52C98.7085 124.52 99.5458 124.792 100.132 125.336C100.73 125.869 101.028 126.685 101.028 127.784V133H99.9405ZM97.0445 133.08C96.4152 133.08 95.8658 132.979 95.3965 132.776C94.9378 132.563 94.5858 132.275 94.3405 131.912C94.0952 131.539 93.9725 131.112 93.9725 130.632C93.9725 130.195 94.0738 129.8 94.2765 129.448C94.4898 129.085 94.8312 128.797 95.3005 128.584C95.7805 128.36 96.4205 128.248 97.2205 128.248H100.116V129.096H97.2525C96.4418 129.096 95.8765 129.24 95.5565 129.528C95.2472 129.816 95.0925 130.173 95.0925 130.6C95.0925 131.08 95.2792 131.464 95.6525 131.752C96.0258 132.04 96.5485 132.184 97.2205 132.184C97.8605 132.184 98.4098 132.04 98.8685 131.752C99.3378 131.453 99.6792 131.027 99.8925 130.472L100.148 131.256C99.9352 131.811 99.5618 132.253 99.0285 132.584C98.5058 132.915 97.8445 133.08 97.0445 133.08ZM104.274 133V121.128H105.41V133H104.274ZM112.203 133.08C111.488 133.08 110.864 132.947 110.331 132.68C109.798 132.413 109.382 132.013 109.083 131.48C108.795 130.947 108.651 130.28 108.651 129.48V124.6H109.787V129.352C109.787 130.248 110.006 130.925 110.443 131.384C110.891 131.832 111.515 132.056 112.315 132.056C112.902 132.056 113.408 131.939 113.835 131.704C114.272 131.459 114.603 131.107 114.827 130.648C115.062 130.189 115.179 129.64 115.179 129V124.6H116.315V133H115.227V130.696L115.403 131.112C115.136 131.731 114.72 132.216 114.155 132.568C113.6 132.909 112.95 133.08 112.203 133.08ZM126.244 133.08C125.551 133.08 124.895 132.984 124.276 132.792C123.658 132.589 123.172 132.339 122.82 132.04L123.332 131.144C123.674 131.4 124.111 131.624 124.644 131.816C125.178 131.997 125.738 132.088 126.324 132.088C127.124 132.088 127.7 131.965 128.052 131.72C128.404 131.464 128.58 131.128 128.58 130.712C128.58 130.403 128.479 130.163 128.276 129.992C128.084 129.811 127.828 129.677 127.508 129.592C127.188 129.496 126.831 129.416 126.436 129.352C126.042 129.288 125.647 129.213 125.252 129.128C124.868 129.043 124.516 128.92 124.196 128.76C123.876 128.589 123.615 128.36 123.412 128.072C123.22 127.784 123.124 127.4 123.124 126.92C123.124 126.461 123.252 126.051 123.508 125.688C123.764 125.325 124.138 125.043 124.628 124.84C125.13 124.627 125.738 124.52 126.452 124.52C126.996 124.52 127.54 124.595 128.084 124.744C128.628 124.883 129.076 125.069 129.428 125.304L128.932 126.216C128.559 125.96 128.159 125.779 127.732 125.672C127.306 125.555 126.879 125.496 126.452 125.496C125.695 125.496 125.135 125.629 124.772 125.896C124.42 126.152 124.244 126.483 124.244 126.888C124.244 127.208 124.34 127.459 124.532 127.64C124.735 127.821 124.996 127.965 125.316 128.072C125.647 128.168 126.004 128.248 126.388 128.312C126.783 128.376 127.172 128.456 127.556 128.552C127.951 128.637 128.308 128.76 128.628 128.92C128.959 129.069 129.22 129.288 129.412 129.576C129.615 129.853 129.716 130.221 129.716 130.68C129.716 131.171 129.578 131.597 129.3 131.96C129.034 132.312 128.639 132.589 128.116 132.792C127.604 132.984 126.98 133.08 126.244 133.08ZM131.961 133V124.6H133.097V133H131.961ZM132.537 122.744C132.302 122.744 132.105 122.664 131.945 122.504C131.785 122.344 131.705 122.152 131.705 121.928C131.705 121.704 131.785 121.517 131.945 121.368C132.105 121.208 132.302 121.128 132.537 121.128C132.772 121.128 132.969 121.203 133.129 121.352C133.289 121.501 133.369 121.688 133.369 121.912C133.369 122.147 133.289 122.344 133.129 122.504C132.98 122.664 132.782 122.744 132.537 122.744ZM141.682 133V131.144L141.634 130.84V127.736C141.634 127.021 141.431 126.472 141.026 126.088C140.631 125.704 140.039 125.512 139.25 125.512C138.706 125.512 138.188 125.603 137.698 125.784C137.207 125.965 136.791 126.205 136.45 126.504L135.938 125.656C136.364 125.293 136.876 125.016 137.474 124.824C138.071 124.621 138.7 124.52 139.362 124.52C140.45 124.52 141.287 124.792 141.874 125.336C142.471 125.869 142.77 126.685 142.77 127.784V133H141.682ZM138.786 133.08C138.156 133.08 137.607 132.979 137.138 132.776C136.679 132.563 136.327 132.275 136.082 131.912C135.836 131.539 135.714 131.112 135.714 130.632C135.714 130.195 135.815 129.8 136.018 129.448C136.231 129.085 136.572 128.797 137.042 128.584C137.522 128.36 138.162 128.248 138.962 128.248H141.858V129.096H138.994C138.183 129.096 137.618 129.24 137.298 129.528C136.988 129.816 136.834 130.173 136.834 130.6C136.834 131.08 137.02 131.464 137.394 131.752C137.767 132.04 138.29 132.184 138.962 132.184C139.602 132.184 140.151 132.04 140.61 131.752C141.079 131.453 141.42 131.027 141.634 130.472L141.89 131.256C141.676 131.811 141.303 132.253 140.77 132.584C140.247 132.915 139.586 133.08 138.786 133.08ZM150.351 133.08C149.626 133.08 148.97 132.915 148.383 132.584C147.797 132.243 147.327 131.757 146.975 131.128C146.634 130.488 146.463 129.709 146.463 128.792C146.463 127.875 146.634 127.101 146.975 126.472C147.317 125.832 147.781 125.347 148.367 125.016C148.954 124.685 149.615 124.52 150.351 124.52C151.151 124.52 151.866 124.701 152.495 125.064C153.135 125.416 153.637 125.917 153.999 126.568C154.362 127.208 154.543 127.949 154.543 128.792C154.543 129.645 154.362 130.392 153.999 131.032C153.637 131.672 153.135 132.173 152.495 132.536C151.866 132.899 151.151 133.08 150.351 133.08ZM146.015 136.104V124.6H147.103V127.128L146.991 128.808L147.151 130.504V136.104H146.015ZM150.271 132.072C150.869 132.072 151.402 131.939 151.871 131.672C152.341 131.395 152.714 131.011 152.991 130.52C153.269 130.019 153.407 129.443 153.407 128.792C153.407 128.141 153.269 127.571 152.991 127.08C152.714 126.589 152.341 126.205 151.871 125.928C151.402 125.651 150.869 125.512 150.271 125.512C149.674 125.512 149.135 125.651 148.655 125.928C148.186 126.205 147.813 126.589 147.535 127.08C147.269 127.571 147.135 128.141 147.135 128.792C147.135 129.443 147.269 130.019 147.535 130.52C147.813 131.011 148.186 131.395 148.655 131.672C149.135 131.939 149.674 132.072 150.271 132.072ZM171.863 124.52C172.545 124.52 173.137 124.653 173.639 124.92C174.151 125.176 174.545 125.571 174.823 126.104C175.111 126.637 175.255 127.309 175.255 128.12V133H174.119V128.232C174.119 127.347 173.905 126.68 173.479 126.232C173.063 125.773 172.471 125.544 171.703 125.544C171.127 125.544 170.625 125.667 170.199 125.912C169.783 126.147 169.457 126.493 169.223 126.952C168.999 127.4 168.887 127.944 168.887 128.584V133H167.751V128.232C167.751 127.347 167.537 126.68 167.111 126.232C166.684 125.773 166.087 125.544 165.319 125.544C164.753 125.544 164.257 125.667 163.831 125.912C163.404 126.147 163.073 126.493 162.839 126.952C162.615 127.4 162.503 127.944 162.503 128.584V133H161.367V124.6H162.455V126.872L162.279 126.472C162.535 125.864 162.945 125.389 163.511 125.048C164.087 124.696 164.764 124.52 165.543 124.52C166.364 124.52 167.063 124.728 167.639 125.144C168.215 125.549 168.588 126.163 168.759 126.984L168.311 126.808C168.556 126.125 168.988 125.576 169.607 125.16C170.236 124.733 170.988 124.52 171.863 124.52ZM182.063 133.08C181.189 133.08 180.421 132.899 179.759 132.536C179.098 132.163 178.581 131.656 178.207 131.016C177.834 130.365 177.647 129.624 177.647 128.792C177.647 127.96 177.823 127.224 178.175 126.584C178.538 125.944 179.029 125.443 179.647 125.08C180.277 124.707 180.981 124.52 181.759 124.52C182.549 124.52 183.247 124.701 183.855 125.064C184.474 125.416 184.959 125.917 185.311 126.568C185.663 127.208 185.839 127.949 185.839 128.792C185.839 128.845 185.834 128.904 185.823 128.968C185.823 129.021 185.823 129.08 185.823 129.144H178.511V128.296H185.215L184.767 128.632C184.767 128.024 184.634 127.485 184.367 127.016C184.111 126.536 183.759 126.163 183.311 125.896C182.863 125.629 182.346 125.496 181.759 125.496C181.183 125.496 180.666 125.629 180.207 125.896C179.749 126.163 179.391 126.536 179.135 127.016C178.879 127.496 178.751 128.045 178.751 128.664V128.84C178.751 129.48 178.89 130.045 179.167 130.536C179.455 131.016 179.85 131.395 180.351 131.672C180.863 131.939 181.445 132.072 182.095 132.072C182.607 132.072 183.082 131.981 183.519 131.8C183.967 131.619 184.351 131.341 184.671 130.968L185.311 131.704C184.938 132.152 184.469 132.493 183.903 132.728C183.349 132.963 182.735 133.08 182.063 133.08ZM188.311 133V121.128H189.447V133H188.311ZM198.032 133V131.144L197.984 130.84V127.736C197.984 127.021 197.782 126.472 197.376 126.088C196.982 125.704 196.39 125.512 195.6 125.512C195.056 125.512 194.539 125.603 194.048 125.784C193.558 125.965 193.142 126.205 192.8 126.504L192.288 125.656C192.715 125.293 193.227 125.016 193.824 124.824C194.422 124.621 195.051 124.52 195.712 124.52C196.8 124.52 197.638 124.792 198.224 125.336C198.822 125.869 199.12 126.685 199.12 127.784V133H198.032ZM195.136 133.08C194.507 133.08 193.958 132.979 193.488 132.776C193.03 132.563 192.678 132.275 192.432 131.912C192.187 131.539 192.064 131.112 192.064 130.632C192.064 130.195 192.166 129.8 192.368 129.448C192.582 129.085 192.923 128.797 193.392 128.584C193.872 128.36 194.512 128.248 195.312 128.248H198.208V129.096H195.344C194.534 129.096 193.968 129.24 193.648 129.528C193.339 129.816 193.184 130.173 193.184 130.6C193.184 131.08 193.371 131.464 193.744 131.752C194.118 132.04 194.64 132.184 195.312 132.184C195.952 132.184 196.502 132.04 196.96 131.752C197.43 131.453 197.771 131.027 197.984 130.472L198.24 131.256C198.027 131.811 197.654 132.253 197.12 132.584C196.598 132.915 195.936 133.08 195.136 133.08ZM202.274 136.184C201.879 136.184 201.5 136.12 201.138 135.992C200.786 135.864 200.482 135.672 200.226 135.416L200.754 134.568C200.967 134.771 201.196 134.925 201.442 135.032C201.698 135.149 201.98 135.208 202.29 135.208C202.663 135.208 202.983 135.101 203.25 134.888C203.527 134.685 203.788 134.323 204.034 133.8L204.578 132.568L204.706 132.392L208.162 124.6H209.282L205.074 134.008C204.839 134.552 204.578 134.984 204.29 135.304C204.012 135.624 203.708 135.848 203.378 135.976C203.047 136.115 202.679 136.184 202.274 136.184ZM204.514 133.24L200.642 124.6H201.826L205.25 132.312L204.514 133.24ZM216.056 133V131.144L216.008 130.84V127.736C216.008 127.021 215.805 126.472 215.4 126.088C215.005 125.704 214.413 125.512 213.624 125.512C213.08 125.512 212.562 125.603 212.072 125.784C211.581 125.965 211.165 126.205 210.824 126.504L210.312 125.656C210.738 125.293 211.25 125.016 211.848 124.824C212.445 124.621 213.074 124.52 213.736 124.52C214.824 124.52 215.661 124.792 216.248 125.336C216.845 125.869 217.144 126.685 217.144 127.784V133H216.056ZM213.16 133.08C212.53 133.08 211.981 132.979 211.512 132.776C211.053 132.563 210.701 132.275 210.456 131.912C210.21 131.539 210.088 131.112 210.088 130.632C210.088 130.195 210.189 129.8 210.392 129.448C210.605 129.085 210.946 128.797 211.416 128.584C211.896 128.36 212.536 128.248 213.336 128.248H216.232V129.096H213.368C212.557 129.096 211.992 129.24 211.672 129.528C211.362 129.816 211.208 130.173 211.208 130.6C211.208 131.08 211.394 131.464 211.768 131.752C212.141 132.04 212.664 132.184 213.336 132.184C213.976 132.184 214.525 132.04 214.984 131.752C215.453 131.453 215.794 131.027 216.008 130.472L216.264 131.256C216.05 131.811 215.677 132.253 215.144 132.584C214.621 132.915 213.96 133.08 213.16 133.08ZM224.677 124.52C225.36 124.52 225.957 124.653 226.469 124.92C226.992 125.176 227.397 125.571 227.685 126.104C227.984 126.637 228.133 127.309 228.133 128.12V133H226.997V128.232C226.997 127.347 226.773 126.68 226.325 126.232C225.888 125.773 225.269 125.544 224.469 125.544C223.872 125.544 223.349 125.667 222.901 125.912C222.464 126.147 222.122 126.493 221.877 126.952C221.642 127.4 221.525 127.944 221.525 128.584V133H220.389V124.6H221.477V126.904L221.301 126.472C221.568 125.864 221.994 125.389 222.581 125.048C223.168 124.696 223.866 124.52 224.677 124.52ZM231.361 133V124.6H232.497V133H231.361ZM231.937 122.744C231.703 122.744 231.505 122.664 231.345 122.504C231.185 122.344 231.105 122.152 231.105 121.928C231.105 121.704 231.185 121.517 231.345 121.368C231.505 121.208 231.703 121.128 231.937 121.128C232.172 121.128 232.369 121.203 232.529 121.352C232.689 121.501 232.769 121.688 232.769 121.912C232.769 122.147 232.689 122.344 232.529 122.504C232.38 122.664 232.183 122.744 231.937 122.744ZM243.51 133.08C242.71 133.08 241.99 132.899 241.35 132.536C240.721 132.173 240.225 131.672 239.862 131.032C239.499 130.381 239.318 129.635 239.318 128.792C239.318 127.939 239.499 127.192 239.862 126.552C240.225 125.912 240.721 125.416 241.35 125.064C241.99 124.701 242.71 124.52 243.51 124.52C244.246 124.52 244.902 124.685 245.478 125.016C246.065 125.347 246.529 125.832 246.87 126.472C247.222 127.101 247.398 127.875 247.398 128.792C247.398 129.699 247.227 130.472 246.886 131.112C246.545 131.752 246.081 132.243 245.494 132.584C244.918 132.915 244.257 133.08 243.51 133.08ZM243.59 132.072C244.187 132.072 244.721 131.939 245.19 131.672C245.67 131.395 246.043 131.011 246.31 130.52C246.587 130.019 246.726 129.443 246.726 128.792C246.726 128.131 246.587 127.555 246.31 127.064C246.043 126.573 245.67 126.195 245.19 125.928C244.721 125.651 244.187 125.512 243.59 125.512C243.003 125.512 242.475 125.651 242.006 125.928C241.537 126.195 241.163 126.573 240.886 127.064C240.609 127.555 240.47 128.131 240.47 128.792C240.47 129.443 240.609 130.019 240.886 130.52C241.163 131.011 241.537 131.395 242.006 131.672C242.475 131.939 243.003 132.072 243.59 132.072ZM246.758 133V130.472L246.87 128.776L246.71 127.08V121.128H247.846V133H246.758ZM254.738 133.08C253.863 133.08 253.095 132.899 252.434 132.536C251.772 132.163 251.255 131.656 250.882 131.016C250.508 130.365 250.322 129.624 250.322 128.792C250.322 127.96 250.498 127.224 250.85 126.584C251.212 125.944 251.703 125.443 252.322 125.08C252.951 124.707 253.655 124.52 254.434 124.52C255.223 124.52 255.922 124.701 256.53 125.064C257.148 125.416 257.634 125.917 257.986 126.568C258.338 127.208 258.514 127.949 258.514 128.792C258.514 128.845 258.508 128.904 258.498 128.968C258.498 129.021 258.498 129.08 258.498 129.144H251.186V128.296H257.89L257.442 128.632C257.442 128.024 257.308 127.485 257.042 127.016C256.786 126.536 256.434 126.163 255.986 125.896C255.538 125.629 255.02 125.496 254.434 125.496C253.858 125.496 253.34 125.629 252.882 125.896C252.423 126.163 252.066 126.536 251.81 127.016C251.554 127.496 251.426 128.045 251.426 128.664V128.84C251.426 129.48 251.564 130.045 251.842 130.536C252.13 131.016 252.524 131.395 253.026 131.672C253.538 131.939 254.119 132.072 254.77 132.072C255.282 132.072 255.756 131.981 256.194 131.8C256.642 131.619 257.026 131.341 257.346 130.968L257.986 131.704C257.612 132.152 257.143 132.493 256.578 132.728C256.023 132.963 255.41 133.08 254.738 133.08ZM265.274 124.52C265.957 124.52 266.554 124.653 267.066 124.92C267.589 125.176 267.994 125.571 268.282 126.104C268.581 126.637 268.73 127.309 268.73 128.12V133H267.594V128.232C267.594 127.347 267.37 126.68 266.922 126.232C266.485 125.773 265.866 125.544 265.066 125.544C264.469 125.544 263.946 125.667 263.498 125.912C263.061 126.147 262.719 126.493 262.474 126.952C262.239 127.4 262.122 127.944 262.122 128.584V133H260.986V124.6H262.074V126.904L261.898 126.472C262.165 125.864 262.591 125.389 263.178 125.048C263.765 124.696 264.463 124.52 265.274 124.52ZM275.542 136.184C274.774 136.184 274.038 136.072 273.334 135.848C272.63 135.624 272.06 135.304 271.622 134.888L272.198 134.024C272.593 134.376 273.078 134.653 273.654 134.856C274.241 135.069 274.86 135.176 275.51 135.176C276.577 135.176 277.361 134.925 277.862 134.424C278.364 133.933 278.614 133.165 278.614 132.12V130.024L278.774 128.584L278.662 127.144V124.6H279.75V131.976C279.75 133.427 279.393 134.488 278.678 135.16C277.974 135.843 276.929 136.184 275.542 136.184ZM275.334 132.68C274.534 132.68 273.814 132.509 273.174 132.168C272.534 131.816 272.028 131.331 271.654 130.712C271.292 130.093 271.11 129.384 271.11 128.584C271.11 127.784 271.292 127.08 271.654 126.472C272.028 125.853 272.534 125.373 273.174 125.032C273.814 124.691 274.534 124.52 275.334 124.52C276.081 124.52 276.753 124.675 277.35 124.984C277.948 125.293 278.422 125.752 278.774 126.36C279.126 126.968 279.302 127.709 279.302 128.584C279.302 129.459 279.126 130.2 278.774 130.808C278.422 131.416 277.948 131.88 277.35 132.2C276.753 132.52 276.081 132.68 275.334 132.68ZM275.446 131.672C276.065 131.672 276.614 131.544 277.094 131.288C277.574 131.021 277.953 130.659 278.23 130.2C278.508 129.731 278.646 129.192 278.646 128.584C278.646 127.976 278.508 127.443 278.23 126.984C277.953 126.525 277.574 126.168 277.094 125.912C276.614 125.645 276.065 125.512 275.446 125.512C274.838 125.512 274.289 125.645 273.798 125.912C273.318 126.168 272.94 126.525 272.662 126.984C272.396 127.443 272.262 127.976 272.262 128.584C272.262 129.192 272.396 129.731 272.662 130.2C272.94 130.659 273.318 131.021 273.798 131.288C274.289 131.544 274.838 131.672 275.446 131.672ZM288.335 133V131.144L288.287 130.84V127.736C288.287 127.021 288.085 126.472 287.679 126.088C287.285 125.704 286.693 125.512 285.903 125.512C285.359 125.512 284.842 125.603 284.351 125.784C283.861 125.965 283.445 126.205 283.103 126.504L282.591 125.656C283.018 125.293 283.53 125.016 284.127 124.824C284.725 124.621 285.354 124.52 286.015 124.52C287.103 124.52 287.941 124.792 288.527 125.336C289.125 125.869 289.423 126.685 289.423 127.784V133H288.335ZM285.439 133.08C284.81 133.08 284.261 132.979 283.791 132.776C283.333 132.563 282.981 132.275 282.735 131.912C282.49 131.539 282.367 131.112 282.367 130.632C282.367 130.195 282.469 129.8 282.671 129.448C282.885 129.085 283.226 128.797 283.695 128.584C284.175 128.36 284.815 128.248 285.615 128.248H288.511V129.096H285.647C284.837 129.096 284.271 129.24 283.951 129.528C283.642 129.816 283.487 130.173 283.487 130.6C283.487 131.08 283.674 131.464 284.047 131.752C284.421 132.04 284.943 132.184 285.615 132.184C286.255 132.184 286.805 132.04 287.263 131.752C287.733 131.453 288.074 131.027 288.287 130.472L288.543 131.256C288.33 131.811 287.957 132.253 287.423 132.584C286.901 132.915 286.239 133.08 285.439 133.08ZM296.957 124.52C297.64 124.52 298.237 124.653 298.749 124.92C299.272 125.176 299.677 125.571 299.965 126.104C300.264 126.637 300.413 127.309 300.413 128.12V133H299.277V128.232C299.277 127.347 299.053 126.68 298.605 126.232C298.168 125.773 297.549 125.544 296.749 125.544C296.152 125.544 295.629 125.667 295.181 125.912C294.744 126.147 294.402 126.493 294.157 126.952C293.922 127.4 293.805 127.944 293.805 128.584V133H292.669V124.6H293.757V126.904L293.581 126.472C293.848 125.864 294.274 125.389 294.861 125.048C295.448 124.696 296.146 124.52 296.957 124.52ZM313.253 133V131.144L313.205 130.84V127.736C313.205 127.021 313.002 126.472 312.597 126.088C312.202 125.704 311.61 125.512 310.821 125.512C310.277 125.512 309.76 125.603 309.269 125.784C308.778 125.965 308.362 126.205 308.021 126.504L307.509 125.656C307.936 125.293 308.448 125.016 309.045 124.824C309.642 124.621 310.272 124.52 310.933 124.52C312.021 124.52 312.858 124.792 313.445 125.336C314.042 125.869 314.341 126.685 314.341 127.784V133H313.253ZM310.357 133.08C309.728 133.08 309.178 132.979 308.709 132.776C308.25 132.563 307.898 132.275 307.653 131.912C307.408 131.539 307.285 131.112 307.285 130.632C307.285 130.195 307.386 129.8 307.589 129.448C307.802 129.085 308.144 128.797 308.613 128.584C309.093 128.36 309.733 128.248 310.533 128.248H313.429V129.096H310.565C309.754 129.096 309.189 129.24 308.869 129.528C308.56 129.816 308.405 130.173 308.405 130.6C308.405 131.08 308.592 131.464 308.965 131.752C309.338 132.04 309.861 132.184 310.533 132.184C311.173 132.184 311.722 132.04 312.181 131.752C312.65 131.453 312.992 131.027 313.205 130.472L313.461 131.256C313.248 131.811 312.874 132.253 312.341 132.584C311.818 132.915 311.157 133.08 310.357 133.08ZM320.931 133.08C320.131 133.08 319.411 132.899 318.771 132.536C318.141 132.173 317.645 131.672 317.283 131.032C316.92 130.381 316.739 129.635 316.739 128.792C316.739 127.939 316.92 127.192 317.283 126.552C317.645 125.912 318.141 125.416 318.771 125.064C319.411 124.701 320.131 124.52 320.931 124.52C321.667 124.52 322.323 124.685 322.899 125.016C323.485 125.347 323.949 125.832 324.291 126.472C324.643 127.101 324.819 127.875 324.819 128.792C324.819 129.699 324.648 130.472 324.307 131.112C323.965 131.752 323.501 132.243 322.915 132.584C322.339 132.915 321.677 133.08 320.931 133.08ZM321.011 132.072C321.608 132.072 322.141 131.939 322.611 131.672C323.091 131.395 323.464 131.011 323.731 130.52C324.008 130.019 324.147 129.443 324.147 128.792C324.147 128.131 324.008 127.555 323.731 127.064C323.464 126.573 323.091 126.195 322.611 125.928C322.141 125.651 321.608 125.512 321.011 125.512C320.424 125.512 319.896 125.651 319.427 125.928C318.957 126.195 318.584 126.573 318.307 127.064C318.029 127.555 317.891 128.131 317.891 128.792C317.891 129.443 318.029 130.019 318.307 130.52C318.584 131.011 318.957 131.395 319.427 131.672C319.896 131.939 320.424 132.072 321.011 132.072ZM324.179 133V130.472L324.291 128.776L324.131 127.08V121.128H325.267V133H324.179ZM333.854 133V131.144L333.806 130.84V127.736C333.806 127.021 333.604 126.472 333.198 126.088C332.804 125.704 332.212 125.512 331.422 125.512C330.878 125.512 330.361 125.603 329.87 125.784C329.38 125.965 328.964 126.205 328.622 126.504L328.11 125.656C328.537 125.293 329.049 125.016 329.646 124.824C330.244 124.621 330.873 124.52 331.534 124.52C332.622 124.52 333.46 124.792 334.046 125.336C334.644 125.869 334.942 126.685 334.942 127.784V133H333.854ZM330.958 133.08C330.329 133.08 329.78 132.979 329.31 132.776C328.852 132.563 328.5 132.275 328.254 131.912C328.009 131.539 327.886 131.112 327.886 130.632C327.886 130.195 327.988 129.8 328.19 129.448C328.404 129.085 328.745 128.797 329.214 128.584C329.694 128.36 330.334 128.248 331.134 128.248H334.03V129.096H331.166C330.356 129.096 329.79 129.24 329.47 129.528C329.161 129.816 329.006 130.173 329.006 130.6C329.006 131.08 329.193 131.464 329.566 131.752C329.94 132.04 330.462 132.184 331.134 132.184C331.774 132.184 332.324 132.04 332.782 131.752C333.252 131.453 333.593 131.027 333.806 130.472L334.062 131.256C333.849 131.811 333.476 132.253 332.942 132.584C332.42 132.915 331.758 133.08 330.958 133.08ZM342.476 124.52C343.158 124.52 343.756 124.653 344.268 124.92C344.79 125.176 345.196 125.571 345.484 126.104C345.782 126.637 345.932 127.309 345.932 128.12V133H344.796V128.232C344.796 127.347 344.572 126.68 344.124 126.232C343.686 125.773 343.068 125.544 342.268 125.544C341.67 125.544 341.148 125.667 340.7 125.912C340.262 126.147 339.921 126.493 339.676 126.952C339.441 127.4 339.324 127.944 339.324 128.584V133H338.188V124.6H339.276V126.904L339.1 126.472C339.366 125.864 339.793 125.389 340.38 125.048C340.966 124.696 341.665 124.52 342.476 124.52ZM349.068 136.184C348.673 136.184 348.295 136.12 347.932 135.992C347.58 135.864 347.276 135.672 347.02 135.416L347.548 134.568C347.761 134.771 347.991 134.925 348.236 135.032C348.492 135.149 348.775 135.208 349.084 135.208C349.457 135.208 349.777 135.101 350.044 134.888C350.321 134.685 350.583 134.323 350.828 133.8L351.372 132.568L351.5 132.392L354.956 124.6H356.076L351.868 134.008C351.633 134.552 351.372 134.984 351.084 135.304C350.807 135.624 350.503 135.848 350.172 135.976C349.841 136.115 349.473 136.184 349.068 136.184ZM351.308 133.24L347.436 124.6H348.62L352.044 132.312L351.308 133.24ZM362.85 133V131.144L362.802 130.84V127.736C362.802 127.021 362.599 126.472 362.194 126.088C361.799 125.704 361.207 125.512 360.418 125.512C359.874 125.512 359.357 125.603 358.866 125.784C358.375 125.965 357.959 126.205 357.618 126.504L357.106 125.656C357.533 125.293 358.045 125.016 358.642 124.824C359.239 124.621 359.869 124.52 360.53 124.52C361.618 124.52 362.455 124.792 363.042 125.336C363.639 125.869 363.938 126.685 363.938 127.784V133H362.85ZM359.954 133.08C359.325 133.08 358.775 132.979 358.306 132.776C357.847 132.563 357.495 132.275 357.25 131.912C357.005 131.539 356.882 131.112 356.882 130.632C356.882 130.195 356.983 129.8 357.186 129.448C357.399 129.085 357.741 128.797 358.21 128.584C358.69 128.36 359.33 128.248 360.13 128.248H363.026V129.096H360.162C359.351 129.096 358.786 129.24 358.466 129.528C358.157 129.816 358.002 130.173 358.002 130.6C358.002 131.08 358.189 131.464 358.562 131.752C358.935 132.04 359.458 132.184 360.13 132.184C360.77 132.184 361.319 132.04 361.778 131.752C362.247 131.453 362.589 131.027 362.802 130.472L363.058 131.256C362.845 131.811 362.471 132.253 361.938 132.584C361.415 132.915 360.754 133.08 359.954 133.08ZM25.584 166V154.128H26.72V166H25.584ZM35.3049 166V164.144L35.2569 163.84V160.736C35.2569 160.021 35.0542 159.472 34.6489 159.088C34.2542 158.704 33.6622 158.512 32.8729 158.512C32.3289 158.512 31.8115 158.603 31.3209 158.784C30.8302 158.965 30.4142 159.205 30.0729 159.504L29.5609 158.656C29.9875 158.293 30.4995 158.016 31.0969 157.824C31.6942 157.621 32.3235 157.52 32.9849 157.52C34.0729 157.52 34.9102 157.792 35.4969 158.336C36.0942 158.869 36.3929 159.685 36.3929 160.784V166H35.3049ZM32.4089 166.08C31.7795 166.08 31.2302 165.979 30.7609 165.776C30.3022 165.563 29.9502 165.275 29.7049 164.912C29.4595 164.539 29.3369 164.112 29.3369 163.632C29.3369 163.195 29.4382 162.8 29.6409 162.448C29.8542 162.085 30.1955 161.797 30.6649 161.584C31.1449 161.36 31.7849 161.248 32.5849 161.248H35.4809V162.096H32.6169C31.8062 162.096 31.2409 162.24 30.9209 162.528C30.6115 162.816 30.4569 163.173 30.4569 163.6C30.4569 164.08 30.6435 164.464 31.0169 164.752C31.3902 165.04 31.9129 165.184 32.5849 165.184C33.2249 165.184 33.7742 165.04 34.2329 164.752C34.7022 164.453 35.0435 164.027 35.2569 163.472L35.5129 164.256C35.2995 164.811 34.9262 165.253 34.3929 165.584C33.8702 165.915 33.2089 166.08 32.4089 166.08ZM39.5461 169.184C39.1515 169.184 38.7728 169.12 38.4101 168.992C38.0581 168.864 37.7541 168.672 37.4981 168.416L38.0261 167.568C38.2395 167.771 38.4688 167.925 38.7141 168.032C38.9701 168.149 39.2528 168.208 39.5621 168.208C39.9355 168.208 40.2555 168.101 40.5221 167.888C40.7995 167.685 41.0608 167.323 41.3061 166.8L41.8501 165.568L41.9781 165.392L45.4341 157.6H46.5541L42.3461 167.008C42.1115 167.552 41.8501 167.984 41.5621 168.304C41.2848 168.624 40.9808 168.848 40.6501 168.976C40.3195 169.115 39.9515 169.184 39.5461 169.184ZM41.7861 166.24L37.9141 157.6H39.0981L42.5221 165.312L41.7861 166.24ZM53.328 166V164.144L53.28 163.84V160.736C53.28 160.021 53.0773 159.472 52.672 159.088C52.2773 158.704 51.6853 158.512 50.896 158.512C50.352 158.512 49.8347 158.603 49.344 158.784C48.8533 158.965 48.4373 159.205 48.096 159.504L47.584 158.656C48.0107 158.293 48.5227 158.016 49.12 157.824C49.7173 157.621 50.3467 157.52 51.008 157.52C52.096 157.52 52.9333 157.792 53.52 158.336C54.1173 158.869 54.416 159.685 54.416 160.784V166H53.328ZM50.432 166.08C49.8027 166.08 49.2533 165.979 48.784 165.776C48.3253 165.563 47.9733 165.275 47.728 164.912C47.4827 164.539 47.36 164.112 47.36 163.632C47.36 163.195 47.4613 162.8 47.664 162.448C47.8773 162.085 48.2187 161.797 48.688 161.584C49.168 161.36 49.808 161.248 50.608 161.248H53.504V162.096H50.64C49.8293 162.096 49.264 162.24 48.944 162.528C48.6347 162.816 48.48 163.173 48.48 163.6C48.48 164.08 48.6667 164.464 49.04 164.752C49.4133 165.04 49.936 165.184 50.608 165.184C51.248 165.184 51.7973 165.04 52.256 164.752C52.7253 164.453 53.0667 164.027 53.28 163.472L53.536 164.256C53.3227 164.811 52.9493 165.253 52.416 165.584C51.8933 165.915 51.232 166.08 50.432 166.08ZM61.9495 157.52C62.6322 157.52 63.2295 157.653 63.7415 157.92C64.2642 158.176 64.6695 158.571 64.9575 159.104C65.2562 159.637 65.4055 160.309 65.4055 161.12V166H64.2695V161.232C64.2695 160.347 64.0455 159.68 63.5975 159.232C63.1602 158.773 62.5415 158.544 61.7415 158.544C61.1442 158.544 60.6215 158.667 60.1735 158.912C59.7362 159.147 59.3948 159.493 59.1495 159.952C58.9148 160.4 58.7975 160.944 58.7975 161.584V166H57.6615V157.6H58.7495V159.904L58.5735 159.472C58.8402 158.864 59.2668 158.389 59.8535 158.048C60.4402 157.696 61.1388 157.52 61.9495 157.52ZM73.898 166V164.144L73.85 163.84V160.736C73.85 160.021 73.6473 159.472 73.242 159.088C72.8473 158.704 72.2553 158.512 71.466 158.512C70.922 158.512 70.4047 158.603 69.914 158.784C69.4233 158.965 69.0073 159.205 68.666 159.504L68.154 158.656C68.5807 158.293 69.0927 158.016 69.69 157.824C70.2873 157.621 70.9167 157.52 71.578 157.52C72.666 157.52 73.5033 157.792 74.09 158.336C74.6873 158.869 74.986 159.685 74.986 160.784V166H73.898ZM71.002 166.08C70.3727 166.08 69.8233 165.979 69.354 165.776C68.8953 165.563 68.5433 165.275 68.298 164.912C68.0527 164.539 67.93 164.112 67.93 163.632C67.93 163.195 68.0313 162.8 68.234 162.448C68.4473 162.085 68.7887 161.797 69.258 161.584C69.738 161.36 70.378 161.248 71.178 161.248H74.074V162.096H71.21C70.3993 162.096 69.834 162.24 69.514 162.528C69.2047 162.816 69.05 163.173 69.05 163.6C69.05 164.08 69.2367 164.464 69.61 164.752C69.9833 165.04 70.506 165.184 71.178 165.184C71.818 165.184 72.3673 165.04 72.826 164.752C73.2953 164.453 73.6367 164.027 73.85 163.472L74.106 164.256C73.8927 164.811 73.5193 165.253 72.986 165.584C72.4633 165.915 71.802 166.08 71.002 166.08ZM82.5195 157.52C83.2022 157.52 83.7995 157.653 84.3115 157.92C84.8342 158.176 85.2395 158.571 85.5275 159.104C85.8262 159.637 85.9755 160.309 85.9755 161.12V166H84.8395V161.232C84.8395 160.347 84.6155 159.68 84.1675 159.232C83.7302 158.773 83.1115 158.544 82.3115 158.544C81.7142 158.544 81.1915 158.667 80.7435 158.912C80.3062 159.147 79.9648 159.493 79.7195 159.952C79.4848 160.4 79.3675 160.944 79.3675 161.584V166H78.2315V157.6H79.3195V159.904L79.1435 159.472C79.4102 158.864 79.8368 158.389 80.4235 158.048C81.0102 157.696 81.7088 157.52 82.5195 157.52ZM97.8875 166.08C97.1622 166.08 96.5062 165.915 95.9195 165.584C95.3328 165.243 94.8635 164.757 94.5115 164.128C94.1702 163.488 93.9995 162.709 93.9995 161.792C93.9995 160.875 94.1702 160.101 94.5115 159.472C94.8528 158.832 95.3168 158.347 95.9035 158.016C96.4902 157.685 97.1515 157.52 97.8875 157.52C98.6875 157.52 99.4022 157.701 100.031 158.064C100.671 158.416 101.173 158.917 101.535 159.568C101.898 160.208 102.079 160.949 102.079 161.792C102.079 162.645 101.898 163.392 101.535 164.032C101.173 164.672 100.671 165.173 100.031 165.536C99.4022 165.899 98.6875 166.08 97.8875 166.08ZM93.5515 169.104V157.6H94.6395V160.128L94.5275 161.808L94.6875 163.504V169.104H93.5515ZM97.8075 165.072C98.4048 165.072 98.9382 164.939 99.4075 164.672C99.8768 164.395 100.25 164.011 100.527 163.52C100.805 163.019 100.943 162.443 100.943 161.792C100.943 161.141 100.805 160.571 100.527 160.08C100.25 159.589 99.8768 159.205 99.4075 158.928C98.9382 158.651 98.4048 158.512 97.8075 158.512C97.2102 158.512 96.6715 158.651 96.1915 158.928C95.7222 159.205 95.3488 159.589 95.0715 160.08C94.8048 160.571 94.6715 161.141 94.6715 161.792C94.6715 162.443 94.8048 163.019 95.0715 163.52C95.3488 164.011 95.7222 164.395 96.1915 164.672C96.6715 164.939 97.2102 165.072 97.8075 165.072ZM108.123 166.08C107.249 166.08 106.481 165.899 105.819 165.536C105.158 165.163 104.641 164.656 104.267 164.016C103.894 163.365 103.707 162.624 103.707 161.792C103.707 160.96 103.883 160.224 104.235 159.584C104.598 158.944 105.089 158.443 105.707 158.08C106.337 157.707 107.041 157.52 107.819 157.52C108.609 157.52 109.307 157.701 109.915 158.064C110.534 158.416 111.019 158.917 111.371 159.568C111.723 160.208 111.899 160.949 111.899 161.792C111.899 161.845 111.894 161.904 111.883 161.968C111.883 162.021 111.883 162.08 111.883 162.144H104.571V161.296H111.275L110.827 161.632C110.827 161.024 110.694 160.485 110.427 160.016C110.171 159.536 109.819 159.163 109.371 158.896C108.923 158.629 108.406 158.496 107.819 158.496C107.243 158.496 106.726 158.629 106.267 158.896C105.809 159.163 105.451 159.536 105.195 160.016C104.939 160.496 104.811 161.045 104.811 161.664V161.84C104.811 162.48 104.95 163.045 105.227 163.536C105.515 164.016 105.91 164.395 106.411 164.672C106.923 164.939 107.505 165.072 108.155 165.072C108.667 165.072 109.142 164.981 109.579 164.8C110.027 164.619 110.411 164.341 110.731 163.968L111.371 164.704C110.998 165.152 110.529 165.493 109.963 165.728C109.409 165.963 108.795 166.08 108.123 166.08ZM114.371 166V154.128H115.507V166H114.371ZM124.092 166V164.144L124.044 163.84V160.736C124.044 160.021 123.842 159.472 123.436 159.088C123.042 158.704 122.45 158.512 121.66 158.512C121.116 158.512 120.599 158.603 120.108 158.784C119.618 158.965 119.202 159.205 118.86 159.504L118.348 158.656C118.775 158.293 119.287 158.016 119.884 157.824C120.482 157.621 121.111 157.52 121.772 157.52C122.86 157.52 123.698 157.792 124.284 158.336C124.882 158.869 125.18 159.685 125.18 160.784V166H124.092ZM121.196 166.08C120.567 166.08 120.018 165.979 119.548 165.776C119.09 165.563 118.738 165.275 118.492 164.912C118.247 164.539 118.124 164.112 118.124 163.632C118.124 163.195 118.226 162.8 118.428 162.448C118.642 162.085 118.983 161.797 119.452 161.584C119.932 161.36 120.572 161.248 121.372 161.248H124.268V162.096H121.404C120.594 162.096 120.028 162.24 119.708 162.528C119.399 162.816 119.244 163.173 119.244 163.6C119.244 164.08 119.431 164.464 119.804 164.752C120.178 165.04 120.7 165.184 121.372 165.184C122.012 165.184 122.562 165.04 123.02 164.752C123.49 164.453 123.831 164.027 124.044 163.472L124.3 164.256C124.087 164.811 123.714 165.253 123.18 165.584C122.658 165.915 121.996 166.08 121.196 166.08ZM132.714 157.52C133.397 157.52 133.994 157.653 134.506 157.92C135.029 158.176 135.434 158.571 135.722 159.104C136.021 159.637 136.17 160.309 136.17 161.12V166H135.034V161.232C135.034 160.347 134.81 159.68 134.362 159.232C133.925 158.773 133.306 158.544 132.506 158.544C131.909 158.544 131.386 158.667 130.938 158.912C130.501 159.147 130.159 159.493 129.914 159.952C129.679 160.4 129.562 160.944 129.562 161.584V166H128.426V157.6H129.514V159.904L129.338 159.472C129.605 158.864 130.031 158.389 130.618 158.048C131.205 157.696 131.903 157.52 132.714 157.52ZM142.982 169.184C142.214 169.184 141.478 169.072 140.774 168.848C140.07 168.624 139.5 168.304 139.062 167.888L139.638 167.024C140.033 167.376 140.518 167.653 141.094 167.856C141.681 168.069 142.3 168.176 142.95 168.176C144.017 168.176 144.801 167.925 145.302 167.424C145.804 166.933 146.054 166.165 146.054 165.12V163.024L146.214 161.584L146.102 160.144V157.6H147.19V164.976C147.19 166.427 146.833 167.488 146.118 168.16C145.414 168.843 144.369 169.184 142.982 169.184ZM142.774 165.68C141.974 165.68 141.254 165.509 140.614 165.168C139.974 164.816 139.468 164.331 139.094 163.712C138.732 163.093 138.55 162.384 138.55 161.584C138.55 160.784 138.732 160.08 139.094 159.472C139.468 158.853 139.974 158.373 140.614 158.032C141.254 157.691 141.974 157.52 142.774 157.52C143.521 157.52 144.193 157.675 144.79 157.984C145.388 158.293 145.862 158.752 146.214 159.36C146.566 159.968 146.742 160.709 146.742 161.584C146.742 162.459 146.566 163.2 146.214 163.808C145.862 164.416 145.388 164.88 144.79 165.2C144.193 165.52 143.521 165.68 142.774 165.68ZM142.886 164.672C143.505 164.672 144.054 164.544 144.534 164.288C145.014 164.021 145.393 163.659 145.67 163.2C145.948 162.731 146.086 162.192 146.086 161.584C146.086 160.976 145.948 160.443 145.67 159.984C145.393 159.525 145.014 159.168 144.534 158.912C144.054 158.645 143.505 158.512 142.886 158.512C142.278 158.512 141.729 158.645 141.238 158.912C140.758 159.168 140.38 159.525 140.102 159.984C139.836 160.443 139.702 160.976 139.702 161.584C139.702 162.192 139.836 162.731 140.102 163.2C140.38 163.659 140.758 164.021 141.238 164.288C141.729 164.544 142.278 164.672 142.886 164.672ZM154.095 169.184C153.327 169.184 152.591 169.072 151.887 168.848C151.183 168.624 150.613 168.304 150.175 167.888L150.751 167.024C151.146 167.376 151.631 167.653 152.207 167.856C152.794 168.069 153.413 168.176 154.063 168.176C155.13 168.176 155.914 167.925 156.415 167.424C156.917 166.933 157.167 166.165 157.167 165.12V163.024L157.327 161.584L157.215 160.144V157.6H158.303V164.976C158.303 166.427 157.946 167.488 157.231 168.16C156.527 168.843 155.482 169.184 154.095 169.184ZM153.887 165.68C153.087 165.68 152.367 165.509 151.727 165.168C151.087 164.816 150.581 164.331 150.207 163.712C149.845 163.093 149.663 162.384 149.663 161.584C149.663 160.784 149.845 160.08 150.207 159.472C150.581 158.853 151.087 158.373 151.727 158.032C152.367 157.691 153.087 157.52 153.887 157.52C154.634 157.52 155.306 157.675 155.903 157.984C156.501 158.293 156.975 158.752 157.327 159.36C157.679 159.968 157.855 160.709 157.855 161.584C157.855 162.459 157.679 163.2 157.327 163.808C156.975 164.416 156.501 164.88 155.903 165.2C155.306 165.52 154.634 165.68 153.887 165.68ZM153.999 164.672C154.618 164.672 155.167 164.544 155.647 164.288C156.127 164.021 156.506 163.659 156.783 163.2C157.061 162.731 157.199 162.192 157.199 161.584C157.199 160.976 157.061 160.443 156.783 159.984C156.506 159.525 156.127 159.168 155.647 158.912C155.167 158.645 154.618 158.512 153.999 158.512C153.391 158.512 152.842 158.645 152.351 158.912C151.871 159.168 151.493 159.525 151.215 159.984C150.949 160.443 150.815 160.976 150.815 161.584C150.815 162.192 150.949 162.731 151.215 163.2C151.493 163.659 151.871 164.021 152.351 164.288C152.842 164.544 153.391 164.672 153.999 164.672ZM166.889 166V164.144L166.841 163.84V160.736C166.841 160.021 166.638 159.472 166.233 159.088C165.838 158.704 165.246 158.512 164.457 158.512C163.913 158.512 163.395 158.603 162.905 158.784C162.414 158.965 161.998 159.205 161.657 159.504L161.145 158.656C161.571 158.293 162.083 158.016 162.681 157.824C163.278 157.621 163.907 157.52 164.569 157.52C165.657 157.52 166.494 157.792 167.081 158.336C167.678 158.869 167.977 159.685 167.977 160.784V166H166.889ZM163.993 166.08C163.363 166.08 162.814 165.979 162.345 165.776C161.886 165.563 161.534 165.275 161.289 164.912C161.043 164.539 160.921 164.112 160.921 163.632C160.921 163.195 161.022 162.8 161.225 162.448C161.438 162.085 161.779 161.797 162.249 161.584C162.729 161.36 163.369 161.248 164.169 161.248H167.065V162.096H164.201C163.39 162.096 162.825 162.24 162.505 162.528C162.195 162.816 162.041 163.173 162.041 163.6C162.041 164.08 162.227 164.464 162.601 164.752C162.974 165.04 163.497 165.184 164.169 165.184C164.809 165.184 165.358 165.04 165.817 164.752C166.286 164.453 166.627 164.027 166.841 163.472L167.097 164.256C166.883 164.811 166.51 165.253 165.977 165.584C165.454 165.915 164.793 166.08 163.993 166.08ZM175.51 157.52C176.193 157.52 176.79 157.653 177.302 157.92C177.825 158.176 178.23 158.571 178.518 159.104C178.817 159.637 178.966 160.309 178.966 161.12V166H177.83V161.232C177.83 160.347 177.606 159.68 177.158 159.232C176.721 158.773 176.102 158.544 175.302 158.544C174.705 158.544 174.182 158.667 173.734 158.912C173.297 159.147 172.955 159.493 172.71 159.952C172.475 160.4 172.358 160.944 172.358 161.584V166H171.222V157.6H172.31V159.904L172.134 159.472C172.401 158.864 172.827 158.389 173.414 158.048C174.001 157.696 174.699 157.52 175.51 157.52ZM185.582 166V165.184L190.238 160.624C190.665 160.208 190.985 159.845 191.198 159.536C191.411 159.216 191.555 158.917 191.63 158.64C191.705 158.363 191.742 158.101 191.742 157.856C191.742 157.205 191.518 156.693 191.07 156.32C190.633 155.947 189.982 155.76 189.118 155.76C188.457 155.76 187.87 155.861 187.358 156.064C186.857 156.267 186.425 156.581 186.062 157.008L185.246 156.304C185.683 155.792 186.243 155.397 186.926 155.12C187.609 154.843 188.371 154.704 189.214 154.704C189.971 154.704 190.627 154.827 191.182 155.072C191.737 155.307 192.163 155.653 192.462 156.112C192.771 156.571 192.926 157.109 192.926 157.728C192.926 158.091 192.873 158.448 192.766 158.8C192.67 159.152 192.489 159.525 192.222 159.92C191.966 160.304 191.587 160.741 191.086 161.232L186.814 165.424L186.494 164.976H193.438V166H185.582ZM194.492 163.056V162.224L200.428 154.8H201.708L195.82 162.224L195.196 162.032H204.204V163.056H194.492ZM200.812 166V163.056L200.844 162.032V159.44H201.964V166H200.812ZM209.274 169.184C208.933 169.184 208.607 169.136 208.298 169.04C207.978 168.955 207.711 168.821 207.498 168.64L207.898 167.776C208.239 168.064 208.677 168.208 209.21 168.208C209.658 168.208 209.999 168.075 210.234 167.808C210.479 167.541 210.602 167.147 210.602 166.624V157.6H211.738V166.624C211.738 167.403 211.525 168.021 211.098 168.48C210.682 168.949 210.074 169.184 209.274 169.184ZM211.178 155.744C210.943 155.744 210.746 155.664 210.586 155.504C210.426 155.344 210.346 155.152 210.346 154.928C210.346 154.704 210.426 154.517 210.586 154.368C210.746 154.208 210.943 154.128 211.178 154.128C211.413 154.128 211.61 154.203 211.77 154.352C211.93 154.501 212.01 154.688 212.01 154.912C212.01 155.147 211.93 155.344 211.77 155.504C211.621 155.664 211.423 155.744 211.178 155.744ZM220.337 166V164.144L220.289 163.84V160.736C220.289 160.021 220.086 159.472 219.681 159.088C219.286 158.704 218.694 158.512 217.905 158.512C217.361 158.512 216.843 158.603 216.353 158.784C215.862 158.965 215.446 159.205 215.105 159.504L214.593 158.656C215.019 158.293 215.531 158.016 216.129 157.824C216.726 157.621 217.355 157.52 218.017 157.52C219.105 157.52 219.942 157.792 220.529 158.336C221.126 158.869 221.425 159.685 221.425 160.784V166H220.337ZM217.441 166.08C216.811 166.08 216.262 165.979 215.793 165.776C215.334 165.563 214.982 165.275 214.737 164.912C214.491 164.539 214.369 164.112 214.369 163.632C214.369 163.195 214.47 162.8 214.673 162.448C214.886 162.085 215.227 161.797 215.697 161.584C216.177 161.36 216.817 161.248 217.617 161.248H220.513V162.096H217.649C216.838 162.096 216.273 162.24 215.953 162.528C215.643 162.816 215.489 163.173 215.489 163.6C215.489 164.08 215.675 164.464 216.049 164.752C216.422 165.04 216.945 165.184 217.617 165.184C218.257 165.184 218.806 165.04 219.265 164.752C219.734 164.453 220.075 164.027 220.289 163.472L220.545 164.256C220.331 164.811 219.958 165.253 219.425 165.584C218.902 165.915 218.241 166.08 217.441 166.08ZM235.166 157.52C235.849 157.52 236.441 157.653 236.942 157.92C237.454 158.176 237.849 158.571 238.126 159.104C238.414 159.637 238.558 160.309 238.558 161.12V166H237.422V161.232C237.422 160.347 237.209 159.68 236.782 159.232C236.366 158.773 235.774 158.544 235.006 158.544C234.43 158.544 233.929 158.667 233.502 158.912C233.086 159.147 232.761 159.493 232.526 159.952C232.302 160.4 232.19 160.944 232.19 161.584V166H231.054V161.232C231.054 160.347 230.841 159.68 230.414 159.232C229.988 158.773 229.39 158.544 228.622 158.544C228.057 158.544 227.561 158.667 227.134 158.912C226.708 159.147 226.377 159.493 226.142 159.952C225.918 160.4 225.806 160.944 225.806 161.584V166H224.67V157.6H225.758V159.872L225.582 159.472C225.838 158.864 226.249 158.389 226.814 158.048C227.39 157.696 228.068 157.52 228.846 157.52C229.668 157.52 230.366 157.728 230.942 158.144C231.518 158.549 231.892 159.163 232.062 159.984L231.614 159.808C231.86 159.125 232.292 158.576 232.91 158.16C233.54 157.733 234.292 157.52 235.166 157.52ZM241.911 166.08C241.676 166.08 241.474 165.995 241.303 165.824C241.143 165.653 241.063 165.445 241.063 165.2C241.063 164.944 241.143 164.736 241.303 164.576C241.474 164.416 241.676 164.336 241.911 164.336C242.146 164.336 242.343 164.416 242.503 164.576C242.674 164.736 242.759 164.944 242.759 165.2C242.759 165.445 242.674 165.653 242.503 165.824C242.343 165.995 242.146 166.08 241.911 166.08ZM250.961 163.216L250.913 161.776L257.697 154.8H259.057L254.113 159.984L253.441 160.704L250.961 163.216ZM249.937 166V154.8H251.121V166H249.937ZM257.985 166L253.153 160.432L253.953 159.568L259.393 166H257.985ZM266.277 166V164.144L266.229 163.84V160.736C266.229 160.021 266.027 159.472 265.621 159.088C265.227 158.704 264.635 158.512 263.845 158.512C263.301 158.512 262.784 158.603 262.293 158.784C261.803 158.965 261.387 159.205 261.045 159.504L260.533 158.656C260.96 158.293 261.472 158.016 262.069 157.824C262.667 157.621 263.296 157.52 263.957 157.52C265.045 157.52 265.883 157.792 266.469 158.336C267.067 158.869 267.365 159.685 267.365 160.784V166H266.277ZM263.381 166.08C262.752 166.08 262.203 165.979 261.733 165.776C261.275 165.563 260.923 165.275 260.677 164.912C260.432 164.539 260.309 164.112 260.309 163.632C260.309 163.195 260.411 162.8 260.613 162.448C260.827 162.085 261.168 161.797 261.637 161.584C262.117 161.36 262.757 161.248 263.557 161.248H266.453V162.096H263.589C262.779 162.096 262.213 162.24 261.893 162.528C261.584 162.816 261.429 163.173 261.429 163.6C261.429 164.08 261.616 164.464 261.989 164.752C262.363 165.04 262.885 165.184 263.557 165.184C264.197 165.184 264.747 165.04 265.205 164.752C265.675 164.453 266.016 164.027 266.229 163.472L266.485 164.256C266.272 164.811 265.899 165.253 265.365 165.584C264.843 165.915 264.181 166.08 263.381 166.08ZM270.611 166V157.6H271.699V159.888L271.587 159.488C271.822 158.848 272.216 158.363 272.771 158.032C273.326 157.691 274.014 157.52 274.835 157.52V158.624C274.792 158.624 274.75 158.624 274.707 158.624C274.664 158.613 274.622 158.608 274.579 158.608C273.694 158.608 273 158.88 272.499 159.424C271.998 159.957 271.747 160.72 271.747 161.712V166H270.611ZM280.558 166.08C279.683 166.08 278.915 165.899 278.254 165.536C277.592 165.163 277.075 164.656 276.702 164.016C276.328 163.365 276.142 162.624 276.142 161.792C276.142 160.96 276.318 160.224 276.67 159.584C277.032 158.944 277.523 158.443 278.142 158.08C278.771 157.707 279.475 157.52 280.254 157.52C281.043 157.52 281.742 157.701 282.35 158.064C282.968 158.416 283.454 158.917 283.806 159.568C284.158 160.208 284.334 160.949 284.334 161.792C284.334 161.845 284.328 161.904 284.318 161.968C284.318 162.021 284.318 162.08 284.318 162.144H277.006V161.296H283.71L283.262 161.632C283.262 161.024 283.128 160.485 282.862 160.016C282.606 159.536 282.254 159.163 281.806 158.896C281.358 158.629 280.84 158.496 280.254 158.496C279.678 158.496 279.16 158.629 278.702 158.896C278.243 159.163 277.886 159.536 277.63 160.016C277.374 160.496 277.246 161.045 277.246 161.664V161.84C277.246 162.48 277.384 163.045 277.662 163.536C277.95 164.016 278.344 164.395 278.846 164.672C279.358 164.939 279.939 165.072 280.59 165.072C281.102 165.072 281.576 164.981 282.014 164.8C282.462 164.619 282.846 164.341 283.166 163.968L283.806 164.704C283.432 165.152 282.963 165.493 282.398 165.728C281.843 165.963 281.23 166.08 280.558 166.08ZM291.094 157.52C291.777 157.52 292.374 157.653 292.886 157.92C293.409 158.176 293.814 158.571 294.102 159.104C294.401 159.637 294.55 160.309 294.55 161.12V166H293.414V161.232C293.414 160.347 293.19 159.68 292.742 159.232C292.305 158.773 291.686 158.544 290.886 158.544C290.289 158.544 289.766 158.667 289.318 158.912C288.881 159.147 288.539 159.493 288.294 159.952C288.059 160.4 287.942 160.944 287.942 161.584V166H286.806V157.6H287.894V159.904L287.718 159.472C287.985 158.864 288.411 158.389 288.998 158.048C289.585 157.696 290.283 157.52 291.094 157.52ZM303.042 166V164.144L302.994 163.84V160.736C302.994 160.021 302.792 159.472 302.386 159.088C301.992 158.704 301.4 158.512 300.61 158.512C300.066 158.512 299.549 158.603 299.058 158.784C298.568 158.965 298.152 159.205 297.81 159.504L297.298 158.656C297.725 158.293 298.237 158.016 298.834 157.824C299.432 157.621 300.061 157.52 300.722 157.52C301.81 157.52 302.648 157.792 303.234 158.336C303.832 158.869 304.13 159.685 304.13 160.784V166H303.042ZM300.146 166.08C299.517 166.08 298.968 165.979 298.498 165.776C298.04 165.563 297.688 165.275 297.442 164.912C297.197 164.539 297.074 164.112 297.074 163.632C297.074 163.195 297.176 162.8 297.378 162.448C297.592 162.085 297.933 161.797 298.402 161.584C298.882 161.36 299.522 161.248 300.322 161.248H303.218V162.096H300.354C299.544 162.096 298.978 162.24 298.658 162.528C298.349 162.816 298.194 163.173 298.194 163.6C298.194 164.08 298.381 164.464 298.754 164.752C299.128 165.04 299.65 165.184 300.322 165.184C300.962 165.184 301.512 165.04 301.97 164.752C302.44 164.453 302.781 164.027 302.994 163.472L303.25 164.256C303.037 164.811 302.664 165.253 302.13 165.584C301.608 165.915 300.946 166.08 300.146 166.08ZM26.48 197.824L26.512 196.368L31.744 191.6H33.136L29.44 195.136L28.8 195.68L26.48 197.824ZM25.584 200V188.128H26.72V200H25.584ZM32.096 200L28.592 195.632L29.328 194.752L33.488 200H32.096ZM38.5933 200.08C37.7186 200.08 36.9506 199.899 36.2892 199.536C35.6279 199.163 35.1106 198.656 34.7372 198.016C34.3639 197.365 34.1772 196.624 34.1772 195.792C34.1772 194.96 34.3532 194.224 34.7052 193.584C35.0679 192.944 35.5586 192.443 36.1772 192.08C36.8066 191.707 37.5106 191.52 38.2892 191.52C39.0786 191.52 39.7772 191.701 40.3853 192.064C41.0039 192.416 41.4893 192.917 41.8413 193.568C42.1933 194.208 42.3693 194.949 42.3693 195.792C42.3693 195.845 42.3639 195.904 42.3533 195.968C42.3533 196.021 42.3533 196.08 42.3533 196.144H35.0412V195.296H41.7453L41.2973 195.632C41.2973 195.024 41.1639 194.485 40.8973 194.016C40.6413 193.536 40.2893 193.163 39.8412 192.896C39.3932 192.629 38.8759 192.496 38.2892 192.496C37.7133 192.496 37.1959 192.629 36.7373 192.896C36.2786 193.163 35.9212 193.536 35.6653 194.016C35.4092 194.496 35.2812 195.045 35.2812 195.664V195.84C35.2812 196.48 35.4199 197.045 35.6972 197.536C35.9852 198.016 36.3799 198.395 36.8812 198.672C37.3932 198.939 37.9746 199.072 38.6252 199.072C39.1372 199.072 39.6119 198.981 40.0493 198.8C40.4973 198.619 40.8813 198.341 41.2013 197.968L41.8413 198.704C41.4679 199.152 40.9986 199.493 40.4332 199.728C39.8786 199.963 39.2653 200.08 38.5933 200.08ZM49.1775 200.08C48.4522 200.08 47.7962 199.915 47.2095 199.584C46.6228 199.243 46.1535 198.757 45.8015 198.128C45.4602 197.488 45.2895 196.709 45.2895 195.792C45.2895 194.875 45.4602 194.101 45.8015 193.472C46.1428 192.832 46.6068 192.347 47.1935 192.016C47.7802 191.685 48.4415 191.52 49.1775 191.52C49.9775 191.52 50.6922 191.701 51.3215 192.064C51.9615 192.416 52.4628 192.917 52.8255 193.568C53.1882 194.208 53.3695 194.949 53.3695 195.792C53.3695 196.645 53.1882 197.392 52.8255 198.032C52.4628 198.672 51.9615 199.173 51.3215 199.536C50.6922 199.899 49.9775 200.08 49.1775 200.08ZM44.8415 203.104V191.6H45.9295V194.128L45.8175 195.808L45.9775 197.504V203.104H44.8415ZM49.0975 199.072C49.6948 199.072 50.2282 198.939 50.6975 198.672C51.1668 198.395 51.5402 198.011 51.8175 197.52C52.0948 197.019 52.2335 196.443 52.2335 195.792C52.2335 195.141 52.0948 194.571 51.8175 194.08C51.5402 193.589 51.1668 193.205 50.6975 192.928C50.2282 192.651 49.6948 192.512 49.0975 192.512C48.5002 192.512 47.9615 192.651 47.4815 192.928C47.0122 193.205 46.6388 193.589 46.3615 194.08C46.0948 194.571 45.9615 195.141 45.9615 195.792C45.9615 196.443 46.0948 197.019 46.3615 197.52C46.6388 198.011 47.0122 198.395 47.4815 198.672C47.9615 198.939 48.5002 199.072 49.0975 199.072ZM59.3172 200.08C58.6026 200.08 57.9786 199.947 57.4452 199.68C56.9119 199.413 56.4959 199.013 56.1972 198.48C55.9092 197.947 55.7652 197.28 55.7652 196.48V191.6H56.9012V196.352C56.9012 197.248 57.1199 197.925 57.5572 198.384C58.0052 198.832 58.6292 199.056 59.4292 199.056C60.0159 199.056 60.5226 198.939 60.9492 198.704C61.3866 198.459 61.7172 198.107 61.9412 197.648C62.1759 197.189 62.2933 196.64 62.2933 196V191.6H63.4292V200H62.3412V197.696L62.5173 198.112C62.2506 198.731 61.8346 199.216 61.2692 199.568C60.7146 199.909 60.0639 200.08 59.3172 200.08ZM72.0192 200V198.144L71.9712 197.84V194.736C71.9712 194.021 71.7686 193.472 71.3632 193.088C70.9686 192.704 70.3766 192.512 69.5872 192.512C69.0432 192.512 68.5259 192.603 68.0352 192.784C67.5446 192.965 67.1286 193.205 66.7872 193.504L66.2752 192.656C66.7019 192.293 67.2139 192.016 67.8112 191.824C68.4086 191.621 69.0379 191.52 69.6992 191.52C70.7872 191.52 71.6246 191.792 72.2112 192.336C72.8086 192.869 73.1072 193.685 73.1072 194.784V200H72.0192ZM69.1232 200.08C68.4939 200.08 67.9446 199.979 67.4752 199.776C67.0166 199.563 66.6646 199.275 66.4192 198.912C66.1739 198.539 66.0512 198.112 66.0512 197.632C66.0512 197.195 66.1526 196.8 66.3552 196.448C66.5686 196.085 66.9099 195.797 67.3792 195.584C67.8592 195.36 68.4992 195.248 69.2992 195.248H72.1952V196.096H69.3312C68.5206 196.096 67.9552 196.24 67.6352 196.528C67.3259 196.816 67.1712 197.173 67.1712 197.6C67.1712 198.08 67.3579 198.464 67.7312 198.752C68.1046 199.04 68.6272 199.184 69.2992 199.184C69.9392 199.184 70.4886 199.04 70.9472 198.752C71.4166 198.453 71.7579 198.027 71.9712 197.472L72.2272 198.256C72.0139 198.811 71.6406 199.253 71.1072 199.584C70.5846 199.915 69.9232 200.08 69.1232 200.08ZM78.6087 200.08C77.9154 200.08 77.2594 199.984 76.6407 199.792C76.0221 199.589 75.5367 199.339 75.1847 199.04L75.6967 198.144C76.0381 198.4 76.4754 198.624 77.0087 198.816C77.5421 198.997 78.1021 199.088 78.6887 199.088C79.4887 199.088 80.0647 198.965 80.4167 198.72C80.7687 198.464 80.9447 198.128 80.9447 197.712C80.9447 197.403 80.8434 197.163 80.6407 196.992C80.4487 196.811 80.1927 196.677 79.8727 196.592C79.5527 196.496 79.1954 196.416 78.8007 196.352C78.4061 196.288 78.0114 196.213 77.6167 196.128C77.2327 196.043 76.8807 195.92 76.5607 195.76C76.2407 195.589 75.9794 195.36 75.7767 195.072C75.5847 194.784 75.4887 194.4 75.4887 193.92C75.4887 193.461 75.6167 193.051 75.8727 192.688C76.1287 192.325 76.5021 192.043 76.9927 191.84C77.4941 191.627 78.1021 191.52 78.8167 191.52C79.3607 191.52 79.9047 191.595 80.4487 191.744C80.9927 191.883 81.4407 192.069 81.7927 192.304L81.2967 193.216C80.9234 192.96 80.5234 192.779 80.0967 192.672C79.6701 192.555 79.2434 192.496 78.8167 192.496C78.0594 192.496 77.4994 192.629 77.1367 192.896C76.7847 193.152 76.6087 193.483 76.6087 193.888C76.6087 194.208 76.7047 194.459 76.8967 194.64C77.0994 194.821 77.3607 194.965 77.6807 195.072C78.0114 195.168 78.3687 195.248 78.7527 195.312C79.1474 195.376 79.5367 195.456 79.9207 195.552C80.3154 195.637 80.6727 195.76 80.9927 195.92C81.3234 196.069 81.5847 196.288 81.7767 196.576C81.9794 196.853 82.0807 197.221 82.0807 197.68C82.0807 198.171 81.9421 198.597 81.6647 198.96C81.3981 199.312 81.0034 199.589 80.4807 199.792C79.9687 199.984 79.3447 200.08 78.6087 200.08ZM89.5892 200V198.144L89.5412 197.84V194.736C89.5412 194.021 89.3386 193.472 88.9332 193.088C88.5386 192.704 87.9466 192.512 87.1572 192.512C86.6132 192.512 86.0959 192.603 85.6052 192.784C85.1146 192.965 84.6986 193.205 84.3572 193.504L83.8452 192.656C84.2719 192.293 84.7839 192.016 85.3812 191.824C85.9786 191.621 86.6079 191.52 87.2692 191.52C88.3572 191.52 89.1946 191.792 89.7812 192.336C90.3786 192.869 90.6772 193.685 90.6772 194.784V200H89.5892ZM86.6932 200.08C86.0639 200.08 85.5146 199.979 85.0452 199.776C84.5866 199.563 84.2346 199.275 83.9892 198.912C83.7439 198.539 83.6212 198.112 83.6212 197.632C83.6212 197.195 83.7226 196.8 83.9252 196.448C84.1386 196.085 84.4799 195.797 84.9492 195.584C85.4292 195.36 86.0692 195.248 86.8692 195.248H89.7652V196.096H86.9012C86.0906 196.096 85.5252 196.24 85.2052 196.528C84.8959 196.816 84.7412 197.173 84.7412 197.6C84.7412 198.08 84.9279 198.464 85.3012 198.752C85.6746 199.04 86.1972 199.184 86.8692 199.184C87.5092 199.184 88.0586 199.04 88.5172 198.752C88.9866 198.453 89.3279 198.027 89.5412 197.472L89.7972 198.256C89.5839 198.811 89.2106 199.253 88.6772 199.584C88.1546 199.915 87.4932 200.08 86.6932 200.08ZM98.2108 191.52C98.8934 191.52 99.4908 191.653 100.003 191.92C100.525 192.176 100.931 192.571 101.219 193.104C101.517 193.637 101.667 194.309 101.667 195.12V200H100.531V195.232C100.531 194.347 100.307 193.68 99.8588 193.232C99.4214 192.773 98.8028 192.544 98.0028 192.544C97.4054 192.544 96.8828 192.667 96.4348 192.912C95.9974 193.147 95.6561 193.493 95.4108 193.952C95.1761 194.4 95.0588 194.944 95.0588 195.584V200H93.9228V191.6H95.0108V193.904L94.8348 193.472C95.1014 192.864 95.5281 192.389 96.1148 192.048C96.7014 191.696 97.4001 191.52 98.2108 191.52ZM110.139 197.824L110.171 196.368L115.403 191.6H116.795L113.099 195.136L112.459 195.68L110.139 197.824ZM109.243 200V188.128H110.379V200H109.243ZM115.755 200L112.251 195.632L112.987 194.752L117.147 200H115.755ZM124.12 200V198.144L124.072 197.84V194.736C124.072 194.021 123.869 193.472 123.464 193.088C123.069 192.704 122.477 192.512 121.688 192.512C121.144 192.512 120.627 192.603 120.136 192.784C119.645 192.965 119.229 193.205 118.888 193.504L118.376 192.656C118.803 192.293 119.315 192.016 119.912 191.824C120.509 191.621 121.139 191.52 121.8 191.52C122.888 191.52 123.725 191.792 124.312 192.336C124.909 192.869 125.208 193.685 125.208 194.784V200H124.12ZM121.224 200.08C120.595 200.08 120.045 199.979 119.576 199.776C119.117 199.563 118.765 199.275 118.52 198.912C118.275 198.539 118.152 198.112 118.152 197.632C118.152 197.195 118.253 196.8 118.456 196.448C118.669 196.085 119.011 195.797 119.48 195.584C119.96 195.36 120.6 195.248 121.4 195.248H124.296V196.096H121.432C120.621 196.096 120.056 196.24 119.736 196.528C119.427 196.816 119.272 197.173 119.272 197.6C119.272 198.08 119.459 198.464 119.832 198.752C120.205 199.04 120.728 199.184 121.4 199.184C122.04 199.184 122.589 199.04 123.048 198.752C123.517 198.453 123.859 198.027 124.072 197.472L124.328 198.256C124.115 198.811 123.741 199.253 123.208 199.584C122.685 199.915 122.024 200.08 121.224 200.08ZM138.949 191.52C139.632 191.52 140.224 191.653 140.725 191.92C141.237 192.176 141.632 192.571 141.909 193.104C142.197 193.637 142.341 194.309 142.341 195.12V200H141.205V195.232C141.205 194.347 140.992 193.68 140.565 193.232C140.149 192.773 139.557 192.544 138.789 192.544C138.213 192.544 137.712 192.667 137.285 192.912C136.869 193.147 136.544 193.493 136.309 193.952C136.085 194.4 135.973 194.944 135.973 195.584V200H134.837V195.232C134.837 194.347 134.624 193.68 134.197 193.232C133.771 192.773 133.173 192.544 132.405 192.544C131.84 192.544 131.344 192.667 130.917 192.912C130.491 193.147 130.16 193.493 129.925 193.952C129.701 194.4 129.589 194.944 129.589 195.584V200H128.453V191.6H129.541V193.872L129.365 193.472C129.621 192.864 130.032 192.389 130.597 192.048C131.173 191.696 131.851 191.52 132.629 191.52C133.451 191.52 134.149 191.728 134.725 192.144C135.301 192.549 135.675 193.163 135.845 193.984L135.397 193.808C135.643 193.125 136.075 192.576 136.693 192.16C137.323 191.733 138.075 191.52 138.949 191.52ZM149.054 200.08C148.339 200.08 147.715 199.947 147.182 199.68C146.649 199.413 146.233 199.013 145.934 198.48C145.646 197.947 145.502 197.28 145.502 196.48V191.6H146.638V196.352C146.638 197.248 146.857 197.925 147.294 198.384C147.742 198.832 148.366 199.056 149.166 199.056C149.753 199.056 150.259 198.939 150.686 198.704C151.123 198.459 151.454 198.107 151.678 197.648C151.913 197.189 152.03 196.64 152.03 196V191.6H153.166V200H152.078V197.696L152.254 198.112C151.987 198.731 151.571 199.216 151.006 199.568C150.451 199.909 149.801 200.08 149.054 200.08ZM163.096 200.08C162.402 200.08 161.746 199.984 161.128 199.792C160.509 199.589 160.024 199.339 159.672 199.04L160.184 198.144C160.525 198.4 160.962 198.624 161.496 198.816C162.029 198.997 162.589 199.088 163.176 199.088C163.976 199.088 164.552 198.965 164.904 198.72C165.256 198.464 165.432 198.128 165.432 197.712C165.432 197.403 165.33 197.163 165.128 196.992C164.936 196.811 164.68 196.677 164.36 196.592C164.04 196.496 163.682 196.416 163.288 196.352C162.893 196.288 162.498 196.213 162.104 196.128C161.72 196.043 161.368 195.92 161.048 195.76C160.728 195.589 160.466 195.36 160.264 195.072C160.072 194.784 159.976 194.4 159.976 193.92C159.976 193.461 160.104 193.051 160.36 192.688C160.616 192.325 160.989 192.043 161.48 191.84C161.981 191.627 162.589 191.52 163.304 191.52C163.848 191.52 164.392 191.595 164.936 191.744C165.48 191.883 165.928 192.069 166.28 192.304L165.784 193.216C165.41 192.96 165.01 192.779 164.584 192.672C164.157 192.555 163.73 192.496 163.304 192.496C162.546 192.496 161.986 192.629 161.624 192.896C161.272 193.152 161.096 193.483 161.096 193.888C161.096 194.208 161.192 194.459 161.384 194.64C161.586 194.821 161.848 194.965 162.168 195.072C162.498 195.168 162.856 195.248 163.24 195.312C163.634 195.376 164.024 195.456 164.408 195.552C164.802 195.637 165.16 195.76 165.48 195.92C165.81 196.069 166.072 196.288 166.264 196.576C166.466 196.853 166.568 197.221 166.568 197.68C166.568 198.171 166.429 198.597 166.152 198.96C165.885 199.312 165.49 199.589 164.968 199.792C164.456 199.984 163.832 200.08 163.096 200.08ZM174.076 200V198.144L174.028 197.84V194.736C174.028 194.021 173.825 193.472 173.42 193.088C173.025 192.704 172.433 192.512 171.644 192.512C171.1 192.512 170.583 192.603 170.092 192.784C169.601 192.965 169.185 193.205 168.844 193.504L168.332 192.656C168.759 192.293 169.271 192.016 169.868 191.824C170.465 191.621 171.095 191.52 171.756 191.52C172.844 191.52 173.681 191.792 174.268 192.336C174.865 192.869 175.164 193.685 175.164 194.784V200H174.076ZM171.18 200.08C170.551 200.08 170.001 199.979 169.532 199.776C169.073 199.563 168.721 199.275 168.476 198.912C168.231 198.539 168.108 198.112 168.108 197.632C168.108 197.195 168.209 196.8 168.412 196.448C168.625 196.085 168.967 195.797 169.436 195.584C169.916 195.36 170.556 195.248 171.356 195.248H174.252V196.096H171.388C170.577 196.096 170.012 196.24 169.692 196.528C169.383 196.816 169.228 197.173 169.228 197.6C169.228 198.08 169.415 198.464 169.788 198.752C170.161 199.04 170.684 199.184 171.356 199.184C171.996 199.184 172.545 199.04 173.004 198.752C173.473 198.453 173.815 198.027 174.028 197.472L174.284 198.256C174.071 198.811 173.697 199.253 173.164 199.584C172.641 199.915 171.98 200.08 171.18 200.08ZM182.698 191.52C183.38 191.52 183.978 191.653 184.49 191.92C185.012 192.176 185.418 192.571 185.706 193.104C186.004 193.637 186.154 194.309 186.154 195.12V200H185.018V195.232C185.018 194.347 184.794 193.68 184.346 193.232C183.908 192.773 183.29 192.544 182.49 192.544C181.892 192.544 181.37 192.667 180.922 192.912C180.484 193.147 180.143 193.493 179.898 193.952C179.663 194.4 179.546 194.944 179.546 195.584V200H178.41V191.6H179.498V193.904L179.322 193.472C179.588 192.864 180.015 192.389 180.602 192.048C181.188 191.696 181.887 191.52 182.698 191.52ZM192.966 203.184C192.198 203.184 191.462 203.072 190.758 202.848C190.054 202.624 189.483 202.304 189.046 201.888L189.622 201.024C190.017 201.376 190.502 201.653 191.078 201.856C191.665 202.069 192.283 202.176 192.934 202.176C194.001 202.176 194.785 201.925 195.286 201.424C195.787 200.933 196.038 200.165 196.038 199.12V197.024L196.198 195.584L196.086 194.144V191.6H197.174V198.976C197.174 200.427 196.817 201.488 196.102 202.16C195.398 202.843 194.353 203.184 192.966 203.184ZM192.758 199.68C191.958 199.68 191.238 199.509 190.598 199.168C189.958 198.816 189.451 198.331 189.078 197.712C188.715 197.093 188.534 196.384 188.534 195.584C188.534 194.784 188.715 194.08 189.078 193.472C189.451 192.853 189.958 192.373 190.598 192.032C191.238 191.691 191.958 191.52 192.758 191.52C193.505 191.52 194.177 191.675 194.774 191.984C195.371 192.293 195.846 192.752 196.198 193.36C196.55 193.968 196.726 194.709 196.726 195.584C196.726 196.459 196.55 197.2 196.198 197.808C195.846 198.416 195.371 198.88 194.774 199.2C194.177 199.52 193.505 199.68 192.758 199.68ZM192.87 198.672C193.489 198.672 194.038 198.544 194.518 198.288C194.998 198.021 195.377 197.659 195.654 197.2C195.931 196.731 196.07 196.192 196.07 195.584C196.07 194.976 195.931 194.443 195.654 193.984C195.377 193.525 194.998 193.168 194.518 192.912C194.038 192.645 193.489 192.512 192.87 192.512C192.262 192.512 191.713 192.645 191.222 192.912C190.742 193.168 190.363 193.525 190.086 193.984C189.819 194.443 189.686 194.976 189.686 195.584C189.686 196.192 189.819 196.731 190.086 197.2C190.363 197.659 190.742 198.021 191.222 198.288C191.713 198.544 192.262 198.672 192.87 198.672ZM205.759 200V198.144L205.711 197.84V194.736C205.711 194.021 205.509 193.472 205.103 193.088C204.709 192.704 204.117 192.512 203.327 192.512C202.783 192.512 202.266 192.603 201.775 192.784C201.285 192.965 200.869 193.205 200.527 193.504L200.015 192.656C200.442 192.293 200.954 192.016 201.551 191.824C202.149 191.621 202.778 191.52 203.439 191.52C204.527 191.52 205.365 191.792 205.951 192.336C206.549 192.869 206.847 193.685 206.847 194.784V200H205.759ZM202.863 200.08C202.234 200.08 201.685 199.979 201.215 199.776C200.757 199.563 200.405 199.275 200.159 198.912C199.914 198.539 199.791 198.112 199.791 197.632C199.791 197.195 199.893 196.8 200.095 196.448C200.309 196.085 200.65 195.797 201.119 195.584C201.599 195.36 202.239 195.248 203.039 195.248H205.935V196.096H203.071C202.261 196.096 201.695 196.24 201.375 196.528C201.066 196.816 200.911 197.173 200.911 197.6C200.911 198.08 201.098 198.464 201.471 198.752C201.845 199.04 202.367 199.184 203.039 199.184C203.679 199.184 204.229 199.04 204.687 198.752C205.157 198.453 205.498 198.027 205.711 197.472L205.967 198.256C205.754 198.811 205.381 199.253 204.847 199.584C204.325 199.915 203.663 200.08 202.863 200.08ZM212.749 200.08C211.959 200.08 211.351 199.867 210.925 199.44C210.498 199.013 210.285 198.411 210.285 197.632V189.744H211.421V197.568C211.421 198.059 211.543 198.437 211.789 198.704C212.045 198.971 212.407 199.104 212.877 199.104C213.378 199.104 213.794 198.96 214.125 198.672L214.525 199.488C214.301 199.691 214.029 199.84 213.709 199.936C213.399 200.032 213.079 200.08 212.749 200.08ZM208.781 192.544V191.6H213.981V192.544H208.781ZM225.436 200.08C224.711 200.08 224.055 199.915 223.468 199.584C222.882 199.243 222.412 198.757 222.06 198.128C221.719 197.488 221.548 196.709 221.548 195.792C221.548 194.875 221.719 194.101 222.06 193.472C222.402 192.832 222.866 192.347 223.452 192.016C224.039 191.685 224.7 191.52 225.436 191.52C226.236 191.52 226.951 191.701 227.58 192.064C228.22 192.416 228.722 192.917 229.084 193.568C229.447 194.208 229.628 194.949 229.628 195.792C229.628 196.645 229.447 197.392 229.084 198.032C228.722 198.672 228.22 199.173 227.58 199.536C226.951 199.899 226.236 200.08 225.436 200.08ZM221.1 203.104V191.6H222.188V194.128L222.076 195.808L222.236 197.504V203.104H221.1ZM225.356 199.072C225.954 199.072 226.487 198.939 226.956 198.672C227.426 198.395 227.799 198.011 228.076 197.52C228.354 197.019 228.492 196.443 228.492 195.792C228.492 195.141 228.354 194.571 228.076 194.08C227.799 193.589 227.426 193.205 226.956 192.928C226.487 192.651 225.954 192.512 225.356 192.512C224.759 192.512 224.22 192.651 223.74 192.928C223.271 193.205 222.898 193.589 222.62 194.08C222.354 194.571 222.22 195.141 222.22 195.792C222.22 196.443 222.354 197.019 222.62 197.52C222.898 198.011 223.271 198.395 223.74 198.672C224.22 198.939 224.759 199.072 225.356 199.072ZM235.672 200.08C234.797 200.08 234.029 199.899 233.368 199.536C232.707 199.163 232.189 198.656 231.816 198.016C231.443 197.365 231.256 196.624 231.256 195.792C231.256 194.96 231.432 194.224 231.784 193.584C232.147 192.944 232.637 192.443 233.256 192.08C233.885 191.707 234.589 191.52 235.368 191.52C236.157 191.52 236.856 191.701 237.464 192.064C238.083 192.416 238.568 192.917 238.92 193.568C239.272 194.208 239.448 194.949 239.448 195.792C239.448 195.845 239.443 195.904 239.432 195.968C239.432 196.021 239.432 196.08 239.432 196.144H232.12V195.296H238.824L238.376 195.632C238.376 195.024 238.243 194.485 237.976 194.016C237.72 193.536 237.368 193.163 236.92 192.896C236.472 192.629 235.955 192.496 235.368 192.496C234.792 192.496 234.275 192.629 233.816 192.896C233.357 193.163 233 193.536 232.744 194.016C232.488 194.496 232.36 195.045 232.36 195.664V195.84C232.36 196.48 232.499 197.045 232.776 197.536C233.064 198.016 233.459 198.395 233.96 198.672C234.472 198.939 235.053 199.072 235.704 199.072C236.216 199.072 236.691 198.981 237.128 198.8C237.576 198.619 237.96 198.341 238.28 197.968L238.92 198.704C238.547 199.152 238.077 199.493 237.512 199.728C236.957 199.963 236.344 200.08 235.672 200.08ZM246.208 191.52C246.891 191.52 247.488 191.653 248 191.92C248.523 192.176 248.928 192.571 249.216 193.104C249.515 193.637 249.664 194.309 249.664 195.12V200H248.528V195.232C248.528 194.347 248.304 193.68 247.856 193.232C247.419 192.773 246.8 192.544 246 192.544C245.403 192.544 244.88 192.667 244.432 192.912C243.995 193.147 243.654 193.493 243.408 193.952C243.174 194.4 243.056 194.944 243.056 195.584V200H241.92V191.6H243.008V193.904L242.832 193.472C243.099 192.864 243.526 192.389 244.112 192.048C244.699 191.696 245.398 191.52 246.208 191.52ZM255.549 200.08C254.759 200.08 254.151 199.867 253.725 199.44C253.298 199.013 253.085 198.411 253.085 197.632V189.744H254.221V197.568C254.221 198.059 254.343 198.437 254.589 198.704C254.845 198.971 255.207 199.104 255.677 199.104C256.178 199.104 256.594 198.96 256.925 198.672L257.325 199.488C257.101 199.691 256.829 199.84 256.509 199.936C256.199 200.032 255.879 200.08 255.549 200.08ZM251.581 192.544V191.6H256.781V192.544H251.581ZM259.553 200V191.6H260.689V200H259.553ZM260.129 189.744C259.894 189.744 259.697 189.664 259.537 189.504C259.377 189.344 259.297 189.152 259.297 188.928C259.297 188.704 259.377 188.517 259.537 188.368C259.697 188.208 259.894 188.128 260.129 188.128C260.363 188.128 260.561 188.203 260.721 188.352C260.881 188.501 260.961 188.688 260.961 188.912C260.961 189.147 260.881 189.344 260.721 189.504C260.571 189.664 260.374 189.744 260.129 189.744ZM268.298 191.52C268.98 191.52 269.578 191.653 270.09 191.92C270.612 192.176 271.018 192.571 271.306 193.104C271.604 193.637 271.754 194.309 271.754 195.12V200H270.618V195.232C270.618 194.347 270.394 193.68 269.946 193.232C269.508 192.773 268.89 192.544 268.09 192.544C267.492 192.544 266.97 192.667 266.522 192.912C266.084 193.147 265.743 193.493 265.498 193.952C265.263 194.4 265.146 194.944 265.146 195.584V200H264.01V191.6H265.098V193.904L264.922 193.472C265.188 192.864 265.615 192.389 266.202 192.048C266.788 191.696 267.487 191.52 268.298 191.52ZM278.566 203.184C277.798 203.184 277.062 203.072 276.358 202.848C275.654 202.624 275.083 202.304 274.646 201.888L275.222 201.024C275.617 201.376 276.102 201.653 276.678 201.856C277.265 202.069 277.883 202.176 278.534 202.176C279.601 202.176 280.385 201.925 280.886 201.424C281.387 200.933 281.638 200.165 281.638 199.12V197.024L281.798 195.584L281.686 194.144V191.6H282.774V198.976C282.774 200.427 282.417 201.488 281.702 202.16C280.998 202.843 279.953 203.184 278.566 203.184ZM278.358 199.68C277.558 199.68 276.838 199.509 276.198 199.168C275.558 198.816 275.051 198.331 274.678 197.712C274.315 197.093 274.134 196.384 274.134 195.584C274.134 194.784 274.315 194.08 274.678 193.472C275.051 192.853 275.558 192.373 276.198 192.032C276.838 191.691 277.558 191.52 278.358 191.52C279.105 191.52 279.777 191.675 280.374 191.984C280.971 192.293 281.446 192.752 281.798 193.36C282.15 193.968 282.326 194.709 282.326 195.584C282.326 196.459 282.15 197.2 281.798 197.808C281.446 198.416 280.971 198.88 280.374 199.2C279.777 199.52 279.105 199.68 278.358 199.68ZM278.47 198.672C279.089 198.672 279.638 198.544 280.118 198.288C280.598 198.021 280.977 197.659 281.254 197.2C281.531 196.731 281.67 196.192 281.67 195.584C281.67 194.976 281.531 194.443 281.254 193.984C280.977 193.525 280.598 193.168 280.118 192.912C279.638 192.645 279.089 192.512 278.47 192.512C277.862 192.512 277.313 192.645 276.822 192.912C276.342 193.168 275.963 193.525 275.686 193.984C275.419 194.443 275.286 194.976 275.286 195.584C275.286 196.192 275.419 196.731 275.686 197.2C275.963 197.659 276.342 198.021 276.822 198.288C277.313 198.544 277.862 198.672 278.47 198.672ZM294.779 200.08C294.043 200.08 293.381 199.915 292.795 199.584C292.208 199.243 291.744 198.752 291.403 198.112C291.061 197.472 290.891 196.699 290.891 195.792C290.891 194.875 291.061 194.101 291.403 193.472C291.755 192.832 292.224 192.347 292.811 192.016C293.397 191.685 294.053 191.52 294.779 191.52C295.579 191.52 296.293 191.701 296.923 192.064C297.563 192.416 298.064 192.912 298.427 193.552C298.789 194.192 298.971 194.939 298.971 195.792C298.971 196.635 298.789 197.381 298.427 198.032C298.064 198.672 297.563 199.173 296.923 199.536C296.293 199.899 295.579 200.08 294.779 200.08ZM290.443 200V188.128H291.579V194.08L291.419 195.776L291.531 197.472V200H290.443ZM294.699 199.072C295.296 199.072 295.829 198.939 296.299 198.672C296.768 198.395 297.141 198.011 297.419 197.52C297.696 197.019 297.835 196.443 297.835 195.792C297.835 195.131 297.696 194.555 297.419 194.064C297.141 193.573 296.768 193.195 296.299 192.928C295.829 192.651 295.296 192.512 294.699 192.512C294.101 192.512 293.563 192.651 293.083 192.928C292.613 193.195 292.24 193.573 291.963 194.064C291.696 194.555 291.563 195.131 291.563 195.792C291.563 196.443 291.696 197.019 291.963 197.52C292.24 198.011 292.613 198.395 293.083 198.672C293.563 198.939 294.101 199.072 294.699 199.072ZM306.664 200V198.144L306.616 197.84V194.736C306.616 194.021 306.413 193.472 306.008 193.088C305.613 192.704 305.021 192.512 304.232 192.512C303.688 192.512 303.17 192.603 302.68 192.784C302.189 192.965 301.773 193.205 301.432 193.504L300.92 192.656C301.346 192.293 301.858 192.016 302.456 191.824C303.053 191.621 303.682 191.52 304.344 191.52C305.432 191.52 306.269 191.792 306.856 192.336C307.453 192.869 307.752 193.685 307.752 194.784V200H306.664ZM303.768 200.08C303.138 200.08 302.589 199.979 302.12 199.776C301.661 199.563 301.309 199.275 301.064 198.912C300.818 198.539 300.696 198.112 300.696 197.632C300.696 197.195 300.797 196.8 301 196.448C301.213 196.085 301.554 195.797 302.024 195.584C302.504 195.36 303.144 195.248 303.944 195.248H306.84V196.096H303.976C303.165 196.096 302.6 196.24 302.28 196.528C301.97 196.816 301.816 197.173 301.816 197.6C301.816 198.08 302.002 198.464 302.376 198.752C302.749 199.04 303.272 199.184 303.944 199.184C304.584 199.184 305.133 199.04 305.592 198.752C306.061 198.453 306.402 198.027 306.616 197.472L306.872 198.256C306.658 198.811 306.285 199.253 305.752 199.584C305.229 199.915 304.568 200.08 303.768 200.08ZM314.581 203.184C313.813 203.184 313.077 203.072 312.373 202.848C311.669 202.624 311.098 202.304 310.661 201.888L311.237 201.024C311.632 201.376 312.117 201.653 312.693 201.856C313.28 202.069 313.898 202.176 314.549 202.176C315.616 202.176 316.4 201.925 316.901 201.424C317.402 200.933 317.653 200.165 317.653 199.12V197.024L317.813 195.584L317.701 194.144V191.6H318.789V198.976C318.789 200.427 318.432 201.488 317.717 202.16C317.013 202.843 315.968 203.184 314.581 203.184ZM314.373 199.68C313.573 199.68 312.853 199.509 312.213 199.168C311.573 198.816 311.066 198.331 310.693 197.712C310.33 197.093 310.149 196.384 310.149 195.584C310.149 194.784 310.33 194.08 310.693 193.472C311.066 192.853 311.573 192.373 312.213 192.032C312.853 191.691 313.573 191.52 314.373 191.52C315.12 191.52 315.792 191.675 316.389 191.984C316.986 192.293 317.461 192.752 317.813 193.36C318.165 193.968 318.341 194.709 318.341 195.584C318.341 196.459 318.165 197.2 317.813 197.808C317.461 198.416 316.986 198.88 316.389 199.2C315.792 199.52 315.12 199.68 314.373 199.68ZM314.485 198.672C315.104 198.672 315.653 198.544 316.133 198.288C316.613 198.021 316.992 197.659 317.269 197.2C317.546 196.731 317.685 196.192 317.685 195.584C317.685 194.976 317.546 194.443 317.269 193.984C316.992 193.525 316.613 193.168 316.133 192.912C315.653 192.645 315.104 192.512 314.485 192.512C313.877 192.512 313.328 192.645 312.837 192.912C312.357 193.168 311.978 193.525 311.701 193.984C311.434 194.443 311.301 194.976 311.301 195.584C311.301 196.192 311.434 196.731 311.701 197.2C311.978 197.659 312.357 198.021 312.837 198.288C313.328 198.544 313.877 198.672 314.485 198.672ZM322.11 200V191.6H323.246V200H322.11ZM322.686 189.744C322.452 189.744 322.254 189.664 322.094 189.504C321.934 189.344 321.854 189.152 321.854 188.928C321.854 188.704 321.934 188.517 322.094 188.368C322.254 188.208 322.452 188.128 322.686 188.128C322.921 188.128 323.118 188.203 323.278 188.352C323.438 188.501 323.518 188.688 323.518 188.912C323.518 189.147 323.438 189.344 323.278 189.504C323.129 189.664 322.932 189.744 322.686 189.744ZM331.811 197.824L331.843 196.368L337.075 191.6H338.467L334.771 195.136L334.131 195.68L331.811 197.824ZM330.915 200V188.128H332.051V200H330.915ZM337.427 200L333.923 195.632L334.659 194.752L338.819 200H337.427ZM345.792 200V198.144L345.744 197.84V194.736C345.744 194.021 345.541 193.472 345.136 193.088C344.741 192.704 344.149 192.512 343.36 192.512C342.816 192.512 342.298 192.603 341.808 192.784C341.317 192.965 340.901 193.205 340.56 193.504L340.048 192.656C340.474 192.293 340.986 192.016 341.584 191.824C342.181 191.621 342.81 191.52 343.472 191.52C344.56 191.52 345.397 191.792 345.984 192.336C346.581 192.869 346.88 193.685 346.88 194.784V200H345.792ZM342.896 200.08C342.266 200.08 341.717 199.979 341.248 199.776C340.789 199.563 340.437 199.275 340.192 198.912C339.946 198.539 339.824 198.112 339.824 197.632C339.824 197.195 339.925 196.8 340.128 196.448C340.341 196.085 340.682 195.797 341.152 195.584C341.632 195.36 342.272 195.248 343.072 195.248H345.968V196.096H343.104C342.293 196.096 341.728 196.24 341.408 196.528C341.098 196.816 340.944 197.173 340.944 197.6C340.944 198.08 341.13 198.464 341.504 198.752C341.877 199.04 342.4 199.184 343.072 199.184C343.712 199.184 344.261 199.04 344.72 198.752C345.189 198.453 345.53 198.027 345.744 197.472L346 198.256C345.786 198.811 345.413 199.253 344.88 199.584C344.357 199.915 343.696 200.08 342.896 200.08ZM360.621 191.52C361.304 191.52 361.896 191.653 362.397 191.92C362.909 192.176 363.304 192.571 363.581 193.104C363.869 193.637 364.013 194.309 364.013 195.12V200H362.877V195.232C362.877 194.347 362.664 193.68 362.237 193.232C361.821 192.773 361.229 192.544 360.461 192.544C359.885 192.544 359.384 192.667 358.957 192.912C358.541 193.147 358.216 193.493 357.981 193.952C357.757 194.4 357.645 194.944 357.645 195.584V200H356.509V195.232C356.509 194.347 356.296 193.68 355.869 193.232C355.443 192.773 354.845 192.544 354.077 192.544C353.512 192.544 353.016 192.667 352.589 192.912C352.163 193.147 351.832 193.493 351.597 193.952C351.373 194.4 351.261 194.944 351.261 195.584V200H350.125V191.6H351.213V193.872L351.037 193.472C351.293 192.864 351.704 192.389 352.269 192.048C352.845 191.696 353.523 191.52 354.301 191.52C355.123 191.52 355.821 191.728 356.397 192.144C356.973 192.549 357.347 193.163 357.517 193.984L357.069 193.808C357.315 193.125 357.747 192.576 358.365 192.16C358.995 191.733 359.747 191.52 360.621 191.52ZM367.254 200V191.6H368.39V200H367.254ZM367.83 189.744C367.595 189.744 367.398 189.664 367.238 189.504C367.078 189.344 366.998 189.152 366.998 188.928C366.998 188.704 367.078 188.517 367.238 188.368C367.398 188.208 367.595 188.128 367.83 188.128C368.065 188.128 368.262 188.203 368.422 188.352C368.582 188.501 368.662 188.688 368.662 188.912C368.662 189.147 368.582 189.344 368.422 189.504C368.273 189.664 368.075 189.744 367.83 189.744ZM371.823 200.08C371.588 200.08 371.386 199.995 371.215 199.824C371.055 199.653 370.975 199.445 370.975 199.2C370.975 198.944 371.055 198.736 371.215 198.576C371.386 198.416 371.588 198.336 371.823 198.336C372.058 198.336 372.255 198.416 372.415 198.576C372.586 198.736 372.671 198.944 372.671 199.2C372.671 199.445 372.586 199.653 372.415 199.824C372.255 199.995 372.058 200.08 371.823 200.08Z" fill="white"/>
</svg>
