<svg width="364" height="63" viewBox="0 0 364 63" fill="none" xmlns="http://www.w3.org/2000/svg">
<circle cx="31.0739" cy="31.0739" r="31.0739" fill="#D9D9D9"/>
<circle cx="31.0739" cy="42.2605" r="9.94365" fill="#828282"/>
<path d="M53.2209 20.1135L28.7246 37.8522C26.3129 39.5986 26.0355 43.088 28.141 45.1934C30.2465 47.2989 33.7358 47.0215 35.4822 44.6098L53.2209 20.1135Z" fill="#333333"/>
<path d="M81.8532 46.9018C81.0161 46.9018 80.3374 46.2231 80.3374 45.386V11.8036C80.3374 10.9665 81.016 10.2878 81.8532 10.2878H88.6664C89.5035 10.2878 90.1822 10.9665 90.1822 11.8036V16.4581C90.1822 16.5785 90.2798 16.6762 90.4003 16.6762C90.4971 16.6762 90.5822 16.6121 90.6105 16.5196C91.283 14.3247 92.3877 12.6606 93.9246 11.5274C95.4979 10.3514 97.3095 9.76341 99.3595 9.76341C99.868 9.76341 100.416 9.7952 101.004 9.85876C101.137 9.87308 101.265 9.8886 101.391 9.90534C102.08 9.99751 102.554 10.6089 102.554 11.3045V17.1146C102.554 18.1198 101.572 18.8817 100.575 18.75C99.7329 18.6388 98.9622 18.5832 98.263 18.5832C96.7692 18.5832 95.4343 18.9089 94.2583 19.5605C93.0982 20.1962 92.1765 21.0861 91.4932 22.2303C90.8258 23.3744 90.492 24.6934 90.492 26.1872V45.386C90.492 46.2231 89.8134 46.9018 88.9762 46.9018H81.8532Z" fill="#D9D9D9"/>
<path d="M122.642 47.6169C118.94 47.6169 115.738 46.8302 113.036 45.257C110.35 43.6678 108.277 41.4589 106.815 38.6302C105.353 35.7857 104.622 32.4882 104.622 28.7378C104.622 24.9556 105.353 21.6502 106.815 18.8215C108.277 15.977 110.35 13.7681 113.036 12.1948C115.738 10.6057 118.94 9.81109 122.642 9.81109C126.345 9.81109 129.539 10.6057 132.225 12.1948C134.927 13.7681 137.008 15.977 138.47 18.8215C139.932 21.6502 140.663 24.9556 140.663 28.7378C140.663 32.4882 139.932 35.7857 138.47 38.6302C137.008 41.4589 134.927 43.6678 132.225 45.257C129.539 46.8302 126.345 47.6169 122.642 47.6169ZM122.69 39.7506C124.375 39.7506 125.781 39.2739 126.909 38.3204C128.038 37.351 128.888 36.032 129.46 34.3634C130.048 32.6948 130.342 30.7958 130.342 28.6663C130.342 26.5368 130.048 24.6378 129.46 22.9692C128.888 21.3006 128.038 19.9816 126.909 19.0122C125.781 18.0429 124.375 17.5582 122.69 17.5582C120.99 17.5582 119.56 18.0429 118.399 19.0122C117.255 19.9816 116.389 21.3006 115.801 22.9692C115.229 24.6378 114.943 26.5368 114.943 28.6663C114.943 30.7958 115.229 32.6948 115.801 34.3634C116.389 36.032 117.255 37.351 118.399 38.3204C119.56 39.2739 120.99 39.7506 122.69 39.7506Z" fill="#D9D9D9"/>
<path d="M177.423 19.133C177.642 19.984 176.985 20.7744 176.108 20.8284L169.754 21.2194C168.997 21.2659 168.347 20.7296 168.002 20.0548C167.841 19.7391 167.643 19.4393 167.409 19.1553C166.884 18.5037 166.193 17.9872 165.335 17.6058C164.493 17.2086 163.484 17.0099 162.308 17.0099C160.734 17.0099 159.407 17.3436 158.327 18.0111C157.246 18.6626 156.706 19.5367 156.706 20.6332C156.706 21.5072 157.055 22.2462 157.755 22.85C158.454 23.4539 159.654 23.9386 161.354 24.3041L167.981 25.639C171.54 26.37 174.194 27.546 175.942 29.1669C177.69 30.7878 178.565 32.9173 178.565 35.5553C178.565 37.9549 177.857 40.0605 176.443 41.8721C175.045 43.6837 173.122 45.0981 170.674 46.1151C168.243 47.1163 165.438 47.6169 162.26 47.6169C157.413 47.6169 153.551 46.6078 150.675 44.5895C148.272 42.8807 146.704 40.656 145.972 37.9153C145.743 37.056 146.409 36.2541 147.298 36.2074L154.33 35.8382C155.079 35.7989 155.72 36.3266 156.024 37.0126C156.415 37.897 157.016 38.611 157.826 39.1547C158.986 39.9175 160.472 40.2989 162.284 40.2989C164.064 40.2989 165.494 39.9572 166.574 39.2739C167.671 38.5746 168.227 37.6768 168.243 36.5803C168.227 35.6585 167.838 34.9037 167.075 34.3157C166.312 33.7118 165.136 33.251 163.547 32.9332L157.206 31.6698C153.631 30.9547 150.969 29.7151 149.221 27.9512C147.489 26.1872 146.623 23.9386 146.623 21.2053C146.623 18.8533 147.258 16.8272 148.53 15.1268C149.817 13.4264 151.621 12.1154 153.941 11.1936C156.277 10.2719 159.01 9.81109 162.141 9.81109C166.765 9.81109 170.404 10.7884 173.058 12.7431C175.291 14.3782 176.746 16.5082 177.423 19.133Z" fill="#D9D9D9"/>
<path d="M215.115 19.133C215.335 19.984 214.677 20.7744 213.8 20.8284L207.446 21.2194C206.69 21.2659 206.04 20.7296 205.695 20.0548C205.533 19.7391 205.336 19.4393 205.101 19.1553C204.577 18.5037 203.886 17.9872 203.027 17.6058C202.185 17.2086 201.176 17.0099 200 17.0099C198.427 17.0099 197.1 17.3436 196.019 18.0111C194.939 18.6626 194.398 19.5367 194.398 20.6332C194.398 21.5072 194.748 22.2462 195.447 22.85C196.146 23.4539 197.346 23.9386 199.047 24.3041L205.673 25.639C209.233 26.37 211.887 27.546 213.635 29.1669C215.383 30.7878 216.257 32.9173 216.257 35.5553C216.257 37.9549 215.55 40.0605 214.136 41.8721C212.737 43.6837 210.814 45.0981 208.367 46.1151C205.936 47.1163 203.131 47.6169 199.952 47.6169C195.106 47.6169 191.244 46.6078 188.368 44.5895C185.965 42.8807 184.397 40.656 183.665 37.9153C183.436 37.056 184.102 36.2541 184.99 36.2074L192.022 35.8382C192.772 35.7989 193.413 36.3266 193.716 37.0126C194.108 37.897 194.709 38.611 195.519 39.1547C196.679 39.9175 198.165 40.2989 199.976 40.2989C201.756 40.2989 203.186 39.9572 204.267 39.2739C205.363 38.5746 205.92 37.6768 205.936 36.5803C205.92 35.6585 205.53 34.9037 204.768 34.3157C204.005 33.7118 202.829 33.251 201.24 32.9332L194.899 31.6698C191.323 30.9547 188.662 29.7151 186.913 27.9512C185.181 26.1872 184.315 23.9386 184.315 21.2053C184.315 18.8533 184.951 16.8272 186.222 15.1268C187.509 13.4264 189.313 12.1154 191.633 11.1936C193.969 10.2719 196.703 9.81109 199.833 9.81109C204.458 9.81109 208.097 10.7884 210.751 12.7431C212.984 14.3782 214.439 16.5082 215.115 19.133Z" fill="#D9D9D9"/>
<path d="M228.921 60.632C227.633 60.632 226.426 60.5287 225.297 60.3221C224.767 60.2311 224.28 60.1276 223.836 60.0113C223.082 59.8138 222.704 59.0145 222.929 58.2684L224.381 53.4604C224.623 52.6565 225.472 52.2148 226.294 52.3824C226.914 52.5086 227.496 52.5807 228.039 52.5988C229.008 52.6306 229.842 52.4081 230.542 51.9314C231.257 51.4547 231.837 50.6442 232.282 49.5L232.678 48.4692C232.807 48.1344 232.813 47.7647 232.695 47.4259L220.446 12.3028C220.102 11.3175 220.834 10.2878 221.877 10.2878H229.275C229.954 10.2878 230.55 10.739 230.734 11.3923L237.951 36.9924C237.981 37.1011 238.081 37.1762 238.193 37.1762C238.306 37.1762 238.405 37.1014 238.436 36.993L245.722 11.3887C245.908 10.7372 246.503 10.2878 247.18 10.2878H254.648C255.693 10.2878 256.424 11.3196 256.079 12.3054L242.555 50.8587C241.872 52.8293 240.942 54.5455 239.766 56.0076C238.606 57.4855 237.136 58.6217 235.357 59.4163C233.577 60.2267 231.431 60.632 228.921 60.632Z" fill="#D9D9D9"/>
<path d="M272.137 25.7343V45.386C272.137 46.2231 271.459 46.9018 270.622 46.9018H263.499C262.661 46.9018 261.983 46.2231 261.983 45.386V11.8036C261.983 10.9665 262.661 10.2878 263.499 10.2878H270.145C270.982 10.2878 271.661 10.9665 271.661 11.8036V16.4937C271.661 16.634 271.774 16.7477 271.915 16.7477C272.02 16.7477 272.114 16.6824 272.153 16.5845C272.97 14.532 274.308 12.9019 276.166 11.6942C278.073 10.4388 280.385 9.81109 283.103 9.81109C285.645 9.81109 287.862 10.3673 289.753 11.4797C291.644 12.5921 293.114 14.1812 294.163 16.2471C295.212 18.2971 295.736 20.7444 295.736 23.589V45.386C295.736 46.2231 295.058 46.9018 294.22 46.9018H287.097C286.26 46.9018 285.582 46.2231 285.582 45.386V25.4006C285.597 23.1599 285.025 21.4119 283.865 20.1564C282.705 18.8851 281.108 18.2495 279.074 18.2495C277.707 18.2495 276.5 18.5434 275.451 19.1314C274.418 19.7194 273.607 20.5776 273.019 21.7058C272.447 22.8182 272.153 24.1611 272.137 25.7343Z" fill="#D9D9D9"/>
<path d="M320.426 47.6169C316.659 47.6169 313.417 46.8541 310.7 45.3285C307.998 43.787 305.917 41.6099 304.455 38.7971C302.993 35.9684 302.262 32.6233 302.262 28.7617C302.262 24.9954 302.993 21.69 304.455 18.8454C305.917 16.0008 307.975 13.784 310.629 12.1948C313.298 10.6057 316.429 9.81109 320.02 9.81109C322.436 9.81109 324.684 10.2004 326.766 10.9791C328.864 11.7419 330.691 12.894 332.249 14.4355C333.822 15.977 335.046 17.9157 335.92 20.2518C336.794 22.5719 337.231 25.2894 337.231 28.4041V29.6772C337.231 30.5144 336.552 31.193 335.715 31.193H307.83C306.993 31.193 306.314 30.5144 306.314 29.6772V26.4158C306.314 25.5787 306.993 24.9 307.83 24.9H326.156C326.993 24.9 327.69 24.2162 327.549 23.3909C327.403 22.5302 327.126 21.7381 326.719 21.0146C326.083 19.8863 325.201 19.0043 324.073 18.3686C322.96 17.7171 321.665 17.3913 320.187 17.3913C318.646 17.3913 317.279 17.7489 316.087 18.464C314.911 19.1632 313.99 20.1088 313.322 21.3006C312.655 22.4766 312.313 23.7876 312.297 25.2337V31.2169C312.297 33.0285 312.631 34.5938 313.298 35.9128C313.982 37.2318 314.943 38.2489 316.183 38.964C317.422 39.6791 318.892 40.0366 320.592 40.0366C321.721 40.0366 322.754 39.8777 323.691 39.5599C324.629 39.2421 325.431 38.7653 326.099 38.1297C326.506 37.7416 326.855 37.3003 327.144 36.8056C327.48 36.2302 328.079 35.8236 328.744 35.8675L335.272 36.2983C336.192 36.359 336.853 37.2258 336.549 38.0972C336.004 39.6643 335.182 41.0736 334.084 42.325C332.622 43.9936 330.731 45.2967 328.411 46.2343C326.107 47.156 323.445 47.6169 320.426 47.6169Z" fill="#D9D9D9"/>
<path d="M361.817 10.2878C362.654 10.2878 363.333 10.9665 363.333 11.8036V16.3999C363.333 17.2371 362.654 17.9157 361.817 17.9157H342.799C341.962 17.9157 341.283 17.2371 341.283 16.3999V11.8036C341.283 10.9665 341.962 10.2878 342.799 10.2878H361.817ZM346.289 3.03155C346.289 2.19439 346.968 1.51575 347.805 1.51575H354.928C355.765 1.51575 356.444 2.19439 356.444 3.03155V35.6506C356.444 36.5882 356.587 37.3192 356.873 37.8436C357.159 38.3521 357.556 38.7097 358.065 38.9163C358.589 39.1229 359.193 39.2262 359.876 39.2262C360.353 39.2262 360.83 39.1864 361.306 39.107C361.915 38.9852 362.505 39.3779 362.634 39.9856L363.715 45.0999C363.876 45.8647 363.429 46.6238 362.669 46.8078C362.418 46.8685 362.147 46.9316 361.855 46.9971C360.933 47.2196 359.813 47.3547 358.494 47.4023C356.046 47.4977 353.901 47.1719 352.058 46.425C350.23 45.6781 348.808 44.518 347.791 42.9448C346.774 41.3715 346.273 39.3851 346.289 36.9855V3.03155Z" fill="#D9D9D9"/>
</svg>
