<svg width="273" height="47" viewBox="0 0 273 47" fill="none" xmlns="http://www.w3.org/2000/svg">
<circle cx="23.3054" cy="23.3054" r="23.3054" fill="#3330E4"/>
<circle cx="23.3054" cy="31.6955" r="7.45774" fill="white"/>
<path d="M39.9157 15.0852L21.5435 28.3892C19.7347 29.699 19.5267 32.316 21.1058 33.8951C22.6849 35.4742 25.3019 35.2662 26.6117 33.4574L39.9157 15.0852Z" fill="#E60069"/>
<path d="M61.3899 35.1765C60.762 35.1765 60.2531 34.6675 60.2531 34.0396V8.85288C60.2531 8.22501 60.762 7.71603 61.3899 7.71603H66.4998C67.1276 7.71603 67.6366 8.22501 67.6366 8.85288V12.3437C67.6366 12.4341 67.7099 12.5073 67.8002 12.5073C67.8728 12.5073 67.9366 12.4593 67.9579 12.3898C68.4623 10.7437 69.2908 9.49563 70.4435 8.64568C71.6234 7.7637 72.9821 7.32271 74.5196 7.32271C74.901 7.32271 75.3122 7.34655 75.7532 7.39422C75.8525 7.40496 75.9491 7.4166 76.043 7.42915C76.56 7.49828 76.9152 7.95684 76.9152 8.47851V12.8361C76.9152 13.59 76.1788 14.1614 75.4314 14.0627C74.7997 13.9792 74.2216 13.9375 73.6972 13.9375C72.5769 13.9375 71.5757 14.1819 70.6937 14.6705C69.8237 15.1473 69.1324 15.8147 68.6199 16.6728C68.1193 17.531 67.869 18.5202 67.869 19.6406V34.0396C67.869 34.6675 67.36 35.1765 66.7322 35.1765H61.3899Z" fill="#333333"/>
<path d="M91.9818 35.7128C89.2048 35.7128 86.8032 35.1228 84.7771 33.9429C82.7628 32.751 81.2074 31.0943 80.1109 28.9728C79.0144 26.8394 78.4662 24.3663 78.4662 21.5535C78.4662 18.7169 79.0144 16.2378 80.1109 14.1163C81.2074 11.9829 82.7628 10.3262 84.7771 9.14626C86.8032 7.9544 89.2048 7.35847 91.9818 7.35847C94.7589 7.35847 97.1545 7.9544 99.1688 9.14626C101.195 10.3262 102.756 11.9829 103.853 14.1163C104.949 16.2378 105.498 18.7169 105.498 21.5535C105.498 24.3663 104.949 26.8394 103.853 28.9728C102.756 31.0943 101.195 32.751 99.1688 33.9429C97.1545 35.1228 94.7589 35.7128 91.9818 35.7128ZM92.0176 29.8131C93.281 29.8131 94.3358 29.4555 95.182 28.7404C96.0282 28.0134 96.6659 27.0242 97.0949 25.7727C97.5359 24.5212 97.7564 23.097 97.7564 21.4999C97.7564 19.9028 97.5359 18.4785 97.0949 17.2271C96.6659 15.9756 96.0282 14.9864 95.182 14.2593C94.3358 13.5323 93.281 13.1688 92.0176 13.1688C90.7423 13.1688 89.6696 13.5323 88.7996 14.2593C87.9414 14.9864 87.2919 15.9756 86.8509 17.2271C86.4218 18.4785 86.2073 19.9028 86.2073 21.4999C86.2073 23.097 86.4218 24.5212 86.8509 25.7727C87.2919 27.0242 87.9414 28.0134 88.7996 28.7404C89.6696 29.4555 90.7423 29.8131 92.0176 29.8131Z" fill="#333333"/>
<path d="M133.067 14.3499C133.232 14.9882 132.739 15.5809 132.081 15.6214L127.315 15.9147C126.748 15.9496 126.26 15.5474 126.002 15.0413C125.881 14.8045 125.732 14.5796 125.557 14.3666C125.163 13.8779 124.645 13.4906 124.001 13.2045C123.369 12.9066 122.613 12.7576 121.731 12.7576C120.551 12.7576 119.556 13.0079 118.745 13.5085C117.935 13.9971 117.529 14.6526 117.529 15.475C117.529 16.1306 117.792 16.6848 118.316 17.1377C118.84 17.5906 119.74 17.9541 121.016 18.2282L125.986 19.2294C128.655 19.7776 130.646 20.6596 131.957 21.8753C133.268 23.091 133.923 24.6881 133.923 26.6666C133.923 28.4663 133.393 30.0455 132.332 31.4042C131.283 32.763 129.841 33.8237 128.006 34.5865C126.182 35.3374 124.079 35.7128 121.695 35.7128C118.06 35.7128 115.164 34.956 113.006 33.4423C111.204 32.1607 110.028 30.4921 109.479 28.4366C109.307 27.7921 109.807 27.1907 110.473 27.1557L115.747 26.8788C116.309 26.8493 116.79 27.2451 117.018 27.7596C117.312 28.4229 117.762 28.9584 118.37 29.3662C119.24 29.9382 120.354 30.2243 121.713 30.2243C123.048 30.2243 124.12 29.968 124.931 29.4555C125.753 28.9311 126.17 28.2577 126.182 27.4353C126.17 26.7441 125.878 26.1779 125.306 25.7369C124.734 25.284 123.852 24.9384 122.66 24.7L117.905 23.7525C115.223 23.2162 113.227 22.2865 111.916 20.9635C110.617 19.6406 109.967 17.9541 109.967 15.9041C109.967 14.1401 110.444 12.6205 111.397 11.3452C112.363 10.0699 113.715 9.08667 115.456 8.39539C117.208 7.70411 119.258 7.35847 121.606 7.35847C125.074 7.35847 127.803 8.09146 129.794 9.55745C131.469 10.7838 132.56 12.3813 133.067 14.3499Z" fill="#333333"/>
<path d="M161.337 14.3499C161.501 14.9882 161.008 15.5809 160.35 15.6214L155.585 15.9147C155.018 15.9496 154.53 15.5474 154.271 15.0413C154.15 14.8045 154.002 14.5796 153.826 14.3666C153.433 13.8779 152.914 13.4906 152.271 13.2045C151.639 12.9066 150.882 12.7576 150 12.7576C148.82 12.7576 147.825 13.0079 147.014 13.5085C146.204 13.9971 145.799 14.6526 145.799 15.475C145.799 16.1306 146.061 16.6848 146.585 17.1377C147.11 17.5906 148.01 17.9541 149.285 18.2282L154.255 19.2294C156.925 19.7776 158.915 20.6596 160.226 21.8753C161.537 23.091 162.193 24.6881 162.193 26.6666C162.193 28.4663 161.662 30.0455 160.602 31.4042C159.553 32.763 158.111 33.8237 156.275 34.5865C154.452 35.3374 152.348 35.7128 149.964 35.7128C146.329 35.7128 143.433 34.956 141.276 33.4423C139.473 32.1607 138.298 30.4921 137.749 28.4366C137.577 27.7921 138.077 27.1907 138.743 27.1557L144.017 26.8788C144.579 26.8493 145.059 27.2451 145.287 27.7596C145.581 28.4229 146.032 28.9584 146.639 29.3662C147.509 29.9382 148.623 30.2243 149.982 30.2243C151.317 30.2243 152.39 29.968 153.2 29.4555C154.023 28.9311 154.44 28.2577 154.452 27.4353C154.44 26.7441 154.148 26.1779 153.576 25.7369C153.004 25.284 152.122 24.9384 150.93 24.7L146.174 23.7525C143.493 23.2162 141.496 22.2865 140.185 20.9635C138.886 19.6406 138.236 17.9541 138.236 15.9041C138.236 14.1401 138.713 12.6205 139.667 11.3452C140.632 10.0699 141.985 9.08667 143.725 8.39539C145.477 7.70411 147.527 7.35847 149.875 7.35847C153.343 7.35847 156.073 8.09146 158.063 9.55745C159.738 10.7838 160.829 12.3813 161.337 14.3499Z" fill="#333333"/>
<path d="M171.69 45.4741C170.725 45.4741 169.819 45.3967 168.973 45.2417C168.575 45.1735 168.21 45.0958 167.877 45.0086C167.311 44.8605 167.028 44.261 167.197 43.7014L168.285 40.0954C168.467 39.4925 169.104 39.1613 169.721 39.2869C170.186 39.3816 170.622 39.4357 171.029 39.4493C171.756 39.4731 172.382 39.3063 172.906 38.9487C173.442 38.5911 173.877 37.9833 174.211 37.1252L174.509 36.3521C174.605 36.1009 174.61 35.8237 174.521 35.5696L165.334 9.22722C165.077 8.48829 165.625 7.71603 166.408 7.71603H171.956C172.465 7.71603 172.912 8.05444 173.05 8.5444L178.463 27.7445C178.486 27.826 178.56 27.8823 178.645 27.8823C178.73 27.8823 178.804 27.8262 178.827 27.7449L184.292 8.54171C184.431 8.05309 184.877 7.71603 185.385 7.71603H190.986C191.77 7.71603 192.318 8.48988 192.059 9.22917L181.917 38.1442C181.404 39.6221 180.707 40.9093 179.825 42.0058C178.955 43.1143 177.852 43.9664 176.517 44.5624C175.183 45.1702 173.574 45.4741 171.69 45.4741Z" fill="#333333"/>
<path d="M204.103 19.3009V34.0396C204.103 34.6675 203.594 35.1765 202.966 35.1765H197.624C196.996 35.1765 196.487 34.6675 196.487 34.0396V8.85288C196.487 8.22501 196.996 7.71603 197.624 7.71603H202.609C203.237 7.71603 203.745 8.22501 203.745 8.85288V12.3704C203.745 12.4757 203.831 12.5609 203.936 12.5609C204.015 12.5609 204.086 12.512 204.115 12.4385C204.728 10.8991 205.731 9.67659 207.124 8.77082C208.555 7.82925 210.289 7.35847 212.327 7.35847C214.234 7.35847 215.896 7.77562 217.315 8.60992C218.733 9.44422 219.836 10.6361 220.622 12.1855C221.409 13.723 221.802 15.5585 221.802 17.6919V34.0396C221.802 34.6675 221.293 35.1765 220.665 35.1765H215.323C214.695 35.1765 214.186 34.6675 214.186 34.0396V19.0506C214.198 17.3701 213.769 16.059 212.899 15.1175C212.029 14.164 210.831 13.6872 209.306 13.6872C208.281 13.6872 207.375 13.9077 206.588 14.3487C205.813 14.7897 205.206 15.4333 204.765 16.2795C204.335 17.1138 204.115 18.121 204.103 19.3009Z" fill="#333333"/>
<path d="M240.319 35.7128C237.494 35.7128 235.063 35.1407 233.025 33.9965C230.999 32.8404 229.438 31.2076 228.341 29.098C227.244 26.9765 226.696 24.4676 226.696 21.5714C226.696 18.7467 227.244 16.2676 228.341 14.1342C229.438 12.0008 230.981 10.3381 232.971 9.14626C234.974 7.9544 237.322 7.35847 240.015 7.35847C241.827 7.35847 243.513 7.65048 245.075 8.23449C246.648 8.80658 248.019 9.67068 249.187 10.8268C250.367 11.9829 251.284 13.437 251.94 15.189C252.595 16.9291 252.923 18.9672 252.923 21.3032V22.2581C252.923 22.886 252.414 23.3949 251.786 23.3949H230.872C230.244 23.3949 229.735 22.886 229.735 22.2581V19.812C229.735 19.1842 230.244 18.6752 230.872 18.6752H244.617C245.245 18.6752 245.767 18.1623 245.662 17.5433C245.552 16.8978 245.345 16.3037 245.039 15.7611C244.562 14.9149 243.901 14.2534 243.055 13.7766C242.22 13.288 241.249 13.0436 240.14 13.0436C238.984 13.0436 237.959 13.3118 237.065 13.8481C236.183 14.3726 235.492 15.0817 234.992 15.9756C234.491 16.8576 234.235 17.8409 234.223 18.9255V23.4128C234.223 24.7715 234.473 25.9455 234.974 26.9348C235.486 27.924 236.207 28.6868 237.137 29.2231C238.067 29.7595 239.169 30.0276 240.444 30.0276C241.291 30.0276 242.065 29.9084 242.768 29.6701C243.472 29.4317 244.074 29.0741 244.574 28.5974C244.88 28.3064 245.141 27.9754 245.358 27.6044C245.61 27.1728 246.059 26.8679 246.558 26.9008L251.454 27.2238C252.144 27.2694 252.639 27.9195 252.412 28.5731C252.003 29.7484 251.387 30.8054 250.563 31.7439C249.467 32.9954 248.048 33.9727 246.308 34.6759C244.58 35.3672 242.584 35.7128 240.319 35.7128Z" fill="#333333"/>
<path d="M271.363 7.71603C271.99 7.71603 272.499 8.22501 272.499 8.85288V12.3001C272.499 12.928 271.99 13.437 271.363 13.437H257.099C256.471 13.437 255.962 12.928 255.962 12.3001V8.85288C255.962 8.22501 256.471 7.71603 257.099 7.71603H271.363ZM259.717 2.27381C259.717 1.64595 260.226 1.13696 260.854 1.13696H266.196C266.824 1.13696 267.333 1.64595 267.333 2.27381V26.7381C267.333 27.4413 267.44 27.9896 267.655 28.3829C267.869 28.7643 268.167 29.0324 268.548 29.1874C268.942 29.3423 269.395 29.4198 269.907 29.4198C270.265 29.4198 270.622 29.39 270.98 29.3304C271.437 29.239 271.879 29.5336 271.975 29.9894L272.786 33.825C272.907 34.3986 272.572 34.968 272.002 35.106C271.814 35.1515 271.61 35.1989 271.391 35.248C270.7 35.4148 269.859 35.5161 268.87 35.5519C267.035 35.6234 265.426 35.3791 264.043 34.8189C262.673 34.2587 261.606 33.3887 260.843 32.2087C260.08 31.0288 259.705 29.539 259.717 27.7393V2.27381Z" fill="#333333"/>
</svg>
